<?xml version="1.0" encoding="utf-8"?>
<svg width="53px" height="53px" viewBox="0 0 53 53" version="1.1" xmlns:xlink="http://www.w3.org/1999/xlink" xmlns="http://www.w3.org/2000/svg">
  <desc>Created with Lunacy</desc>
  <defs>
    <filter id="filter_1">
      <feColorMatrix in="SourceGraphic" type="matrix" values="0 0 0 0 0.7764706 0 0 0 0 0.7764706 0 0 0 0 0.7764706 0 0 0 1 0" />
    </filter>
    <filter id="filter_2">
      <feColorMatrix in="SourceGraphic" type="matrix" values="0 0 0 0 0.16470589 0 0 0 0 0.17254902 0 0 0 0 0.17254902 0 0 0 1 0" />
    </filter>
    <path d="M51.8596 25.9298C51.8596 11.609 40.2506 0 25.9298 0C11.609 0 0 11.609 0 25.9298C0 40.2506 11.609 51.8596 25.9298 51.8596C40.2506 51.8596 51.8596 40.2506 51.8596 25.9298Z" id="path_1" />
    <clipPath id="mask_1">
      <use xlink:href="#path_1" />
    </clipPath>
  </defs>
  <g id="new-copy" transform="translate(0.5 0.5)" filter="url(#filter_1)">
    <path d="M51.8596 25.9298C51.8596 11.609 40.2506 0 25.9298 0C11.609 0 0 11.609 0 25.9298C0 40.2506 11.609 51.8596 25.9298 51.8596C40.2506 51.8596 51.8596 40.2506 51.8596 25.9298Z" id="Stroke-1" fill="none" stroke="#D0D2D3" stroke-width="1" />
    <path d="M51.8596 25.9298C51.8596 11.609 40.2506 0 25.9298 0C11.609 0 0 11.609 0 25.9298C0 40.2506 11.609 51.8596 25.9298 51.8596C40.2506 51.8596 51.8596 40.2506 51.8596 25.9298Z" id="Stroke-1" fill="none" stroke="#D0D2D3" stroke-width="1" />
    <g clip-path="url(#mask_1)">
      <g id="Group-13" transform="matrix(0.70710677 0.70710677 -0.70710677 0.70710677 16.949219 25.908203)">
        <path d="M19 5.5C19 2.46244 14.7468 0 9.5 0C4.25353 0 0 2.46244 0 5.5C0 8.53756 4.25353 11 9.5 11C14.7468 11 19 8.53756 19 5.5Z" transform="translate(0.259844 0)" id="Stroke-3" fill="none" stroke="#D0D2D3" stroke-width="1" />
        <path d="M11 3C11 1.34335 8.53784 0 5.50017 0C2.4625 0 0 1.34335 0 3C0 4.65665 2.4625 6 5.50017 6C8.53784 6 11 4.65665 11 3Z" transform="translate(4.259844 2)" id="Stroke-5" fill="none" stroke="#D0D2D3" stroke-width="1" />
        <path d="M0.26 27.8216L0.26 0" transform="translate(2.0374813E-12 5.558476)" id="Stroke-7" fill="none" stroke="#D0D2D3" stroke-width="1" />
        <path d="M0.26 27.8216L0.26 0" transform="translate(19.184507 5.558476)" id="Stroke-9" fill="none" stroke="#D0D2D3" stroke-width="1" />
      </g>
      <g id="new" transform="matrix(-0.70710677 -0.70710677 0.70710677 -0.70710677 38.023438 39.980957)" filter="url(#filter_2)">
        <path d="M28.2287 8.12084C28.2287 3.63584 21.9097 0 14.1144 0C6.31956 0 0 3.63584 0 8.12084C0 12.6058 6.31956 16.2417 14.1144 16.2417C21.9097 16.2417 28.2287 12.6058 28.2287 8.12084Z" transform="translate(0.259844 9.094947E-13)" id="Stroke-3" fill="none" stroke="#D0D2D3" stroke-width="1" />
        <path d="M16.8568 4.55104C16.8568 2.03788 13.0837 0 8.42868 0C3.77364 0 0 2.03788 0 4.55104C0 7.0642 3.77364 9.10208 8.42868 9.10208C13.0837 9.10208 16.8568 7.0642 16.8568 4.55104Z" transform="translate(5.945732 3.271216)" id="Stroke-5" fill="none" stroke="#D0D2D3" stroke-width="1" />
        <path d="M0.26 27.8216L0.26 0" transform="translate(0 7.800156)" id="Stroke-7" fill="none" stroke="#D0D2D3" stroke-width="1" />
        <path d="M0.26 27.8216L0.26 0" transform="translate(28.228563 7.800156)" id="Stroke-9" fill="none" stroke="#D0D2D3" stroke-width="1" />
      </g>
    </g>
  </g>
</svg>