<svg width="90" height="167" viewBox="0 0 90 167" fill="none" xmlns="http://www.w3.org/2000/svg">
<path d="M44.9 0.800049L44.4875 166.35" stroke="url(#paint0_linear)" stroke-width="88"/>
<path d="M28.5712 33.8854H35.4143V36.7H22.8594V35.8997C25.6003 32.9013 27.5778 30.6662 28.792 29.1946C30.0245 27.7045 30.8431 26.5732 31.2478 25.8006C31.6525 25.028 31.8548 24.2646 31.8548 23.5104C31.8548 22.9769 31.7352 22.5078 31.4961 22.1031C31.2753 21.6984 30.9534 21.3857 30.5303 21.1649C30.1256 20.9258 29.6473 20.8062 29.0955 20.8062C28.2309 20.8062 27.5319 21.0638 26.9984 21.5788C26.4833 22.0755 26.2258 22.7286 26.2258 23.538V23.9519H23.2457V23.538C23.2457 21.8824 23.7792 20.5487 24.8461 19.5369C25.9131 18.5068 27.3203 17.9917 29.0679 17.9917C30.7787 17.9917 32.1675 18.5068 33.2345 19.5369C34.3198 20.5671 34.8625 21.8916 34.8625 23.5104C34.8625 24.3566 34.7061 25.1752 34.3934 25.9662C34.0991 26.7572 33.492 27.7781 32.5722 29.029C31.6709 30.2615 30.3372 31.8803 28.5712 33.8854ZM43.8898 24.9452C45.7661 24.9452 47.3022 25.5155 48.4979 26.656C49.712 27.7965 50.319 29.2222 50.319 30.933C50.319 32.6805 49.7212 34.1338 48.5255 35.2927C47.3297 36.4516 45.8397 37.0311 44.0553 37.0311C42.2894 37.0311 40.8177 36.4792 39.6404 35.3755C38.4815 34.2717 37.8745 32.8645 37.8193 31.1537H40.7993C40.8361 32.0551 41.1581 32.7909 41.7651 33.3612C42.3722 33.9314 43.1356 34.2166 44.0553 34.2166C44.9935 34.2166 45.7661 33.9038 46.3732 33.2784C46.9986 32.6529 47.3114 31.8711 47.3114 30.933C47.3114 30.6202 47.2654 30.3167 47.1734 30.0224C47.0998 29.728 46.9894 29.4613 46.8423 29.2222C46.6951 28.9646 46.5111 28.7347 46.2904 28.5323C46.0881 28.33 45.8581 28.1552 45.6006 28.0081C45.343 27.8609 45.0579 27.7505 44.7452 27.6769C44.4509 27.6034 44.1289 27.5666 43.7794 27.5666H38.923L38.5643 27.1527L39.5576 18.3504H49.0497V21.0546H41.9583L41.5444 24.9452H43.8898ZM60.0375 37.0311C57.8116 37.0311 56.0456 36.1757 54.7396 34.4649C53.4335 32.7541 52.7804 30.4363 52.7804 27.5114C52.7804 24.5865 53.4243 22.2779 54.712 20.5855C56.018 18.8747 57.7932 18.0193 60.0375 18.0193C62.2633 18.0193 64.0201 18.8747 65.3078 20.5855C66.6139 22.2779 67.2669 24.5865 67.2669 27.5114C67.2669 30.4363 66.6139 32.7541 65.3078 34.4649C64.0017 36.1757 62.2449 37.0311 60.0375 37.0311ZM60.0375 34.2166C61.3619 34.2166 62.3921 33.6279 63.1279 32.4506C63.8821 31.2733 64.2592 29.6269 64.2592 27.5114C64.2592 26.1133 64.0845 24.9176 63.735 23.9243C63.4038 22.9125 62.9164 22.1491 62.2725 21.634C61.6471 21.1005 60.9021 20.8338 60.0375 20.8338C59.1545 20.8338 58.3911 21.1005 57.7472 21.634C57.1034 22.1491 56.6159 22.9125 56.2848 23.9243C55.9537 24.9176 55.7881 26.1133 55.7881 27.5114C55.7881 29.6269 56.156 31.2733 56.8918 32.4506C57.646 33.6279 58.6946 34.2166 60.0375 34.2166ZM76.7577 19.6197C76.1507 20.19 75.3596 20.4751 74.3847 20.4751C73.4097 20.4751 72.6095 20.19 71.9841 19.6197C71.377 19.0311 71.0735 18.2768 71.0735 17.3571C71.0735 16.4373 71.377 15.6923 71.9841 15.122C72.6095 14.5333 73.4097 14.239 74.3847 14.239C75.3596 14.239 76.1507 14.5333 76.7577 15.122C77.3832 15.6923 77.6959 16.4373 77.6959 17.3571C77.6959 18.2768 77.3832 19.0311 76.7577 19.6197ZM73.2258 18.4884C73.5385 18.7643 73.9248 18.9023 74.3847 18.9023C74.8446 18.9023 75.2217 18.7643 75.516 18.4884C75.8287 18.1941 75.9851 17.8169 75.9851 17.3571C75.9851 17.1363 75.9483 16.934 75.8747 16.75C75.8011 16.5477 75.6908 16.3821 75.5436 16.2533C75.3964 16.1062 75.2217 15.9958 75.0193 15.9222C74.8354 15.8486 74.6238 15.8118 74.3847 15.8118C74.072 15.8118 73.796 15.8762 73.5569 16.005C73.3177 16.1338 73.1246 16.3177 72.9774 16.5569C72.8487 16.796 72.7843 17.0627 72.7843 17.3571C72.7843 17.8169 72.9314 18.1941 73.2258 18.4884Z" fill="#00845E"/>
<path d="M68.55 164.55H82.85" stroke="#105A40" stroke-width="1.1"/>
<path d="M68.55 142.55H82.85" stroke="#105A40" stroke-width="1.1"/>
<path d="M68.55 120.55H82.85" stroke="#105A40" stroke-width="1.1"/>
<path d="M68.55 98.55H82.85" stroke="#105A40" stroke-width="1.1"/>
<path d="M68.55 76.55H82.85" stroke="#105A40" stroke-width="1.1"/>
<path d="M68.55 54.55H82.85" stroke="#105A40" stroke-width="1.1"/>
<path d="M75.9742 153.55H83.1242" stroke="#105A40" stroke-width="1.1"/>
<path d="M75.9742 131.55H83.1242" stroke="#105A40" stroke-width="1.1"/>
<path d="M75.9742 109.55H83.1242" stroke="#105A40" stroke-width="1.1"/>
<path d="M75.9742 87.55H83.1242" stroke="#105A40" stroke-width="1.1"/>
<path d="M75.9742 65.55H83.1242" stroke="#105A40" stroke-width="1.1"/>
<defs>
<linearGradient id="paint0_linear" x1="43.9481" y1="2.39716" x2="43.9481" y2="166.9" gradientUnits="userSpaceOnUse">
<stop stop-color="#FFE315"/>
<stop offset="1" stop-color="#045518"/>
</linearGradient>
</defs>
</svg>
