<svg width="89" height="229" viewBox="0 0 89 229" fill="none" xmlns="http://www.w3.org/2000/svg">
<path d="M44.9984 0L44.4484 228.25" stroke="url(#paint0_linear)" stroke-width="88"/>
<path d="M68.6477 217.25H82.9477" stroke="#FFCA17" stroke-width="1.1"/>
<path d="M68.6477 195.25H82.9477" stroke="#FFCA17" stroke-width="1.1"/>
<path d="M68.6477 173.25H82.9477" stroke="#FFCA17" stroke-width="1.1"/>
<path d="M68.6477 151.25H82.9477" stroke="#FFCA17" stroke-width="1.1"/>
<path d="M68.6477 129.25H82.9477" stroke="#FFCA17" stroke-width="1.1"/>
<path d="M68.6477 107.25H82.9477" stroke="#FFCA17" stroke-width="1.1"/>
<path d="M76.0719 206.25H83.2219" stroke="#FFCA17" stroke-width="1.1"/>
<path d="M76.0719 184.25H83.2219" stroke="#FFCA17" stroke-width="1.1"/>
<path d="M76.0719 162.25H83.2219" stroke="#FFCA17" stroke-width="1.1"/>
<path d="M76.0719 140.25H83.2219" stroke="#FFCA17" stroke-width="1.1"/>
<path d="M76.0719 118.25H83.2219" stroke="#FFCA17" stroke-width="1.1"/>
<path d="M68.6477 107.25H82.9477" stroke="#FFCB18" stroke-width="1.1"/>
<path d="M68.6477 85.25H82.9477" stroke="#FFCB18" stroke-width="1.1"/>
<path d="M68.6477 63.25H82.9477" stroke="#FFCB18" stroke-width="1.1"/>
<path d="M68.6477 41.25H82.9477" stroke="#FFCB18" stroke-width="1.1"/>
<path d="M76.0719 96.25H83.2219" stroke="#FFCB18" stroke-width="1.1"/>
<path d="M76.0719 74.25H83.2219" stroke="#FFCB18" stroke-width="1.1"/>
<path d="M76.0719 52.25H83.2219" stroke="#FFCB18" stroke-width="1.1"/>
<path d="M16.3744 18.9473C18.2843 18.9473 19.8461 19.5274 21.0599 20.6876C22.2915 21.8478 22.9073 23.3383 22.9073 25.1589C22.9073 26.9081 22.2825 28.8448 21.0331 30.9689L17.4721 37.1001H14.286C16.2673 33.673 17.4989 31.5043 17.9809 30.594C17.3026 30.8618 16.5975 30.9956 15.8657 30.9956C14.17 30.9956 12.751 30.4423 11.6086 29.3356C10.4663 28.2111 9.8951 26.8189 9.8951 25.1589C9.8951 23.3561 10.502 21.8746 11.7157 20.7144C12.9295 19.5364 14.4824 18.9473 16.3744 18.9473ZM16.4012 28.6663C17.4543 28.6663 18.32 28.3361 18.9983 27.6756C19.6944 27.0152 20.0425 26.1763 20.0425 25.1589C20.0425 24.6591 19.9532 24.195 19.7747 23.7666C19.5962 23.3383 19.3463 22.9723 19.025 22.6689C18.7038 22.3476 18.3111 22.1067 17.847 21.946C17.4008 21.7675 16.9188 21.6783 16.4012 21.6783C15.3481 21.6783 14.4735 22.0085 13.7773 22.6689C13.0991 23.3115 12.7599 24.1504 12.7599 25.1857C12.7599 26.2031 13.0991 27.042 13.7773 27.7024C14.4735 28.345 15.3481 28.6663 16.4012 28.6663ZM32.5076 37.4214C30.3479 37.4214 28.6343 36.5914 27.367 34.9314C26.0997 33.2714 25.4661 31.0224 25.4661 28.1844C25.4661 25.3463 26.0908 23.1062 27.3402 21.4641C28.6076 19.8041 30.33 18.9741 32.5076 18.9741C34.6674 18.9741 36.372 19.8041 37.6215 21.4641C38.8888 23.1062 39.5224 25.3463 39.5224 28.1844C39.5224 31.0224 38.8888 33.2714 37.6215 34.9314C36.3542 36.5914 34.6496 37.4214 32.5076 37.4214ZM32.5076 34.6904C33.7928 34.6904 34.7923 34.1193 35.5063 32.9769C36.2381 31.8345 36.6041 30.237 36.6041 28.1844C36.6041 26.8278 36.4345 25.6676 36.0953 24.7037C35.7741 23.722 35.3011 22.9813 34.6763 22.4815C34.0694 21.9639 33.3465 21.705 32.5076 21.705C31.6509 21.705 30.9101 21.9639 30.2854 22.4815C29.6607 22.9813 29.1877 23.722 28.8664 24.7037C28.5451 25.6676 28.3844 26.8278 28.3844 28.1844C28.3844 30.237 28.7414 31.8345 29.4554 32.9769C30.1872 34.1193 31.2046 34.6904 32.5076 34.6904ZM49.2937 37.4214C47.1339 37.4214 45.4204 36.5914 44.1531 34.9314C42.8858 33.2714 42.2521 31.0224 42.2521 28.1844C42.2521 25.3463 42.8768 23.1062 44.1263 21.4641C45.3936 19.8041 47.1161 18.9741 49.2937 18.9741C51.4534 18.9741 53.1581 19.8041 54.4075 21.4641C55.6748 23.1062 56.3085 25.3463 56.3085 28.1844C56.3085 31.0224 55.6748 33.2714 54.4075 34.9314C53.1402 36.5914 51.4356 37.4214 49.2937 37.4214ZM49.2937 34.6904C50.5788 34.6904 51.5784 34.1193 52.2924 32.9769C53.0242 31.8345 53.3901 30.237 53.3901 28.1844C53.3901 26.8278 53.2205 25.6676 52.8814 24.7037C52.5601 23.722 52.0871 22.9813 51.4624 22.4815C50.8555 21.9639 50.1326 21.705 49.2937 21.705C48.4369 21.705 47.6962 21.9639 47.0714 22.4815C46.4467 22.9813 45.9737 23.722 45.6524 24.7037C45.3311 25.6676 45.1705 26.8278 45.1705 28.1844C45.1705 30.237 45.5275 31.8345 46.2414 32.9769C46.9733 34.1193 47.9907 34.6904 49.2937 34.6904ZM65.5175 20.527C64.9284 21.0803 64.1609 21.357 63.2149 21.357C62.2689 21.357 61.4924 21.0803 60.8856 20.527C60.2965 19.9558 60.002 19.224 60.002 18.3315C60.002 17.4391 60.2965 16.7162 60.8856 16.1628C61.4924 15.5917 62.2689 15.3061 63.2149 15.3061C64.1609 15.3061 64.9284 15.5917 65.5175 16.1628C66.1243 16.7162 66.4278 17.4391 66.4278 18.3315C66.4278 19.224 66.1243 19.9558 65.5175 20.527ZM62.0904 19.4293C62.3938 19.697 62.7687 19.8309 63.2149 19.8309C63.6611 19.8309 64.027 19.697 64.3126 19.4293C64.6161 19.1437 64.7678 18.7778 64.7678 18.3315C64.7678 18.1173 64.7321 17.921 64.6607 17.7425C64.5893 17.5462 64.4822 17.3855 64.3394 17.2606C64.1966 17.1178 64.027 17.0107 63.8307 16.9393C63.6522 16.8679 63.4469 16.8322 63.2149 16.8322C62.9115 16.8322 62.6437 16.8947 62.4117 17.0196C62.1796 17.1445 61.9922 17.323 61.8494 17.5551C61.7245 17.7871 61.662 18.0459 61.662 18.3315C61.662 18.7778 61.8048 19.1437 62.0904 19.4293Z" fill="#FFC416"/>
<defs>
<linearGradient id="paint0_linear" x1="43.8984" y1="0" x2="43.8984" y2="228.8" gradientUnits="userSpaceOnUse">
<stop stop-color="#FF0B01"/>
<stop offset="1" stop-color="#FFCE18"/>
</linearGradient>
</defs>
</svg>
