<?xml version="1.0" encoding="utf-8"?>
<svg width="53px" height="53px" viewBox="0 0 53 53" version="1.1" xmlns:xlink="http://www.w3.org/1999/xlink" xmlns="http://www.w3.org/2000/svg">
  <desc>Created with Lunacy</desc>
  <defs>
    <filter id="filter_1">
      <feColorMatrix in="SourceGraphic" type="matrix" values="0 0 0 0 0.7764706 0 0 0 0 0.7764706 0 0 0 0 0.7764706 0 0 0 1 0" />
    </filter>
  </defs>
  <g id="more_tobacco" transform="translate(0.5 0.5)" filter="url(#filter_1)">
    <path d="M51.1906 25.5953C51.1906 39.7314 39.7314 51.1917 25.5953 51.1917C11.4592 51.1917 0 39.7314 0 25.5953C0 11.4592 11.4592 0 25.5953 0C39.7314 0 51.1906 11.4592 51.1906 25.5953Z" id="Stroke-1" fill="none" stroke="#FEFEFE" stroke-width="1" />
    <path d="M1.54873 0.408087C0.622907 2.33322 0.177516 3.74061 0.0384722 5.23843C-0.0655278 6.36096 0.024907 6.79844 0.513255 7.52983C1.34752 8.77217 1.9636 9.40635 3.21273 10.296C3.76665 10.6928 5.42386 11.7588 5.48491 11.7588C5.49734 11.7588 5.58778 11.8074 5.67934 11.8684C5.77091 11.9283 6.0083 12.0877 6.20952 12.2155C6.90473 12.6665 7.73334 13.3063 8.14708 13.702L8.55517 14.0977L8.51334 13.641C8.39691 12.5207 8.46473 11.3812 8.80499 8.95644C8.90899 8.21261 8.94517 6.12922 8.86604 5.52557C8.75073 4.67774 8.28725 3.198 8.02499 2.85661C7.2823 1.87652 5.24073 0.839913 2.95047 0.267913C2.36491 0.120957 1.85395 0 1.81665 0C1.78047 0 1.65839 0.182 1.54873 0.408087Z" transform="translate(15.09375 7.229492)" id="Stroke-3" fill="none" stroke="#FEFEFE" stroke-width="1" />
    <path d="M6.01949 0.238911C4.77036 0.555433 3.96662 0.847085 2.99784 1.33543C1.85158 1.91987 1.28636 2.32908 0.883928 2.85248C0.621668 3.19274 0.158189 4.67361 0.0428849 5.52143C-0.0362455 6.13074 -7.16045e-05 8.21413 0.103928 8.95117C0.426102 11.2369 0.517668 12.7291 0.395581 13.7035L0.34132 14.1003L0.761841 13.6967C1.17558 13.3022 2.00419 12.6613 2.69828 12.2113C2.90062 12.0836 3.13802 11.9242 3.22958 11.8632C3.32002 11.8021 3.41158 11.7547 3.42402 11.7547C3.48506 11.7547 5.14228 10.6875 5.69619 10.2919C6.94532 9.40108 7.56141 8.76804 8.39567 7.52456C8.81054 6.90395 8.88967 6.63604 8.88967 5.84361C8.89532 4.46674 8.46349 2.75526 7.68349 1.09126C7.18949 0.0365633 7.16576 -0.00526277 7.06176 0.000389408C7.00749 0.000389408 6.53723 0.111172 6.01949 0.238911Z" transform="translate(27.195312 7.234375)" id="Stroke-5" fill="none" stroke="#FEFEFE" stroke-width="1" />
    <path d="M5.41704 0.0918696C4.49122 0.287435 3.10191 0.909174 2.06643 1.58404C1.7793 1.76717 1.20052 2.1877 0.774348 2.51778L0 3.11465L0.512087 4.1377C1.57809 6.26404 3.03522 8.03657 4.17356 8.58596C4.51496 8.75552 5.16722 8.829 6.26939 8.83465C7.57391 8.84144 8.80496 8.54865 11.284 7.6477C12.9966 7.02596 13.728 6.81796 14.69 6.69022L15.2812 6.61674L14.7816 6.28326C14.0683 5.80735 13.7461 5.52135 11.9057 3.71152C9.64487 1.49361 8.94513 0.974739 7.32409 0.336044C6.37339 -0.0415217 6.15409 -0.0663913 5.41704 0.0918696Z" transform="translate(5.921875 17.774902)" id="Stroke-7" fill="none" stroke="#FEFEFE" stroke-width="1" />
    <path d="M7.91417 0.354989C6.32365 0.989163 5.62957 1.5069 3.37435 3.71238C1.52948 5.52108 1.21183 5.80708 0.498522 6.28299L0 6.6176L0.590087 6.68994C1.55322 6.81881 2.28461 7.02568 3.99609 7.64742C6.47626 8.54951 7.7073 8.84229 9.0107 8.83551C10.114 8.82986 10.7651 8.75638 11.1065 8.58568C12.246 8.03742 13.702 6.2649 14.768 4.13855L15.2801 3.11438L14.5069 2.51751C14.0807 2.18855 13.5008 1.76803 13.2148 1.5849C12.1612 0.896468 10.7776 0.287163 9.83365 0.0870764C9.09548 -0.0655323 8.89539 -0.0417932 7.91417 0.354989Z" transform="translate(29.992188 17.774414)" id="Stroke-9" fill="none" stroke="#FEFEFE" stroke-width="1" />
    <path d="M11.7726 0.153015C10.9078 0.463885 9.84743 0.641363 7.15474 0.909276C5.77109 1.04832 4.27891 1.39084 3.43222 1.76162C2.63978 2.10867 1.65291 2.71232 1.40309 3.00397C0.945261 3.53415 0.47613 4.78441 0.227435 6.11719C0.0623912 6.98989 -0.0110871 7.86597 0.00134769 8.92067L0.00699987 9.77415L0.738391 9.93806C2.18874 10.2727 3.10891 10.371 4.39422 10.3348C5.6377 10.2987 6.16787 10.2116 6.77717 9.95615C7.09935 9.8171 7.23952 9.70067 7.80587 9.08458C8.56213 8.2571 8.85378 7.83658 9.31726 6.91076C9.73213 6.07536 10.0057 5.39936 10.4873 3.95467C11.0841 2.18893 11.6019 0.957885 11.9681 0.433363C12.0891 0.263798 12.2417 -0.0120284 12.2112 0.000406351C12.1987 0.000406351 12.0043 0.0738846 11.7726 0.153015Z" transform="translate(9.839844 28.19336)" id="Stroke-11" fill="none" stroke="#FEFEFE" stroke-width="1" />
    <path d="M0.0666957 0.134522C0.109652 0.20687 0.188783 0.341391 0.255478 0.432957C0.621739 0.957478 1.12704 2.16252 1.7307 3.94861C2.21791 5.39783 2.49148 6.07496 2.90635 6.90922C3.3687 7.83504 3.66148 8.2567 4.41661 9.08417C4.98409 9.70026 5.11748 9.81557 5.44643 9.95009C6.0987 10.2237 6.5373 10.2971 7.79887 10.3333C9.11469 10.3706 10.0224 10.2723 11.4852 9.93765L12.2155 9.77261L12.2223 8.91913C12.2347 7.86557 12.1612 6.98835 11.9962 6.11678C11.7475 4.78287 11.2772 3.53374 10.8205 3.00357C10.5707 2.71078 9.58383 2.10826 8.79139 1.76009C7.93904 1.3893 6.44574 1.04226 5.06887 0.90887C4.70939 0.870435 4.31939 0.834261 4.20409 0.817304C4.08765 0.80487 3.692 0.761913 3.32009 0.724609C2.19304 0.609304 1.1327 0.395652 0.431826 0.152609L0 0L0.0666957 0.134522Z" transform="translate(29.132812 28.194336)" id="Stroke-13" fill="none" stroke="#FEFEFE" stroke-width="1" />
    <path d="M4.27757 0.353826C3.9667 1.19374 3.41278 2.20548 2.32191 3.9C1.4447 5.26443 0.652261 6.79278 0.396783 7.61574C0.231739 8.164 0 9.48661 0 9.91278C0 10.2485 0.280348 11.0104 0.598 11.5282C1.33504 12.7468 2.34 13.8365 3.85704 15.0676L4.44826 15.548L5.03948 15.0676C6.55652 13.8365 7.56148 12.7468 8.29965 11.5282C8.61617 11.0104 8.89539 10.2485 8.89539 9.91278C8.89539 9.45609 8.658 8.14704 8.476 7.5547C8.21374 6.72044 7.45748 5.27009 6.55652 3.86835C5.48374 2.20548 4.92304 1.18809 4.61896 0.353826C4.55226 0.158261 4.47313 0 4.44826 0C4.42339 0 4.34539 0.158261 4.27757 0.353826Z" transform="translate(21.148438 30.016113)" id="Stroke-15" fill="none" stroke="#FEFEFE" stroke-width="1" />
  </g>
</svg>