<?xml version="1.0" encoding="UTF-8"?>
<svg width="23px" height="35px" viewBox="0 0 23 35" version="1.1" xmlns="http://www.w3.org/2000/svg" xmlns:xlink="http://www.w3.org/1999/xlink">
    <title>ampersand_white</title>
    <g id="Desktop" stroke="none" stroke-width="1" fill="none" fill-rule="evenodd">
        <path d="M2.5717443,17 L5.29938796,20.8529865 C4.62104726,21.8214286 4.21285277,23.0655788 4.21285277,24.4205665 C4.21285277,27.512931 6.3299898,30.0164717 8.94219653,30.0164717 C9.78952737,30.0164717 10.5844951,29.7532328 11.2723563,29.2918719 L11.2723563,29.2918719 L14,33.1462438 C12.5612037,34.3155788 10.8201292,35 8.94219653,35 C4.0034002,35 0,30.2644704 0,24.4205665 C0,21.5290948 0.981808909,18.9091749 2.5717443,17 L2.5717443,17 Z M9.0889325,0.0123194696 L10.3354396,5.48573318 C9.13124846,4.71035602 7.59215677,4.83103189 6.48106073,5.93098553 C5.04715442,7.35135442 4.87063644,9.85780617 6.08812688,11.5306234 L23,35 L17.3780233,34.9889034 L2.80682693,14.7583562 L2.81770818,14.7472596 C0.0804704907,10.9744048 0.479449482,5.32760617 3.71238834,2.12761493 C5.2684064,0.587957252 7.19801389,-0.102808087 9.0889325,0.0123194696 Z M20,14 L20,18.8755074 C18.1769895,18.8755074 16.646021,20.2016238 16.1970226,22 L16.1970226,22 L13,17.9309878 C14.5348282,15.5575101 17.0963058,14 20,14 L20,14 Z" id="ampersand_white" fill="#FFFFFF"></path>
    </g>
</svg>