<?xml version="1.0" encoding="utf-8"?>
<!-- Generator: Adobe Illustrator 24.0.1, SVG Export Plug-In . SVG Version: 6.00 Build 0)  -->
<svg version="1.1" id="Layer_1" xmlns="http://www.w3.org/2000/svg" xmlns:xlink="http://www.w3.org/1999/xlink" x="0px" y="0px"
	 viewBox="0 0 62 62" style="enable-background:new 0 0 62 62;" xml:space="preserve">
<style type="text/css">
	.st0{fill:none;}
	.st1{fill:#B0B0B0;}
</style>
<title>boost1</title>
<desc>Created with Sketch.</desc>
<g>
	<path class="st0" d="M22.9,27.6c-0.8,0-1.5,0.3-2,0.8c-0.5,0.6-0.8,1.2-0.8,2c0,0.8,0.3,1.5,0.8,2c0.5,0.6,1.2,0.8,2,0.8
		c0.8,0,1.5-0.3,2-0.8c0.5-0.6,0.8-1.2,0.8-2c0-0.8-0.3-1.5-0.8-2C24.4,27.9,23.7,27.6,22.9,27.6z"/>
	<path class="st0" d="M33.9,27.6c-0.8,0-1.5,0.3-2,0.8c-0.5,0.6-0.8,1.2-0.8,2c0,0.8,0.3,1.5,0.8,2c0.5,0.6,1.2,0.8,2,0.8
		s1.5-0.3,2-0.8s0.8-1.2,0.8-2c0-0.8-0.3-1.5-0.8-2S34.7,27.6,33.9,27.6z"/>
	<path class="st0" d="M13.4,31.2H11v2h2.4c0.9,0,1.4-0.3,1.4-1C14.8,31.6,14.3,31.2,13.4,31.2z"/>
	<path class="st0" d="M14.3,28.6c0-0.3-0.1-0.5-0.3-0.7s-0.6-0.2-1-0.2h-2v1.9h1.8C13.8,29.6,14.3,29.2,14.3,28.6z"/>
	<path class="st0" d="M31,1.4C14.7,1.4,1.4,14.7,1.4,31S14.7,60.6,31,60.6c16.3,0,29.6-13.3,29.6-29.6S47.3,1.4,31,1.4z M15.9,34.4
		c-0.6,0.4-1.4,0.6-2.5,0.6H9.1v-9.1h4.2c1,0,1.8,0.3,2.4,0.8c0.4,0.4,0.6,0.9,0.6,1.6c0,0.9-0.4,1.5-1.2,2c0.6,0.2,1,0.5,1.3,0.9
		s0.4,0.8,0.4,1.4C16.8,33.3,16.5,33.9,15.9,34.4z M26.4,33.8c-0.9,0.9-2.1,1.4-3.5,1.4s-2.5-0.5-3.5-1.4c-0.9-0.9-1.4-2-1.4-3.3
		c0-1.3,0.5-2.4,1.4-3.3c0.9-0.9,2.1-1.4,3.5-1.4s2.5,0.5,3.5,1.4c0.9,0.9,1.4,2,1.4,3.3C27.7,31.8,27.3,32.9,26.4,33.8z M37.4,33.8
		c-0.9,0.9-2.1,1.4-3.5,1.4s-2.5-0.5-3.5-1.4c-0.9-0.9-1.4-2-1.4-3.3c0-1.3,0.5-2.4,1.4-3.3c0.9-0.9,2.1-1.4,3.5-1.4
		s2.5,0.5,3.5,1.4c0.9,0.9,1.4,2,1.4,3.3C38.8,31.8,38.3,32.9,37.4,33.8z M46.2,34.4c-0.6,0.5-1.4,0.7-2.4,0.7
		c-1.5,0-2.8-0.5-3.9-1.5l1.2-1.4c0.9,0.7,1.8,1.1,2.7,1.1c0.4,0,0.7-0.1,1-0.2c0.2-0.2,0.4-0.4,0.4-0.7c0-0.3-0.1-0.5-0.4-0.6
		c-0.2-0.2-0.7-0.3-1.5-0.5c-0.5-0.1-0.9-0.3-1.3-0.4s-0.6-0.3-0.9-0.5s-0.5-0.5-0.6-0.8c-0.1-0.3-0.2-0.7-0.2-1.1
		c0-0.8,0.3-1.5,0.9-2s1.4-0.8,2.3-0.8c1.3,0,2.4,0.4,3.4,1.2l-1,1.5c-0.9-0.6-1.6-0.9-2.4-0.9c-0.4,0-0.7,0.1-0.9,0.2
		s-0.3,0.3-0.3,0.6c0,0.3,0.1,0.5,0.4,0.7c0.3,0.1,0.8,0.3,1.6,0.5c1,0.3,1.7,0.6,2.2,1c0.5,0.4,0.7,1,0.7,1.8
		C47.1,33.2,46.8,33.9,46.2,34.4z M52.8,27.7V35h-2v-7.3H48v-1.8h7.5v1.8H52.8z"/>
	<path class="st1" d="M34,25.7c-1.4,0-2.5,0.5-3.5,1.4c-0.9,0.9-1.4,2-1.4,3.3c0,1.3,0.5,2.4,1.4,3.3c0.9,0.9,2.1,1.4,3.5,1.4
		s2.5-0.5,3.5-1.4c0.9-0.9,1.4-2,1.4-3.3c0-1.3-0.5-2.4-1.4-3.3C36.5,26.2,35.4,25.7,34,25.7z M35.9,32.5c-0.5,0.6-1.2,0.8-2,0.8
		s-1.5-0.3-2-0.8c-0.5-0.6-0.8-1.2-0.8-2c0-0.8,0.3-1.5,0.8-2c0.5-0.6,1.2-0.8,2-0.8s1.5,0.3,2,0.8s0.8,1.2,0.8,2
		C36.7,31.3,36.4,31.9,35.9,32.5z"/>
	<path class="st1" d="M15.1,30.2c0.8-0.5,1.2-1.1,1.2-2c0-0.6-0.2-1.2-0.6-1.6c-0.5-0.5-1.3-0.8-2.4-0.8H9.1V35h4.3
		c1.1,0,1.9-0.2,2.5-0.6c0.6-0.4,0.9-1,0.9-1.9c0-0.6-0.1-1.1-0.4-1.4S15.7,30.5,15.1,30.2z M11,27.7h2c0.4,0,0.7,0.1,1,0.2
		s0.3,0.4,0.3,0.7c0,0.7-0.5,1-1.4,1H11V27.7z M13.4,33.2H11v-2h2.3c1,0,1.5,0.3,1.5,1C14.8,32.9,14.4,33.2,13.4,33.2z"/>
	<path class="st1" d="M44.2,29.6c-0.8-0.2-1.3-0.4-1.6-0.5c-0.3-0.1-0.4-0.4-0.4-0.7c0-0.2,0.1-0.4,0.3-0.6s0.5-0.2,0.9-0.2
		c0.7,0,1.5,0.3,2.4,0.9l1-1.5c-1-0.8-2.1-1.2-3.4-1.2c-0.9,0-1.7,0.3-2.3,0.8s-0.9,1.2-0.9,2c0,0.4,0.1,0.8,0.2,1.1
		c0.1,0.3,0.3,0.6,0.6,0.8s0.6,0.4,0.9,0.5s0.7,0.3,1.3,0.4c0.7,0.2,1.2,0.4,1.5,0.5c0.2,0.2,0.4,0.4,0.4,0.6c0,0.3-0.1,0.5-0.4,0.7
		c-0.2,0.2-0.6,0.2-1,0.2c-0.9,0-1.8-0.4-2.7-1.1l-1.2,1.4c1.1,1,2.4,1.5,3.9,1.5c1,0,1.8-0.2,2.4-0.7s0.9-1.2,0.9-2.1
		c0-0.8-0.2-1.3-0.7-1.8C45.9,30.1,45.2,29.8,44.2,29.6z"/>
	<path class="st1" d="M22.9,25.7c-1.4,0-2.5,0.5-3.5,1.4c-0.9,0.9-1.4,2-1.4,3.3c0,1.3,0.5,2.4,1.4,3.3c0.9,0.9,2.1,1.4,3.5,1.4
		s2.5-0.5,3.5-1.4c0.9-0.9,1.4-2,1.4-3.3c0-1.3-0.5-2.4-1.4-3.3C25.5,26.2,24.3,25.7,22.9,25.7z M24.9,32.5c-0.5,0.6-1.2,0.8-2,0.8
		c-0.8,0-1.5-0.3-2-0.8c-0.5-0.6-0.8-1.2-0.8-2c0-0.8,0.3-1.5,0.8-2c0.5-0.6,1.2-0.8,2-0.8c0.8,0,1.5,0.3,2,0.8
		c0.5,0.6,0.8,1.2,0.8,2C25.7,31.3,25.4,31.9,24.9,32.5z"/>
	<polygon class="st1" points="48,25.9 48,27.7 50.8,27.7 50.8,35 52.8,35 52.8,27.7 55.5,27.7 55.5,25.9 	"/>
	<path class="st1" d="M31,0C13.9,0,0,13.9,0,31s13.9,31,31,31c17.1,0,31-13.9,31-31S48.1,0,31,0z M31,60.6
		C14.7,60.6,1.4,47.3,1.4,31S14.7,1.4,31,1.4c16.3,0,29.6,13.3,29.6,29.6S47.3,60.6,31,60.6z"/>
</g>
</svg>
