<svg xmlns="http://www.w3.org/2000/svg" width="52" height="51" viewBox="0 0 52 51">
    <g fill="none" fill-rule="evenodd">
        <ellipse cx="25.936" cy="25.395" fill="#0CB269" fill-opacity="0" stroke="#B0B0B0" rx="25.436" ry="24.895"/>
        <g fill="#B0B0B0">
            <path d="M37.9 17.23a2.094 2.094 0 0 1 0 2.993L22.618 35.187a2.184 2.184 0 0 1-3.057 0 2.094 2.094 0 0 1 0-2.993L34.844 17.23a2.184 2.184 0 0 1 3.056 0z"/>
            <path d="M22.369 35.447a2.184 2.184 0 0 1-3.057 0L13.2 29.461a2.094 2.094 0 0 1 0-2.993 2.184 2.184 0 0 1 3.057 0l6.113 5.986a2.094 2.094 0 0 1 0 2.993z"/>
        </g>
    </g>
</svg>
