<?xml version="1.0" encoding="UTF-8"?>
<svg width="63px" height="63px" viewBox="0 0 63 63" version="1.1" xmlns="http://www.w3.org/2000/svg" xmlns:xlink="http://www.w3.org/1999/xlink">
    <title>tobacco_icon</title>
    <defs>
        <path d="M51.896695,31.2939094 L51.9459202,31.3853425 L51.9805313,31.4853848 C52.0064896,31.587463 52.0064896,31.6945388 51.9805313,31.7966171 L51.9459202,31.8966593 L51.7297325,32.4044828 C47.3064182,42.6399615 41.2167698,47.3803474 35.4884643,48.6495565 L35.2070446,48.709187 L34.7477031,48.7943617 C32.7429404,49.1332464 30.6883378,49.0527972 28.717563,48.5565825 L28.2965859,48.4438883 L27.8835882,48.3218137 C26.103846,47.7658992 24.4556182,46.8613415 23.0414555,45.6618584 L22.719312,45.3798437 L22.4706722,45.1468715 C20.6155609,43.3626476 19.3620504,41.097958 18.9999983,38.6425402 L20.0621908,38.6495113 C20.1488226,38.6492383 20.2354745,38.6488214 20.3221442,38.6482906 C20.6942347,40.755021 21.7410151,42.6995158 23.3203742,44.1894902 L23.5885077,44.4335607 L23.9016228,44.7086203 C25.1715728,45.787193 26.6489441,46.6043973 28.2453883,47.1106955 L28.646929,47.2307642 L29.0584136,47.3394832 C30.847424,47.781751 32.7101782,47.8488839 34.5262686,47.5363635 L34.9444832,47.457502 L34.9476183,47.4551883 L35.2192415,47.3976845 C40.11446,46.3112571 45.3247725,42.4424159 49.408128,34.3189524 L49.6338125,33.8632623 L49.4277028,34.0063661 C47.2240336,35.5182702 43.5049332,37.4977781 38.2325362,38.4637211 C38.8402081,38.0075701 39.3969253,37.480973 39.8991899,36.9168675 L40.172,36.599 L40.006037,36.7957749 C42.9254103,36.0717806 45.7082947,34.8788223 48.2404096,33.2608752 L48.7434552,32.9316323 L48.546053,32.957475 C47.0180804,33.147944 44.9845547,33.1805813 42.6111113,32.6794195 C42.7448565,32.3721073 42.8675577,32.0601372 42.9794883,31.7432643 C43.0118162,31.6516333 43.0298389,31.5581531 43.0351505,31.464676 C47.7737596,32.4381244 50.9430442,31.1228544 51.0887362,31.0548399 L51.0939673,31.0521768 L51.0963186,31.0521768 L51.1959085,31.0188811 C51.464182,30.9526613 51.7478047,31.0644754 51.896695,31.2939094 Z M40.6128919,11 C40.7145078,11 40.8184869,11.0245831 40.9145887,11.0753354 C41.0768591,11.1609798 41.1950171,11.3084785 41.243068,11.4853183 C44.603482,22.9632549 42.7665187,30.8702954 38.909841,35.5736008 C37.4131728,37.3983025 35.4990129,38.8296743 33.3312071,39.7463866 C31.3343366,40.6004517 29.1665308,40.9723705 27.0010882,40.8304228 C23.7840393,40.6028307 20.7875519,39.2055581 18.7859551,36.7313863 C17.1167762,37.939924 11.7681565,42.1127099 11.2978876,46.4147553 C11.2600771,46.773986 10.939475,47.0356773 10.5826378,46.9960271 C10.2250128,46.9587559 9.96585291,46.6367964 10.0036635,46.2767727 C10.5180447,41.4568958 16.2187752,36.9669084 18.0155648,35.6679682 C17.1561622,34.2841767 16.6173616,32.7243383 16.4417,31.1002665 C16.2022331,28.875891 16.6402055,26.6301043 17.6957505,24.6610759 C18.8277043,22.562788 20.6229184,20.9069961 22.7962382,19.9561846 C24.0101149,19.416942 25.3004005,19.0711924 26.6206194,18.9292447 C36.7388844,17.8071444 40.0347053,11.3687468 40.0362808,11.3497147 C40.1536511,11.1268806 40.378939,11 40.6128919,11 Z M40.6932394,14.5288668 L40.6290673,14.7551154 C39.7874664,17.665352 37.8411876,22.2493278 33.4217949,26.8814865 L33.4217949,26.8814865 L33.3805381,26.9291658 L33.3805381,26.9291658 L33.3351457,26.9726819 L32.7555933,27.5557159 C31.1939668,29.0932425 29.5038501,30.492297 27.7029469,31.7378416 L27.7029469,31.7378416 L32.0905479,32.5736675 L32.1889783,32.6024805 C32.4728128,32.710421 32.649199,33.0055374 32.6009906,33.3167121 C32.5505765,33.6394646 32.2748744,33.8694357 31.9597864,33.8694357 L31.9597864,33.8694357 L31.90888,33.8675523 L31.90888,33.8675523 L31.8573828,33.8615057 L26.1464119,32.7758835 L25.3973947,33.2395119 C23.6403542,34.3053524 21.8184806,35.2591748 19.9423282,36.0946043 L19.9423282,36.0946043 L20.1654231,36.3370288 C21.9779697,38.2447154 24.4503875,39.3879807 27.0767094,39.5219666 L27.0767094,39.5219666 L27.4981864,39.5437037 C29.3242959,39.6069555 31.1433708,39.2685452 32.8286417,38.55133 L32.8286417,38.55133 L33.2203041,38.3774422 C35.0331867,37.5369724 36.6349053,36.2928024 37.9031347,34.7377748 L37.9031347,34.7377748 L37.9031347,34.7338098 L38.0789034,34.5153783 C41.2726231,30.4650513 42.8741691,23.8967902 40.6932394,14.5288668 L40.6932394,14.5288668 Z M39.3982275,14.3480619 L39.2570785,14.4973357 C37.191406,16.6540993 33.2904963,19.5269713 26.7639845,20.2345289 L26.7639845,20.2345289 L26.3201534,20.2889612 C25.2878216,20.4360634 24.2796137,20.7234157 23.3208598,21.1425182 L23.3208598,21.1425182 L23.0049545,21.2875317 C21.2327572,22.1413995 19.7695987,23.5375218 18.828492,25.2788259 L18.828492,25.2788259 L18.6618265,25.6078264 C17.8607347,27.2663969 17.5440159,29.1236055 17.7493154,30.9599049 L17.7493154,30.9599049 L17.7958955,31.324905 C17.9208661,32.1739193 18.1595207,33.0032773 18.5055267,33.7901353 C18.6922164,34.2151853 18.9112026,34.6267543 19.1593344,35.0200842 L19.1593344,35.0200842 L19.7565608,34.7505193 C25.2768345,32.217953 29.2944131,29.2254416 32.2134323,26.2454975 L32.2134323,26.2454975 L31.7069282,21.092559 L31.7038758,21.0658942 L31.7038758,21.0658942 L31.7014142,21.0386347 L31.7031536,20.9417042 C31.7321353,20.6241035 31.9877863,20.3673931 32.3150482,20.3479284 L32.3150482,20.3479284 L32.4115276,20.3497152 C32.7275922,20.3791177 32.9824619,20.6376632 33.0003647,20.9656784 L33.0003647,20.9656784 L33.3965879,24.9743124 L33.7686642,24.5551498 C36.3421729,21.5960394 38.2620844,18.1161996 39.3982275,14.3480619 L39.3982275,14.3480619 Z" id="path-1"></path>
    </defs>
    <g id="Desktop" stroke="none" stroke-width="1" fill="none" fill-rule="evenodd">
        <g id="Main_desktop_demi_v1_1" transform="translate(-111.000000, -1263.000000)">
            <g id="tobacco_icon" transform="translate(111.000000, 1263.000000)">
                <g id="Group-15" stroke-width="1" fill-rule="evenodd" fill="#B0B0B0">
                    <path d="M31.5,63 C48.8969696,63 63,48.8969696 63,31.5 C63,14.1030304 48.8969696,0 31.5,0 C14.1030304,0 0,14.1030304 0,31.5 C0,48.8969696 14.1030304,63 31.5,63 Z M31.5,61.5348837 C14.9121918,61.5348837 1.46511628,48.0878082 1.46511628,31.5 C1.46511628,14.9121918 14.9121918,1.46511628 31.5,1.46511628 C48.0878082,1.46511628 61.5348837,14.9121918 61.5348837,31.5 C61.5348837,48.0878082 48.0878082,61.5348837 31.5,61.5348837 Z" id="Oval" fill-rule="nonzero"></path>
                </g>
                <mask id="mask-2" fill="white">
                    <use xlink:href="#path-1"></use>
                </mask>
                <use id="Combined-Shape" fill="#B0B0B0" fill-rule="evenodd" xlink:href="#path-1"></use>
            </g>
        </g>
    </g>
</svg>