<?xml version="1.0" encoding="UTF-8"?>
<svg width="44px" height="44px" viewBox="0 0 44 44" version="1.1" xmlns="http://www.w3.org/2000/svg" xmlns:xlink="http://www.w3.org/1999/xlink">
    <title>new</title>
    <g id="Desktop" stroke="none" stroke-width="1" fill="none" fill-rule="evenodd">
        <g id="Product_desktop_demi" transform="translate(-760.000000, -405.000000)" stroke="#D0D2D3" stroke-width="0.84">
            <g id="new" transform="translate(761.000000, 406.000000)">
                <path d="M41.886558,20.943216 C41.886558,9.376416 32.510058,-8.4e-05 20.943258,-8.4e-05 C9.376458,-8.4e-05 -4.2e-05,9.376416 -4.2e-05,20.943216 C-4.2e-05,32.510016 9.376458,41.886516 20.943258,41.886516 C32.510058,41.886516 41.886558,32.510016 41.886558,20.943216 Z" id="Stroke-1"></path>
                <path d="M32.343276,16.304358 C32.343276,12.681858 27.239436,9.745218 20.943216,9.745218 C14.647416,9.745218 9.543156,12.681858 9.543156,16.304358 C9.543156,19.926858 14.647416,22.863498 20.943216,22.863498 C27.239436,22.863498 32.343276,19.926858 32.343276,16.304358 Z" id="Stroke-3"></path>
                <path d="M27.750744,16.063194 C27.750744,14.033334 24.703224,12.387354 20.943384,12.387354 C17.183544,12.387354 14.135604,14.033334 14.135604,16.063194 C14.135604,18.093054 17.183544,19.739034 20.943384,19.739034 C24.703224,19.739034 27.750744,18.093054 27.750744,16.063194 Z" id="Stroke-5"></path>
                <line x1="9.543282" y1="38.516604" x2="9.543282" y2="16.045344" id="Stroke-7"></line>
                <line x1="32.343276" y1="38.516604" x2="32.343276" y2="16.045344" id="Stroke-9"></line>
            </g>
        </g>
    </g>
</svg>