<?xml version="1.0" encoding="UTF-8"?>
<svg width="44px" height="44px" viewBox="0 0 44 44" version="1.1" xmlns="http://www.w3.org/2000/svg" xmlns:xlink="http://www.w3.org/1999/xlink">
    <title>power_tech</title>
    <g id="Desktop" stroke="none" stroke-width="1" fill="none" fill-rule="evenodd">
        <g id="Product_desktop_demi" transform="translate(-760.000000, -542.000000)" stroke="#D0D2D3" stroke-width="0.84">
            <g id="power_tech" transform="translate(761.000000, 543.000000)">
                <path d="M41.886642,20.943132 C41.886642,9.376752 32.509722,0.000252 20.943342,0.000252 C9.376542,0.000252 4.2e-05,9.376752 4.2e-05,20.943132 C4.2e-05,32.509932 9.376542,41.886432 20.943342,41.886432 C32.509722,41.886432 41.886642,32.509932 41.886642,20.943132 Z" id="Stroke-1"></path>
                <path d="M12.296718,21.004662 C12.296718,16.293102 16.116198,12.473622 20.827758,12.473622 C25.539738,12.473622 29.359218,16.293102 29.359218,21.004662 C29.359218,25.716642 25.539738,29.535702 20.827758,29.535702 C16.116198,29.535702 12.296718,25.716642 12.296718,21.004662 Z" id="Stroke-3"></path>
                <path d="M29.310414,29.487108 L32.465874,32.642988 L29.310414,29.487108 Z M26.826114,10.615668 L29.057154,6.751248 L26.826114,10.615668 Z M32.465874,9.366588 L29.310414,12.522048 L32.465874,9.366588 Z M35.081634,12.775308 L31.217214,15.006348 L35.081634,12.775308 Z M32.415474,17.899728 L36.725934,16.744728 L32.415474,17.899728 Z M32.824134,21.004788 L37.286634,21.004788 L32.824134,21.004788 Z M32.415474,24.109428 L36.725934,25.264428 L32.415474,24.109428 Z M31.217214,27.002808 L35.081634,29.233848 L31.217214,27.002808 Z M23.932734,9.416988 L25.087734,5.106948 L23.932734,9.416988 Z M20.828094,9.008328 L20.828094,4.545828 L20.828094,9.008328 Z M6.419574,21.004788 L8.831634,21.004788 L6.419574,21.004788 L6.419574,21.004788 Z M7.014714,24.705828 L9.240294,24.109428 L7.014714,24.705828 L7.014714,24.705828 Z M8.440194,28.156548 L10.438974,27.002808 L8.440194,28.156548 L8.440194,28.156548 Z M10.631754,31.201128 L12.345354,29.487108 L10.631754,31.201128 L10.631754,31.201128 Z M13.504974,33.687948 L14.829654,31.393488 L13.504974,33.687948 L13.504974,33.687948 Z M16.953594,35.463708 L17.723034,32.592168 L16.953594,35.463708 L16.953594,35.463708 Z M20.828094,36.373428 L20.828094,33.000828 L20.828094,36.373428 L20.828094,36.373428 Z M24.925194,36.295728 L23.932734,32.592168 L24.925194,36.295728 L24.925194,36.295728 Z M28.989954,35.141988 L26.826114,31.393488 L28.989954,35.141988 L28.989954,35.141988 Z" id="Stroke-5"></path>
            </g>
        </g>
    </g>
</svg>