<?xml version="1.0" encoding="UTF-8"?>
<svg width="63px" height="63px" viewBox="0 0 63 63" version="1.1" xmlns="http://www.w3.org/2000/svg" xmlns:xlink="http://www.w3.org/1999/xlink">
    <title>no_ash_grey</title>
    <g id="Desktop" stroke="none" stroke-width="1" fill="none" fill-rule="evenodd">
        <g id="Main_desktop_demi_v1_1" transform="translate(-111.000000, -1180.000000)">
            <g id="no_ash_grey" transform="translate(111.000000, 1180.000000)">
                <g id="Group" fill="#B0B0B0" fill-rule="nonzero">
                    <path d="M20.1,40.9 L20.1,40.9 C20.1,41 20.1,41 20.1,40.9 C20.1,41 20.1,41 20.1,40.9 Z" id="Path"></path>
                    <path d="M43.8,23.5 C43.8,23.5 43.8,23.6 43.9,23.6 C43.8,23.6 43.8,23.5 43.8,23.5 L43.8,23.5 Z" id="Path"></path>
                    <path d="M43.2,31.4 C43.2,32.1 42.6,32.7 41.9,32.7 C41.2,32.7 40.6,32.1 40.6,31.4 L40.6,29.4 L40.4,29.4 L38.7,30.7 L39.3,30.7 L39.3,31.3 C39.3,32.8 40.5,33.9 41.9,33.9 C43.3,33.9 44.5,32.7 44.5,31.3 L44.5,30.7 L48.4,30.7 L48.4,37.2 L29.9,37.2 L28.2,38.5 L48.4,38.5 L48.4,40.5 C48.4,40.8 48.1,41.1 47.8,41.1 L24.8,41.1 L23.1,42.4 L47.8,42.4 C48.8,42.4 49.8,41.6 49.8,40.4 L49.8,29.6 L43.3,29.6 L43.3,31.5 L43.2,31.5 L43.2,31.4 Z" id="Path"></path>
                    <path d="M15.8,21.5 L14.5,24.8 C14.4,25 14.4,25.1 14.5,25.3 C14.6,25.5 14.7,25.6 14.9,25.6 L20.6,27.7 L25.5,29.6 L18.4,29.6 L18.4,40.7 C18.4,41 18.5,41.2 18.6,41.5 L19.8,40.7 L19.8,38.8 L22.3,38.8 L24,37.5 L19.8,37.5 L19.8,31 L32.6,31 L34.3,29.7 L29.3,29.7 L21.7,26.9 L22.4,24.8 L34.7,29.4 L35.9,28.5 L16.8,21.3 C16.3,20.9 16,21.2 15.8,21.5 Z M21.1,24.2 L20.4,26.3 L16,24.6 L16.8,22.6 L21.1,24.2 Z" id="Shape"></path>
                    <path d="M53.8,9.2 C47.8,3.3 39.9,0 31.5,0 C23.1,0 15.2,3.3 9.2,9.2 C3.3,15.2 0,23 0,31.4 C0,39.8 3.3,47.8 9.2,53.8 C15.1,59.8 23.1,63 31.5,63 C39.9,63 47.8,59.6 53.8,53.8 C59.8,47.8 63,39.9 63,31.5 C63,23.1 59.7,15.2 53.8,9.2 Z M7.8,49.9 C3.7,44.7 1.5,38.2 1.5,31.4 C1.5,23.3 4.6,15.8 10.3,10.1 C16,4.4 23.5,1.3 31.6,1.3 C39.7,1.3 47.2,4.5 52.9,10.1 C54.2,11.4 55.1,12.9 56.2,14.4 L45.2,22.5 L8,51 C8,51 8,51.1 8.1,51.1 C8.3,51.5 8.5,51.8 8.6,52.3 L45.9,23.8 L57.1,15.6 C60.1,20.3 61.9,25.7 61.9,31.5 C61.6,39.6 58.4,47.1 52.8,52.8 C47.2,58.5 39.6,61.6 31.5,61.6 C23.4,61.6 15.9,58.5 10.2,52.8 C9.7,52.3 9.2,51.6 8.6,51 L7.8,49.9 Z" id="Shape"></path>
                    <path d="M33.3,6.8 L32.7,7.9 C32.7,7.9 35.1,9.3 35.1,11 C35.1,11.9 34.3,13.1 33.4,14.3 C32.5,15.7 31.4,17 31.4,18.3 C31.4,20.8 33.9,22.9 34.1,23 L35,22 C35,22 32.8,20.2 32.8,18.3 C32.8,17.4 33.6,16.2 34.5,15 C35.4,13.6 36.5,12.3 36.5,11 C36.3,8.5 33.4,6.8 33.3,6.8 Z" id="Path"></path>
                </g>
                <circle id="Oval" cx="31.5" cy="31.5" r="30"></circle>
                <path d="M31.5,0 C14.1,0 0,14.1 0,31.5 C0,48.9 14.1,63 31.5,63 C48.9,63 63,48.9 63,31.5 C63,14.1 48.9,0 31.5,0 Z M31.5,61.5 C14.9,61.5 1.5,48.1 1.5,31.5 C1.5,14.9 14.9,1.5 31.5,1.5 C48.1,1.5 61.5,14.9 61.5,31.5 C61.5,48.1 48.1,61.5 31.5,61.5 Z" id="Shape" fill="#B0B0B0" fill-rule="nonzero"></path>
            </g>
        </g>
    </g>
</svg>