<?xml version="1.0" encoding="UTF-8"?>
<svg width="60px" height="59px" viewBox="0 0 60 59" version="1.1" xmlns="http://www.w3.org/2000/svg" xmlns:xlink="http://www.w3.org/1999/xlink">
    <title>no_smoke</title>
    <g id="Desktop" stroke="none" stroke-width="1" fill="none" fill-rule="evenodd">
        <g id="Main_desktop_demi_v1_1" transform="translate(-113.000000, -1101.000000)" fill="#B0B0B0">
            <g id="no_smoke" transform="translate(113.000000, 1101.000000)">
                <g id="Group-5">
                    <g id="Group-19">
                        <path d="M30,1.30868762 C22.3421811,1.30868762 15.1427357,4.24112939 9.72787431,9.56574307 C4.31301294,14.8903567 1.33086876,21.9698115 1.33086876,29.5 C1.33086876,37.0301885 4.31301294,44.1096433 9.72787431,49.4342569 C15.1427357,54.7588706 22.3421811,57.6913124 30,57.6913124 C37.6578189,57.6913124 44.8572643,54.7588706 50.2721257,49.4342569 C55.6869871,44.1096433 58.6691312,37.0301885 58.6691312,29.5 C58.6691312,21.9698115 55.6869871,14.8903567 50.2721257,9.56574307 C44.8572643,4.24112939 37.6578189,1.30868762 30,1.30868762 M8.78683919,50.3596081 C3.12055453,44.7878706 0,37.3797172 0,29.5 C0,21.6202828 3.12055453,14.2121294 8.78683919,8.64039187 C14.4530129,3.06854529 21.9867283,0 30,0 C38.0132717,0 45.5469871,3.06854529 51.2131608,8.64039187 C56.8794455,14.2121294 60,21.6202828 60,29.5 C60,37.3797172 56.8794455,44.7878706 51.2131608,50.3596081 C45.5469871,55.9314547 38.0132717,59 30,59 C21.9867283,59 14.4530129,55.9314547 8.78683919,50.3596081 Z" id="Fill-17"></path>
                    </g>
                    <path d="M20.4654055,43.8936834 C20.1376276,44.0790784 19.6849392,44.0157817 19.4542976,43.7523062 C19.223656,43.4888308 19.3024006,43.1249493 19.6301785,42.9395543 C21.7040805,41.7665311 23.1538533,40.4554862 23.9929672,38.9983714 L26.1407026,37.367368 C25.5830869,39.8932344 23.6789279,42.0760775 20.4654055,43.8936834 Z M34.7033898,35.7591793 C34.7033898,38.976299 32.7322416,41.7008037 28.855236,43.8936834 C28.5274581,44.0790784 28.0747697,44.0157817 27.8441281,43.7523062 C27.6134865,43.4888308 27.6922311,43.1249493 28.020009,42.9395543 C31.5297627,40.9543965 33.2519946,38.5739415 33.2519946,35.7591793 C33.2519946,34.6814999 32.9795571,33.7709458 32.3204776,32.6753348 L33.4231559,31.8370442 C34.3249826,33.2302459 34.7033898,34.3615263 34.7033898,35.7591793 Z M37.8981752,28.5445392 C38.0300129,28.7138437 38.1711048,28.8910558 38.344005,29.1052188 C38.4467752,29.2325153 38.5736783,29.3887691 38.8071752,29.6762453 C40.883979,32.2379529 41.6949153,33.7131445 41.6949153,35.7591793 C41.6949153,38.976299 39.723767,41.7008037 35.8467615,43.8936834 C35.5189835,44.0790784 35.0662951,44.0157817 34.8356535,43.7523062 C34.605012,43.4888308 34.6837565,43.1249493 35.0115344,42.9395543 C38.5212882,40.9543965 40.24352,38.5739415 40.24352,35.7591793 C40.24352,34.0067219 39.5231052,32.696199 37.5911902,30.3132096 C37.358809,30.0271093 37.230552,29.8691884 37.1265088,29.7403151 C36.9928626,29.5747742 36.8773368,29.4302399 36.7699196,29.2938009 L37.8447616,28.4756845 C37.862418,28.4985335 37.8802223,28.5214845 37.8981752,28.5445392 Z M26.1085759,16.1770296 C26.3877356,16.4081952 26.3809074,16.7775 26.0933248,17.001895 C22.5277875,19.7840126 20.7734894,22.3682868 20.7734894,24.7444646 C20.7734894,25.9130876 21.3094927,26.9941054 22.5168192,28.5445392 C22.648657,28.7138437 22.7897489,28.8910558 22.962649,29.1052188 C23.0654193,29.2325153 23.1923223,29.3887691 23.4258192,29.6762453 C24.349083,30.8150779 25.0221689,31.7391785 25.4850472,32.5941625 L24.3496551,33.4579178 C23.9348393,32.5625513 23.2468862,31.5923983 22.2098342,30.3132096 C21.9774531,30.0271093 21.8491961,29.8691884 21.7451528,29.7403151 C21.5682878,29.5212411 21.4231575,29.3389567 21.2865584,29.1635378 C19.9472096,27.4435626 19.3220339,26.1828234 19.3220339,24.7444646 C19.3220339,22.0028742 21.2611762,19.1463937 25.0823982,16.1647704 C25.3699808,15.9403754 25.8294162,15.9458641 26.1085759,16.1770296 Z M34.4984064,16.1770296 C34.7775661,16.4081952 34.7707379,16.7775 34.4831553,17.001895 C30.917618,19.7840126 29.1633199,22.3682868 29.1633199,24.7444646 C29.1633199,25.9018435 29.6890583,26.9732948 30.8719865,28.4999157 L29.7969886,29.3173973 C29.7557136,29.2650669 29.715698,29.2140181 29.6763889,29.1635378 C28.3370401,27.4435626 27.7118644,26.1828234 27.7118644,24.7444646 C27.7118644,22.0028742 29.6510067,19.1463937 33.4722287,16.1647704 C33.7598113,15.9403754 34.2192467,15.9458641 34.4984064,16.1770296 Z M41.4899318,16.1770296 C41.7690915,16.4081952 41.7622633,16.7775 41.4746807,17.001895 C38.0393846,19.6823881 36.2854232,22.1792272 36.1618703,24.4832426 L34.7701894,25.5406266 C34.7254596,25.2786934 34.7033898,25.0147141 34.7033898,24.7444646 C34.7033898,22.0028742 36.6425321,19.1463937 40.4637541,16.1647704 C40.7513367,15.9403754 41.2107721,15.9458641 41.4899318,16.1770296 Z" id="Combined-Shape" fill-rule="nonzero"></path>
                    <path d="M42.2641495,23.1734239 L20.0714119,39.2146072 L18.915303,40.0503226 L18.915303,40.0503226 L7.91697472,48 L7.11864407,46.9710234 L17.9234663,39.1611925 L19.0584765,38.3407537 L19.0584765,38.3407537 L41.6790585,21.990149 L42.8152008,21.1689282 L42.8152008,21.1689282 L54.1169236,13 L54.9152542,14.0289766 L43.419315,22.3384584 L42.2641495,23.1734239 L42.2641495,23.1734239 Z" id="Combined-Shape"></path>
                </g>
            </g>
        </g>
    </g>
</svg>