<svg width="84" height="72" viewBox="0 0 84 72" fill="none" xmlns="http://www.w3.org/2000/svg">
<path d="M22.9418 28.8229C23.1373 28.8881 34.8008 1 34.8008 1L22.9418 28.8229Z" fill="white"/>
<path d="M22.9418 28.8229C23.1373 28.888 34.8008 1 34.8008 1" stroke="#4B4B4B" stroke-width="1.9134" stroke-linecap="round"/>
<path d="M29.6534 40.8121V61.5979" stroke="#4B4B4B" stroke-width="1.9134" stroke-linecap="round"/>
<path d="M41.5123 40.8121V61.5979" stroke="#4B4B4B" stroke-width="1.9134" stroke-linecap="round"/>
<path d="M14.9924 32.2112H5.87011C3.19859 32.2112 0.983185 29.9958 0.983185 27.3242C0.983185 25.9559 1.50446 24.783 2.41668 23.8708C3.32891 22.9586 4.50177 22.4373 5.87011 22.4373H20.1399" stroke="#4B4B4B" stroke-width="1.9134" stroke-linecap="round"/>
<path d="M60.2775 28.8229C60.0821 28.8881 48.4186 1 48.4186 1L60.2775 28.8229Z" fill="white"/>
<path d="M60.2775 28.8229C60.0821 28.888 48.4186 1 48.4186 1" stroke="#4B4B4B" stroke-width="1.9134" stroke-linecap="round"/>
<path d="M53.5663 40.8121V61.5979" stroke="#4B4B4B" stroke-width="1.9134" stroke-linecap="round"/>
<path d="M68.2269 32.2112H77.3492C80.0207 32.2112 82.2361 29.9958 82.2361 27.3242C82.2361 25.9559 81.7148 24.783 80.8026 23.8708C79.8904 22.9586 78.7175 22.4373 77.3492 22.4373H63.0794" stroke="#4B4B4B" stroke-width="1.9134" stroke-linecap="round"/>
<path d="M51.2859 22.4373H41.5121H41.6424H31.9337" stroke="#4B4B4B" stroke-width="1.9134" stroke-linecap="round"/>
<path d="M76.3725 32.2112L70.9643 66.6803C70.5733 69.0912 68.4882 70.7853 66.0773 70.7853H41.5775H41.7079H17.2081C14.7972 70.7853 12.7121 69.026 12.3212 66.6803L6.91296 32.2112" stroke="#4B4B4B" stroke-width="1.9134" stroke-linecap="round"/>
</svg>
