<svg width="67" height="67" viewBox="0 0 67 67" fill="none" xmlns="http://www.w3.org/2000/svg">
<path d="M32.4261 65.1164H6.88377C4.01677 65.1164 1.67105 62.7707 1.67105 59.9037V6.21272C1.67105 3.34572 4.01677 1 6.88377 1H43.5683L57.5775 15.0092V26.8681" stroke="#4B4B4B" stroke-width="1.9134" stroke-linecap="round"/>
<path d="M57.5776 15.0743H43.5684V1.06512" stroke="#4B4B4B" stroke-width="1.9134" stroke-linecap="round"/>
<path d="M23.1734 25.8255H12.2267C11.5751 25.8255 11.119 25.3042 11.119 24.7178V21.134V11.295C11.119 10.6434 11.6402 10.1873 12.2267 10.1873H23.1734C23.825 10.1873 24.2811 10.7086 24.2811 11.295V24.7178C24.2811 25.3694 23.825 25.8255 23.1734 25.8255Z" stroke="#4B4B4B" stroke-width="1.9134" stroke-linecap="round"/>
<path d="M11.119 33.9705H24.2811" stroke="#4B4B4B" stroke-width="1.9134" stroke-linecap="round"/>
<path d="M11.119 42.1153H24.2811" stroke="#4B4B4B" stroke-width="1.9134" stroke-linecap="round"/>
<path d="M11.119 50.195H24.2811" stroke="#4B4B4B" stroke-width="1.9134" stroke-linecap="round"/>
<path d="M49.042 64.8558C58.2185 64.8558 65.6575 57.4168 65.6575 48.2403C65.6575 39.0638 58.2185 31.6248 49.042 31.6248C39.8655 31.6248 32.4264 39.0638 32.4264 48.2403C32.4264 57.4168 39.8655 64.8558 49.042 64.8558Z" stroke="#4B4B4B" stroke-width="1.9134" stroke-linecap="round"/>
<path d="M39.9845 43.8747L48.6506 52.5408L58.1638 43.0276" stroke="#4B4B4B" stroke-width="1.9134" stroke-linecap="round"/>
</svg>
