<svg width="67" height="67" viewBox="0 0 67 67" fill="none" xmlns="http://www.w3.org/2000/svg">
<path d="M11.1682 33.9705H24.3954" stroke="#4B4B4B" stroke-width="1.9134" stroke-linecap="round"/>
<path d="M11.1682 42.1154H24.3954" stroke="#4B4B4B" stroke-width="1.9134" stroke-linecap="round"/>
<path d="M11.1682 50.1951H24.3954" stroke="#4B4B4B" stroke-width="1.9134" stroke-linecap="round"/>
<path d="M32.5403 65.1164H6.99798C4.13099 65.1164 1.78526 62.7707 1.78526 59.9037V6.21272C1.78526 3.34572 4.13099 1 6.99798 1H43.6825L57.6917 15.0092V20.1567" stroke="#4B4B4B" stroke-width="1.9134" stroke-linecap="round"/>
<path d="M57.6917 15.0744H43.6825V1.06519" stroke="#4B4B4B" stroke-width="1.9134" stroke-linecap="round"/>
<path d="M23.2877 25.8256H12.341C11.7546 25.8256 11.2333 25.3043 11.2333 24.7179V21.1342V11.2951C11.2333 10.6436 11.7546 10.1874 12.341 10.1874H23.2877C23.8742 10.1874 24.3954 10.7087 24.3954 11.2951V24.7179C24.3954 25.3695 23.9393 25.8256 23.2877 25.8256Z" stroke="#4B4B4B" stroke-width="1.9134" stroke-linecap="round"/>
<path d="M26.9366 65.1164H52.479C55.346 65.1164 57.6917 62.7707 57.6917 59.9037V41.3986" stroke="#4B4B4B" stroke-width="1.9134" stroke-linecap="round"/>
<path d="M64.9243 28.1713L39.6426 53.453C39.5775 53.5182 39.4472 53.5833 39.3168 53.6485L34.2996 54.7562C33.7783 54.8865 33.3874 54.4304 33.4525 53.9091L34.5602 48.8919C34.5602 48.7616 34.6254 48.6313 34.7557 48.5661L60.0374 23.2844C60.298 23.0238 60.7541 23.0238 61.0148 23.2844L64.9243 27.1939C65.185 27.4546 65.185 27.9107 64.9243 28.1713Z" stroke="#4B4B4B" stroke-width="1.9134" stroke-linecap="round"/>
<path d="M57.0401 26.2817L61.927 31.1686" stroke="#4B4B4B" stroke-width="1.9134" stroke-linecap="round"/>
</svg>
