<svg width="79" height="81" viewBox="0 0 79 81" fill="none" xmlns="http://www.w3.org/2000/svg">
<path d="M40.6252 9.14489L44.9908 17.9414C45.2515 18.4626 45.7076 18.7884 46.2288 18.8536L55.9375 20.2871C57.3059 20.4826 57.8271 22.1767 56.8498 23.1541L49.8126 29.9958C49.4216 30.3867 49.2262 30.908 49.3565 31.4944L51.0506 41.2031C51.3112 42.5715 49.8777 43.614 48.6397 42.9624L39.9084 38.4013C39.3871 38.1406 38.8659 38.1406 38.3446 38.4013L29.6133 42.9624C28.3753 43.614 26.9418 42.5715 27.2024 41.2031L28.8965 31.4944C28.9617 30.9732 28.8314 30.3867 28.4404 29.9958L21.4033 23.1541C20.4259 22.1767 20.9472 20.4826 22.3155 20.2871L32.0242 18.8536C32.5454 18.7884 33.0667 18.4626 33.2622 17.9414L37.6278 9.14489C38.2143 7.90686 39.9736 7.90686 40.6252 9.14489Z" stroke="#4B4B4B" stroke-width="1.9134" stroke-linecap="round"/>
<path d="M61.6715 25.6301H63.7566" stroke="#4B4B4B" stroke-width="1.9134" stroke-linecap="round"/>
<path d="M14.4312 25.6301H16.5815" stroke="#4B4B4B" stroke-width="1.9134" stroke-linecap="round"/>
<path d="M39.1265 3.08509V1" stroke="#4B4B4B" stroke-width="1.9134" stroke-linecap="round"/>
<path d="M39.1265 50.3254V48.2403" stroke="#4B4B4B" stroke-width="1.9134" stroke-linecap="round"/>
<path d="M54.3085 10.448L57.3059 7.45068" stroke="#4B4B4B" stroke-width="1.9134" stroke-linecap="round"/>
<path d="M20.9471 43.8095L23.8793 40.8773" stroke="#4B4B4B" stroke-width="1.9134" stroke-linecap="round"/>
<path d="M23.8793 10.448L20.9471 7.45068" stroke="#4B4B4B" stroke-width="1.9134" stroke-linecap="round"/>
<path d="M57.3059 43.8095L54.3085 40.8773" stroke="#4B4B4B" stroke-width="1.9134" stroke-linecap="round"/>
<path d="M8.82782 73.9129H2.76803C1.92096 73.9129 1.26937 73.2613 1.26937 72.4142V52.7362C1.26937 51.8891 1.98612 51.2375 2.76803 51.2375H8.82782C9.67488 51.2375 10.3265 51.8891 10.3265 52.7362V72.4142C10.3265 73.2613 9.67488 73.9129 8.82782 73.9129Z" stroke="#4B4B4B" stroke-width="1.9134" stroke-linecap="round"/>
<path d="M10.3263 70.5898C10.3263 70.5898 16.5816 70.655 20.8169 72.6749C25.0522 74.6948 35.1519 79.2559 39.0614 79.2559C43.0361 79.2559 43.4271 78.7998 47.2715 77.1709C51.1158 75.5419 71.6409 64.4649 74.0518 63.0314C79.851 58.8612 79.9161 53.5181 69.8165 56.5155C59.2607 61.2069 54.7647 64.1391 54.7647 64.1391" stroke="#4B4B4B" stroke-width="1.9134" stroke-linecap="round"/>
<path d="M50.9206 60.3599C50.9206 60.3599 62.584 52.606 65.451 53.0621C68.318 53.453 68.8393 54.3001 68.8393 54.3001" stroke="#4B4B4B" stroke-width="1.9134" stroke-linecap="round"/>
<path d="M47.4017 57.4277C47.4017 57.4277 56.0679 51.9543 57.6317 51.9543C59.1955 51.9543 60.5639 52.215 60.5639 52.215" stroke="#4B4B4B" stroke-width="1.9134" stroke-linecap="round"/>
<path d="M43.4926 55.2123C43.4926 55.2123 48.2492 51.3679 50.0737 51.4982C51.8981 51.6286 52.2891 51.8892 52.2891 51.8892" stroke="#4B4B4B" stroke-width="1.9134" stroke-linecap="round"/>
<path d="M10.3263 54.5607C10.3263 54.5607 19.9047 50.7815 24.4658 50.7815C29.0269 50.7815 33.1971 54.3001 33.1971 54.3001C33.1971 54.3001 35.6732 56.2548 39.5175 58.0141C43.3619 59.7734 46.2941 61.2069 50.6597 64.921C55.0254 68.6351 52.0932 72.1536 45.6425 70.0686C39.1917 67.9835 28.4405 64.53 26.6812 64.7255" stroke="#4B4B4B" stroke-width="1.9134" stroke-linecap="round"/>
</svg>
