<svg width="23" height="40" viewBox="0 0 23 40" fill="none" xmlns="http://www.w3.org/2000/svg">
<path d="M1.37949 3.33576C1.37949 2.49581 2.13835 1.85976 2.96538 2.00653L20.4664 5.11234C21.1109 5.22672 21.5805 5.78699 21.5805 6.44157V37.6513C21.5805 38.3969 20.9761 39.0013 20.2305 39.0013H2.72949C1.98391 39.0013 1.37949 38.3969 1.37949 37.6513V3.33576Z" stroke="#2F2F2F" stroke-width="1.3"/>
<circle cx="11.4795" cy="9.80469" r="2.25876" stroke="#2F2F2F" stroke-width="0.5"/>
<path d="M21.6932 15.4627C17.5449 16.4656 10.1072 18.9861 8.32519 19.5331C6.21858 20.1798 6.10498 21.9035 6.10498 23.4762C6.10498 24.5247 6.10498 31.8259 6.10498 35.3511" stroke="#2F2F2F" stroke-width="0.245" stroke-linecap="round"/>
<path fill-rule="evenodd" clip-rule="evenodd" d="M11.3674 31.195V34.3438C11.3674 34.4223 11.4319 34.4868 11.5126 34.4868C11.591 34.4868 11.6534 34.4223 11.6534 34.3438V31.195C11.6534 31.1154 11.591 31.0509 11.5126 31.0509C11.4319 31.0509 11.3674 31.1154 11.3674 31.195ZM11.9888 33.5074C11.9888 34.0847 12.4511 34.5524 13.0209 34.5524C13.5906 34.5524 14.0529 34.0847 14.0529 33.5074C14.0529 32.9312 13.5906 32.4625 13.0209 32.4625C12.4511 32.4625 11.9888 32.9312 11.9888 33.5074ZM9.94084 34.5534C9.36999 34.5534 8.90771 34.0847 8.90771 33.5085C8.90771 32.9323 9.36999 32.4625 9.94084 32.4625C10.5117 32.4625 10.9729 32.9323 10.9729 33.5085V34.347C10.9729 34.9233 10.5117 35.3909 9.94084 35.3909C9.86666 35.3909 9.8086 35.3318 9.8086 35.2576C9.8086 35.1834 9.86666 35.1232 9.94084 35.1232C10.3623 35.1232 10.7063 34.7749 10.7063 34.347V34.2051C10.5192 34.418 10.2451 34.5534 9.94084 34.5534ZM10.7214 33.4979C10.7214 33.9276 10.373 34.276 9.94324 34.276C9.51346 34.276 9.16506 33.9276 9.16506 33.4979C9.16506 33.0681 9.51346 32.7197 9.94324 32.7197C10.373 32.7197 10.7214 33.0681 10.7214 33.4979ZM13.0214 34.276C13.4512 34.276 13.7996 33.9276 13.7996 33.4979C13.7996 33.0681 13.4512 32.7197 13.0214 32.7197C12.5916 32.7197 12.2432 33.0681 12.2432 33.4979C12.2432 33.9276 12.5916 34.276 13.0214 34.276Z" fill="#2F2F2F"/>
</svg>
