<svg width="18" height="32" viewBox="0 0 18 32" fill="none" xmlns="http://www.w3.org/2000/svg">
<mask id="mask0" mask-type="alpha" maskUnits="userSpaceOnUse" x="0" y="0" width="18" height="32">
<path d="M4.1429 1.35771C4.10347 1.38707 4.01708 1.46591 4.00701 1.47514C3.92565 1.53134 3.85436 1.6127 3.77048 1.72761C3.747 1.7578 3.73441 1.7771 3.70086 1.82658C3.69248 1.84 3.68325 1.85342 3.67486 1.86601C3.20934 1.84755 2.873 1.83581 2.71699 1.83581C1.26843 1.83581 0.606638 2.32398 0.606638 3.74905V15.9574V23.2622V27.8C0.606638 28.1682 0.604122 28.4886 0.59825 28.9323C0.578959 30.4262 0.585669 30.6283 0.725744 30.968C0.93963 31.4864 1.2743 31.587 2.04849 31.5878C2.61466 31.6055 4.70823 31.6071 8.33004 31.5996C8.86853 31.5988 9.42547 31.5979 10.1233 31.5962C13.5145 31.5878 13.4172 31.5878 14.0681 31.5878C16.7521 31.5878 17.0163 31.3949 17.0281 29.2728V29.2242C17.0734 21.5142 17.1606 15.9238 17.1329 9.70432C17.1296 8.884 17.1187 7.59481 17.117 7.45977C17.1136 6.59583 17.1128 6.14793 17.1153 5.91307C17.1237 5.11457 16.7714 4.55427 16.196 4.25399C15.8689 4.08288 15.5519 4.02752 15.3145 4.02752C15.2432 4.02081 15.1702 4.01326 15.0947 4.00655C14.8582 3.51084 14.5411 2.67123 13.7519 2.50767C13.0615 2.36591 6.36564 0.99704 5.55706 0.99704C5.0949 0.99704 4.35511 1.19583 4.1429 1.35771ZM4.81978 1.96163C4.89863 1.90291 5.00599 1.67141 5.32556 1.67141C6.10478 1.67141 12.8728 3.05958 13.5304 3.19378C14.0731 3.3045 14.2165 3.90757 14.2165 3.90757C14.2165 3.90757 7.0895 2.44476 4.81978 1.96163ZM1.63665 3.74905C1.63665 2.97318 2.1181 2.7291 3.05333 2.7291C4.13954 2.7291 15.6164 5.11289 15.7188 5.16657C15.9587 5.29155 16.0895 5.5004 16.0853 5.90217C16.0828 6.14458 16.0836 6.59332 16.0887 7.4648C16.0887 7.60068 16.0216 10.445 16.0241 11.1529L1.63665 14.8795V3.74905ZM1.63665 27.8V23.2622V15.9574V15.1396L16.0249 11.4129C16.0434 16.8674 16.0375 22.4922 15.9981 29.2192L15.9972 29.267C15.9897 30.7432 16.2422 30.5578 14.0681 30.5578C13.4163 30.5578 13.5145 30.5578 10.1208 30.5654C9.42296 30.5671 8.86685 30.5687 8.32836 30.5696C4.71578 30.5771 2.60878 30.5738 2.07197 30.5578H2.05603C1.69033 30.5578 1.67104 30.5562 1.67691 30.5738C1.62163 30.4345 1.61316 30.1611 1.62826 28.9449C1.63413 28.4987 1.63665 28.1724 1.63665 27.8ZM7.0895 8.57198C7.0895 9.64477 7.94924 10.5154 9.01196 10.5154C10.0738 10.5154 10.9353 9.64477 10.9353 8.57198C10.9353 7.49835 10.0738 6.62771 9.01196 6.62771C7.94924 6.62771 7.0895 7.49835 7.0895 8.57198ZM7.50888 8.57198C7.50888 7.72901 8.18158 7.04709 9.01196 7.04709C9.84151 7.04709 10.5167 7.72901 10.5167 8.57198C10.5167 9.4141 9.84151 10.0969 9.01196 10.0969C8.18158 10.0969 7.50888 9.4141 7.50888 8.57198ZM8.87021 24.2016V26.6584C8.87021 26.7196 8.92053 26.7699 8.98344 26.7699C9.04467 26.7699 9.09332 26.7196 9.09332 26.6584V24.2016C9.09332 24.1396 9.04467 24.0892 8.98344 24.0892C8.92053 24.0892 8.87021 24.1396 8.87021 24.2016ZM9.35502 26.0058C9.35502 26.4562 9.71569 26.8211 10.1602 26.8211C10.6048 26.8211 10.9655 26.4562 10.9655 26.0058C10.9655 25.5562 10.6048 25.1905 10.1602 25.1905C9.71569 25.1905 9.35502 25.5562 9.35502 26.0058ZM9.56136 26.0058C9.56136 25.6728 9.82976 25.4011 10.1602 25.4011C10.4899 25.4011 10.7583 25.6728 10.7583 26.0058C10.7583 26.3405 10.4899 26.6114 10.1602 26.6114C9.82976 26.6114 9.56136 26.3405 9.56136 26.0058ZM6.9511 26.0067C6.9511 26.4562 7.31177 26.822 7.75716 26.822C7.99453 26.822 8.20842 26.7163 8.35436 26.5502V26.6609C8.35436 26.9947 8.08596 27.2665 7.75716 27.2665C7.69928 27.2665 7.65399 27.3135 7.65399 27.3713C7.65399 27.4292 7.69928 27.4754 7.75716 27.4754C8.20255 27.4754 8.56238 27.1105 8.56238 26.6609V26.0067C8.56238 25.5571 8.20255 25.1905 7.75716 25.1905C7.31177 25.1905 6.9511 25.5571 6.9511 26.0067ZM7.15828 26.0067C7.15828 25.6728 7.42752 25.4011 7.75716 25.4011C8.08596 25.4011 8.35436 25.6728 8.35436 26.0067C8.35436 26.3405 8.08596 26.6123 7.75716 26.6123C7.42752 26.6123 7.15828 26.3405 7.15828 26.0067Z" fill="#2F2F2F"/>
</mask>
<g mask="url(#mask0)">
<path fill-rule="evenodd" clip-rule="evenodd" d="M-3.60303 -3.07553L21.3462 -2.40116V36.4717L-3.60303 35.7981V-3.07553Z" fill="#2F2F2F"/>
</g>
</svg>
