<svg width="20px" height="39px" viewBox="0 0 20 39" version="1.1" xmlns="http://www.w3.org/2000/svg" xmlns:xlink="http://www.w3.org/1999/xlink">
    <title>pro</title>
    <defs>
        <path d="M4.235,1.2854 C4.188,1.3204 4.085,1.4144 4.073,1.4254 L4.073,1.4254 C3.976,1.4924 3.891,1.5894 3.791,1.7264 L3.791,1.7264 C3.763,1.7624 3.748,1.7854 3.708,1.8444 L3.708,1.8444 C3.698,1.8604 3.687,1.8764 3.677,1.8914 L3.677,1.8914 C3.122,1.8694 2.721,1.8554 2.535,1.8554 L2.535,1.8554 C0.808,1.8554 0.019,2.4374 0.019,4.1364 L0.019,4.1364 L0.019,18.6914 L0.019,27.4004 L0.019,32.8104 C0.019,33.2494 0.016,33.6314 0.009,34.1604 L0.009,34.1604 C-0.014,35.9414 -0.006,36.1824 0.161,36.5874 L0.161,36.5874 C0.416,37.2054 0.815,37.3254 1.738,37.3264 L1.738,37.3264 C2.413,37.3474 4.909,37.3494 9.227,37.3404 L9.227,37.3404 C9.869,37.3394 10.533,37.3384 11.365,37.3364 L11.365,37.3364 C15.408,37.3264 15.292,37.3264 16.068,37.3264 L16.068,37.3264 C19.268,37.3264 19.583,37.0964 19.597,34.5664 L19.597,34.5664 L19.597,34.5084 C19.651,25.3164 19.755,18.6514 19.722,11.2364 L19.722,11.2364 C19.718,10.2584 19.705,8.7214 19.703,8.5604 L19.703,8.5604 C19.699,7.5304 19.698,6.9964 19.701,6.7164 L19.701,6.7164 C19.711,5.7644 19.291,5.0964 18.605,4.7384 L18.605,4.7384 C18.215,4.5344 17.837,4.4684 17.554,4.4684 L17.554,4.4684 C17.469,4.4604 17.382,4.4514 17.292,4.4434 L17.292,4.4434 C17.01,3.8524 16.632,2.8514 15.691,2.6564 L15.691,2.6564 C14.868,2.4874 6.885,0.8554 5.921,0.8554 L5.921,0.8554 C5.37,0.8554 4.488,1.0924 4.235,1.2854 L4.235,1.2854 Z M5.042,2.0054 C5.136,1.9354 5.264,1.6594 5.645,1.6594 L5.645,1.6594 C6.574,1.6594 14.643,3.3144 15.427,3.4744 L15.427,3.4744 C16.074,3.6064 16.245,4.3254 16.245,4.3254 L16.245,4.3254 C16.245,4.3254 7.748,2.5814 5.042,2.0054 L5.042,2.0054 Z M1.247,4.1364 C1.247,3.2114 1.821,2.9204 2.936,2.9204 L2.936,2.9204 C4.231,2.9204 17.914,5.7624 18.036,5.8264 L18.036,5.8264 C18.322,5.9754 18.478,6.2244 18.473,6.7034 L18.473,6.7034 C18.47,6.9924 18.471,7.5274 18.477,8.5664 L18.477,8.5664 C18.477,8.7284 18.397,12.1194 18.4,12.9634 L18.4,12.9634 L1.247,17.4064 L1.247,4.1364 Z M1.247,32.8104 L1.247,27.4004 L1.247,18.6914 L1.247,17.7164 L18.401,13.2734 C18.423,19.7764 18.416,26.4824 18.369,34.5024 L18.368,34.5594 C18.359,36.3194 18.66,36.0984 16.068,36.0984 C15.291,36.0984 15.408,36.0984 11.362,36.1074 C10.53,36.1094 9.867,36.1114 9.225,36.1124 C4.918,36.1214 2.406,36.1174 1.766,36.0984 L1.747,36.0984 C1.311,36.0984 1.288,36.0964 1.295,36.1174 C1.2290964,35.9514 1.219,35.6254 1.237,34.1754 C1.244,33.6434 1.247,33.2544 1.247,32.8104 Z M7.748,9.8864 C7.748,11.1654 8.773,12.2034 10.04,12.2034 L10.04,12.2034 C11.306,12.2034 12.333,11.1654 12.333,9.8864 L12.333,9.8864 C12.333,8.6064 11.306,7.5684 10.04,7.5684 L10.04,7.5684 C8.773,7.5684 7.748,8.6064 7.748,9.8864 L7.748,9.8864 Z M8.248,9.8864 C8.248,8.8814 9.05,8.0684 10.04,8.0684 L10.04,8.0684 C11.029,8.0684 11.834,8.8814 11.834,9.8864 L11.834,9.8864 C11.834,10.8904 11.029,11.7044 10.04,11.7044 L10.04,11.7044 C9.05,11.7044 8.248,10.8904 8.248,9.8864 L8.248,9.8864 Z M9.871,28.5204 L9.871,31.4494 C9.871,31.5224 9.931,31.5824 10.006,31.5824 L10.006,31.5824 C10.079,31.5824 10.137,31.5224 10.137,31.4494 L10.137,31.4494 L10.137,28.5204 C10.137,28.4464 10.079,28.3864 10.006,28.3864 L10.006,28.3864 C9.931,28.3864 9.871,28.4464 9.871,28.5204 L9.871,28.5204 Z M10.449,30.6714 C10.449,31.2084 10.879,31.6434 11.409,31.6434 L11.409,31.6434 C11.939,31.6434 12.369,31.2084 12.369,30.6714 L12.369,30.6714 C12.369,30.1354 11.939,29.6994 11.409,29.6994 L11.409,29.6994 C10.879,29.6994 10.449,30.1354 10.449,30.6714 L10.449,30.6714 Z M10.695,30.6714 C10.695,30.2744 11.015,29.9504 11.409,29.9504 L11.409,29.9504 C11.802,29.9504 12.122,30.2744 12.122,30.6714 L12.122,30.6714 C12.122,31.0704 11.802,31.3934 11.409,31.3934 L11.409,31.3934 C11.015,31.3934 10.695,31.0704 10.695,30.6714 L10.695,30.6714 Z M7.583,30.6724 C7.583,31.2084 8.013,31.6444 8.544,31.6444 L8.544,31.6444 C8.827,31.6444 9.082,31.5184 9.256,31.3204 L9.256,31.3204 L9.256,31.4524 C9.256,31.8504 8.936,32.1744 8.544,32.1744 L8.544,32.1744 C8.475,32.1744 8.421,32.2304 8.421,32.2994 L8.421,32.2994 C8.421,32.3684 8.475,32.4234 8.544,32.4234 L8.544,32.4234 C9.075,32.4234 9.504,31.9884 9.504,31.4524 L9.504,31.4524 L9.504,30.6724 C9.504,30.1364 9.075,29.6994 8.544,29.6994 L8.544,29.6994 C8.013,29.6994 7.583,30.1364 7.583,30.6724 L7.583,30.6724 Z M7.83,30.6724 C7.83,30.2744 8.151,29.9504 8.544,29.9504 L8.544,29.9504 C8.936,29.9504 9.256,30.2744 9.256,30.6724 L9.256,30.6724 C9.256,31.0704 8.936,31.3944 8.544,31.3944 L8.544,31.3944 C8.151,31.3944 7.83,31.0704 7.83,30.6724 L7.83,30.6724 Z" id="path-1"></path>
    </defs>
    <g id="mobile" stroke="none" stroke-width="1" fill="none" fill-rule="evenodd">
        <g id="Main_mob_demi_menu1" transform="translate(-158.000000, -216.000000)">
            <g id="Group-2" transform="translate(-1.000000, 98.000000)">
                <g id="Group-12">
                    <g id="pro" transform="translate(159.000000, 118.500000)">
                        <mask id="mask-2" fill="white">
                            <use xlink:href="#path-1"></use>
                        </mask>
                        <g id="Clip-2"></g>
                        <polygon id="Fill-1" fill="#FFFFFF" mask="url(#mask-2)" points="-5 -4 24.745 -3.196 24.745 43.149 -5 42.346"></polygon>
                    </g>
                </g>
            </g>
        </g>
    </g>
</svg>