<svg width="21" height="39" viewBox="0 0 21 39" fill="none" xmlns="http://www.w3.org/2000/svg">
<path fill-rule="evenodd" clip-rule="evenodd" d="M2.83662 38.2615C1.38348 38.2615 0.873923 37.3827 0.873923 33.4186C0.873923 29.4546 0.82959 6.33308 0.82959 4.80885C0.82959 3.28463 1.52539 2.11719 2.83662 2.11719C4.12645 2.11719 16.7429 2.11719 17.9626 2.11719C19.1823 2.11719 20.199 3.27956 20.199 4.58894C20.199 5.89832 20.199 35.2574 20.199 35.2574L19.7557 35.6606L19.8 36.4671L20.199 36.7373L19.8444 37.8583C19.8444 37.8583 4.27908 38.3062 2.83662 38.2615Z" stroke="white"/>
<path d="M4.22217 2.04464C4.22217 2.04464 4.53999 1.48534 4.70676 1.37345C4.87353 1.26156 4.94156 1 5.84546 1C6.74936 1 15.3444 1.46733 16.2711 1.59018C17.1978 1.71303 17.78 2.06801 17.9626 2.60634" stroke="white" stroke-width="0.62"/>
<path fill-rule="evenodd" clip-rule="evenodd" d="M10.6018 32.0857V29.6132C10.6018 29.5507 10.5528 29.5 10.4903 29.5C10.4278 29.5 10.3772 29.5507 10.3772 29.6132V32.0857C10.3772 32.1482 10.4278 32.1988 10.4903 32.1988C10.5528 32.1988 10.6018 32.1482 10.6018 32.0857" fill="white"/>
<path fill-rule="evenodd" clip-rule="evenodd" d="M10.0674 31.4301C10.0674 30.9774 9.70425 30.6093 9.25669 30.6093C8.80745 30.6093 8.44434 30.9774 8.44434 31.4301C8.44434 31.8827 8.80745 32.2509 9.25669 32.2509C9.49482 32.2509 9.711 32.1445 9.85794 31.9773V32.0887C9.85794 32.4248 9.58771 32.6984 9.25669 32.6984C9.19758 32.6984 9.15198 32.7457 9.15198 32.8031C9.15198 32.8622 9.19758 32.9078 9.25669 32.9078C9.70425 32.9078 10.0674 32.5413 10.0674 32.0887V31.4301ZM9.25669 32.0397C8.92398 32.0397 8.65376 31.7661 8.65376 31.4301C8.65376 31.094 8.92398 30.8204 9.25669 30.8204C9.58771 30.8204 9.85794 31.094 9.85794 31.4301C9.85794 31.7661 9.58771 32.0397 9.25669 32.0397V32.0397Z" fill="white"/>
<path fill-rule="evenodd" clip-rule="evenodd" d="M11.6754 32.2505C11.2279 32.2505 10.8647 31.8823 10.8647 31.4297C10.8647 30.9771 11.2279 30.6089 11.6754 30.6089C12.123 30.6089 12.4861 30.9771 12.4861 31.4297C12.4861 31.8823 12.123 32.2505 11.6754 32.2505M11.6754 30.82C11.3427 30.82 11.0725 31.0936 11.0725 31.4297C11.0725 31.7658 11.3427 32.0394 11.6754 32.0394C12.0081 32.0394 12.2783 31.7658 12.2783 31.4297C12.2783 31.0936 12.0081 30.82 11.6754 30.82" fill="white"/>
<rect x="7.30933" y="5.41666" width="6.5" height="29.5" rx="3.07143" stroke="white" stroke-width="0.5"/>
<path fill-rule="evenodd" clip-rule="evenodd" d="M10.5 11C11.8807 11 13 9.88071 13 8.5C13 7.11929 11.8807 6 10.5 6C9.11929 6 8 7.11929 8 8.5C8 9.88071 9.11929 11 10.5 11Z" stroke="white" stroke-width="0.3"/>
</svg>
