<?xml version="1.0" encoding="UTF-8"?>
<svg width="16px" height="43px" viewBox="0 0 16 43" version="1.1" xmlns="http://www.w3.org/2000/svg" xmlns:xlink="http://www.w3.org/1999/xlink">
    <title>nano</title>
    <g id="mobile" stroke="none" stroke-width="1" fill="none" fill-rule="evenodd">
        <g id="Main_mob_demi_menu1" transform="translate(-274.000000, -212.000000)" fill="#FFFFFF" fill-rule="nonzero">
            <g id="Group-2" transform="translate(-1.000000, 98.000000)">
                <g id="Group-12">
                    <path d="M278.794761,114.5 C279.550309,114.5 285.816384,115.096003 286.473429,115.245017 C287.032491,115.371808 287.463786,115.669722 287.736346,116.104943 C287.839955,116.11723 287.940628,116.129184 288.038653,116.14114 C288.183548,116.158813 288.309127,116.176616 288.415389,116.194548 C288.683739,116.194548 289.028949,116.282144 289.370054,116.541806 C289.902744,116.947311 290.201975,117.641067 290.194779,118.617744 C290.192639,118.908247 290.193109,119.439066 290.196091,120.430102 L290.196824,120.667072 L290.197397,120.837911 C290.19963,121.496764 290.207495,123.789635 290.210414,124.744196 C290.23556,132.967493 290.235833,143.250765 290.194791,153.446073 L290.194535,153.509918 C290.183637,156.217087 289.914597,156.505154 287.363866,156.505154 L286.686756,156.505863 L286.381346,156.506732 C285.930051,156.508116 285.185978,156.510711 283.788797,156.515573 C283.156856,156.517772 282.652029,156.519428 282.16407,156.520862 C278.883233,156.530501 276.991924,156.527608 276.462073,156.505135 C275.701672,156.503027 275.298335,156.325839 275.110274,155.660013 C274.996279,155.256415 274.990183,154.977278 275.006973,153.063255 C275.011086,152.594369 275.013456,152.228006 275.01424,151.850566 L275.014532,117.760118 C275.014532,115.97541 275.644162,115.298 277.074245,115.298 C277.163905,115.298 277.316997,115.303558 277.522303,115.31378 C277.55188,115.256152 277.57996,115.207638 277.609169,115.165814 L277.654158,115.107793 L277.660166,115.09733 C277.682022,115.062556 277.745524,114.964266 277.776111,114.92446 C277.989523,114.646727 278.310373,114.5 278.794761,114.5 Z M288.991469,128.315374 L276.243,131.418 L276.242532,151.563634 C276.242532,152.055472 276.240096,152.484636 276.234926,153.074027 C276.22087,154.676348 276.227122,155.064504 276.28364,155.294411 C276.302267,155.284957 276.35354,155.277154 276.47592,155.277154 L276.503609,155.277778 C276.982509,155.299397 278.89633,155.302458 282.160462,155.292867 C282.648164,155.291435 283.152786,155.289779 283.784523,155.287581 C285.55639,155.281414 286.278618,155.278892 286.685275,155.277862 L287.363866,155.277154 C289.16152,155.277154 288.972074,155.538324 288.966465,153.684993 L288.966801,153.44113 C289.002087,144.675692 289.006824,135.84497 288.991469,128.315374 Z M281.13173,148.881205 C281.623873,148.881205 282.029791,149.257144 282.085268,149.740001 L282.09173,149.853205 L282.09173,150.633205 C282.09173,151.169205 281.66173,151.603205 281.13173,151.603205 C281.06173,151.603205 281.00773,151.549205 281.00773,151.479205 C281.00773,151.411205 281.06173,151.355205 281.13173,151.355205 C281.491063,151.355205 281.789896,151.082955 281.837207,150.731018 L281.84373,150.633205 L281.84373,150.501205 C281.66973,150.699205 281.41373,150.825205 281.13173,150.825205 C280.59973,150.825205 280.16973,150.389205 280.16973,149.853205 C280.16973,149.317205 280.59973,148.881205 281.13173,148.881205 Z M283.99593,148.880805 C284.52593,148.880805 284.95593,149.316805 284.95593,149.852805 C284.95593,150.388805 284.52593,150.824805 283.99593,150.824805 C283.46593,150.824805 283.03593,150.388805 283.03593,149.852805 C283.03593,149.316805 283.46593,148.880805 283.99593,148.880805 Z M282.59253,147.567605 C282.65173,147.567605 282.70069,147.606005 282.717906,147.659253 L282.72453,147.701605 L282.72453,150.629605 C282.72453,150.703605 282.66653,150.763605 282.59253,150.763605 C282.53333,150.763605 282.48309,150.725205 282.465362,150.671957 L282.45853,150.629605 L282.45853,147.701605 C282.45853,147.627605 282.51853,147.567605 282.59253,147.567605 Z M281.13173,149.131205 C280.73773,149.131205 280.41773,149.455205 280.41773,149.853205 C280.41773,150.251205 280.73773,150.575205 281.13173,150.575205 C281.52373,150.575205 281.84373,150.251205 281.84373,149.853205 C281.84373,149.455205 281.52373,149.131205 281.13173,149.131205 Z M283.99593,149.130805 C283.60193,149.130805 283.28193,149.454805 283.28193,149.852805 C283.28193,150.250805 283.60193,150.574805 283.99593,150.574805 C284.38993,150.574805 284.70993,150.250805 284.70993,149.852805 C284.70993,149.454805 284.38993,149.130805 283.99593,149.130805 Z M277.141551,116.526869 L277.074245,116.526 C276.379799,116.526 276.25418,116.623795 276.243354,117.598771 L276.243,130.388 L288.989226,127.28543 C288.987219,126.42027 288.984945,125.573718 288.98242,124.747951 C288.979513,123.797427 288.971699,121.518991 288.96943,120.849771 L288.96883,120.670962 C288.965186,119.520772 288.964462,118.927744 288.966812,118.608697 C288.971307,117.998702 288.831881,117.675449 288.626243,117.518909 C288.562267,117.470208 288.463712,117.436126 288.33058,117.416663 C288.250873,117.405546 288.100037,117.385728 287.889971,117.360106 C287.538504,117.317236 287.151472,117.274333 286.740836,117.234289 C286.526969,117.213434 286.31186,117.193882 286.096483,117.175869 C283.206702,116.934178 278.067892,116.547589 277.141551,116.526869 Z M282.62673,120.342805 C283.893702,120.342805 284.92073,121.38163 284.92073,122.660805 C284.92073,123.93998 283.893702,124.978805 282.62673,124.978805 C281.360062,124.978805 280.33473,123.940291 280.33473,122.660805 C280.33473,121.381318 281.360062,120.342805 282.62673,120.342805 Z M282.62673,120.842805 C281.637644,120.842805 280.83473,121.656041 280.83473,122.660805 C280.83473,123.665569 281.637644,124.478805 282.62673,124.478805 C283.616273,124.478805 284.42073,123.665108 284.42073,122.660805 C284.42073,121.656502 283.616273,120.842805 282.62673,120.842805 Z M278.794761,115.324 C278.634857,115.324 278.547922,115.34004 278.492377,115.371232 C279.878337,115.459744 282.003397,115.617277 283.923516,115.768191 C281.887901,115.560742 279.236812,115.324 278.794761,115.324 Z" id="nano"></path>
                </g>
            </g>
        </g>
    </g>
</svg>