<svg xmlns="http://www.w3.org/2000/svg" viewBox="0 0 21 39" width="21" height="39">
	<style>
		tspan { white-space:pre }
		.shp0 { fill: none;stroke: #000000;stroke-width: 0.35 } 
		.shp1 { fill: none;stroke: #000000;stroke-linejoin:bevel;stroke-width: 0.35 } 
		.shp2 { fill: #000000 } 
	</style>
	<path id="Layer" class="shp0" d="M2.8 38.3C1.3 38.3 0.8 37.4 0.8 33.5C0.8 29.5 0.8 6.4 0.8 4.9C0.8 3.4 1.5 2.2 2.8 2.2C4.1 2.2 16.7 2.2 17.9 2.2C19.1 2.2 20.1 3.4 20.1 4.7C20.1 6 20.1 35.4 20.1 35.4L19.7 35.8L19.7 36.6L20.1 36.9L19.7 38C19.8 37.9 4.3 38.3 2.8 38.3Z" />
	<path id="Layer" class="shp1" d="M4.2 2.1C4.2 2.1 4.5 1.6 4.6 1.5C4.7 1.4 4.8 1.2 5.6 1.1C6.4 1 14 1.3 14.9 1.3C15.7 1.4 16.3 1.7 16.4 2.2" />
	<path id="Layer" fill-rule="evenodd" class="shp2" d="M10.6 32.1L10.6 29.6C10.6 29.5 10.6 29.5 10.5 29.5C10.4 29.5 10.4 29.6 10.4 29.6L10.4 32.1C10.4 32.2 10.5 32.2 10.5 32.2L10.6 32.1Z" />
	<path id="Layer" fill-rule="evenodd" class="shp2" d="M10.1 32C10.1 32.4 9.7 32.8 9.3 32.8C9.2 32.8 9.2 32.8 9.2 32.7C9.2 32.6 9.2 32.6 9.3 32.6C9.6 32.6 9.9 32.3 9.9 32L9.9 31.9C9.8 32.1 9.5 32.2 9.3 32.2C8.9 32.2 8.5 31.9 8.5 31.4C8.5 31 8.9 30.6 9.3 30.6C9.7 30.6 10.1 30.9 10.1 31.4L10.1 32ZM9.3 32C9.6 32 9.9 31.8 9.9 31.4C9.9 31.1 9.6 30.8 9.3 30.8C9 30.8 8.7 31.1 8.7 31.4C8.7 31.7 9 32 9.3 32Z" />
	<path id="Layer" fill-rule="evenodd" class="shp2" d="M11.7 32.3C11.3 32.3 10.9 31.9 10.9 31.5C10.9 31 11.3 30.7 11.7 30.7C12.1 30.7 12.5 31.1 12.5 31.5C12.5 31.9 12.1 32.3 11.7 32.3ZM11.7 30.8C11.4 30.8 11.1 31.1 11.1 31.4C11.1 31.7 11.4 32 11.7 32C12 32 12.3 31.7 12.3 31.4C12.3 31.1 12 30.8 11.7 30.8Z" />
	<path id="Layer" class="shp0" d="M10.4 5.4L10.8 5.4C12.5 5.4 13.9 6.8 13.9 8.5L13.9 31.9C13.9 33.6 12.5 35 10.8 35L10.4 35C8.7 35 7.3 33.6 7.3 31.9L7.3 8.5C7.3 6.8 8.7 5.4 10.4 5.4Z" />
	<path id="Layer" class="shp0" d="M10.5 11C11.9 11 13 9.9 13 8.5C13 7.1 11.9 6 10.5 6C9.1 6 8 7.1 8 8.5C8 9.9 9.1 11 10.5 11Z" />
</svg>