<svg width="16" height="43" viewBox="0 0 16 43" fill="none" xmlns="http://www.w3.org/2000/svg">
<path d="M3.79478 0.287415C4.55033 0.287415 10.8164 0.883419 11.4734 1.03243C12.0325 1.15922 12.4638 1.45714 12.7364 1.89236C12.84 1.90464 12.9407 1.9166 13.0387 1.92856C13.1836 1.94623 13.3091 1.96403 13.4154 1.98196C13.6837 1.98196 14.029 2.06956 14.3701 2.32922C14.9028 2.73473 15.202 3.42848 15.1948 4.40516C15.1927 4.69566 15.1931 5.22648 15.1961 6.21751L15.1969 6.45448L15.1974 6.62533C15.1996 7.28418 15.2075 9.57705 15.2104 10.5316C15.2356 18.7549 15.2359 29.0382 15.1948 39.2335L15.1946 39.2973C15.1837 42.0045 14.9146 42.2926 12.3639 42.2926L11.6868 42.2933L11.3814 42.2941C10.9301 42.2955 10.186 42.2981 8.7888 42.303C8.15686 42.3052 7.65204 42.3068 7.16408 42.3083C3.88324 42.3179 1.99193 42.315 1.46208 42.2926C0.701681 42.2904 0.298336 42.1133 0.110275 41.4474C-0.00372009 41.0438 -0.00981709 40.7647 0.00697291 38.8507C0.0110859 38.3818 0.0134826 38.0154 0.0142666 37.638L0.0145413 3.54753C0.0145413 1.76282 0.644181 1.08541 2.07426 1.08541C2.16392 1.08541 2.31702 1.09097 2.52232 1.1012C2.5519 1.04357 2.57997 0.995056 2.60918 0.953232L2.65416 0.89521L2.66017 0.884743C2.68203 0.849969 2.74555 0.751682 2.77614 0.711876C2.98955 0.434143 3.3104 0.287415 3.79478 0.287415ZM13.9915 14.1028L1.24303 17.2054L1.24254 37.351C1.24254 37.8429 1.24011 38.272 1.23494 38.8614C1.22088 40.4638 1.22713 40.8519 1.28365 41.0818C1.30227 41.0724 1.35356 41.0646 1.47594 41.0646L1.50362 41.0652C1.98252 41.0868 3.89634 41.0899 7.16048 41.0803C7.64818 41.0788 8.15279 41.0772 8.78453 41.075C10.5564 41.0688 11.2786 41.0663 11.6853 41.0653L12.3639 41.0646C14.1615 41.0646 13.9721 41.3257 13.9665 39.4724L13.9668 39.2285C14.0021 30.4631 14.0068 21.6324 13.9915 14.1028ZM6.13176 34.6686C6.6239 34.6686 7.0298 35.0446 7.08528 35.5274L7.09175 35.6406V36.4206C7.09175 36.9566 6.66176 37.3906 6.13176 37.3906C6.06176 37.3906 6.00774 37.3366 6.00774 37.2666C6.00774 37.1986 6.06176 37.1426 6.13176 37.1426C6.49109 37.1426 6.78992 36.8704 6.83723 36.5184L6.84373 36.4206V36.2886C6.66973 36.4866 6.41376 36.6126 6.13176 36.6126C5.59976 36.6126 5.16975 36.1766 5.16975 35.6406C5.16975 35.1046 5.59976 34.6686 6.13176 34.6686ZM8.99596 34.6682C9.52596 34.6682 9.95595 35.1042 9.95595 35.6402C9.95595 36.1762 9.52596 36.6122 8.99596 36.6122C8.46596 36.6122 8.03593 36.1762 8.03593 35.6402C8.03593 35.1042 8.46596 34.6682 8.99596 34.6682ZM7.59254 33.355C7.65174 33.355 7.70069 33.3934 7.71791 33.4467L7.72453 33.489V36.417C7.72453 36.491 7.66654 36.551 7.59254 36.551C7.53334 36.551 7.48311 36.5126 7.46538 36.4594L7.45854 36.417V33.489C7.45854 33.415 7.51854 33.355 7.59254 33.355ZM6.13176 34.9186C5.73776 34.9186 5.41774 35.2426 5.41774 35.6406C5.41774 36.0386 5.73776 36.3626 6.13176 36.3626C6.52376 36.3626 6.84373 36.0386 6.84373 35.6406C6.84373 35.2426 6.52376 34.9186 6.13176 34.9186ZM8.99596 34.9182C8.60196 34.9182 8.28194 35.2422 8.28194 35.6402C8.28194 36.0382 8.60196 36.3622 8.99596 36.3622C9.38996 36.3622 9.70995 36.0382 9.70995 35.6402C9.70995 35.2422 9.38996 34.9182 8.99596 34.9182ZM2.14156 2.31429L2.07426 2.31342C1.37982 2.31342 1.25419 2.41121 1.24336 3.38618L1.24303 16.1754L13.9892 13.0728C13.9872 12.2077 13.985 11.3611 13.9824 10.5354C13.9795 9.58484 13.9717 7.3064 13.9694 6.63718L13.9689 6.45837C13.9652 5.30818 13.9645 4.71516 13.9668 4.39611C13.9713 3.78612 13.8319 3.46286 13.6263 3.30632C13.5623 3.25762 13.4637 3.22354 13.3306 3.20408C13.2509 3.19296 13.1001 3.17314 12.89 3.14752C12.5385 3.10465 12.1515 3.06175 11.7409 3.02171C11.527 3.00085 11.3119 2.9813 11.0965 2.96329C8.20673 2.7216 3.0679 2.33501 2.14156 2.31429ZM7.62675 6.13022C8.89373 6.13022 9.92073 7.16904 9.92073 8.44822C9.92073 9.72739 8.89373 10.7662 7.62675 10.7662C6.36009 10.7662 5.33473 9.72771 5.33473 8.44822C5.33473 7.16873 6.36009 6.13022 7.62675 6.13022ZM7.62675 6.63022C6.63767 6.63022 5.83473 7.44346 5.83473 8.44822C5.83473 9.45298 6.63767 10.2662 7.62675 10.2662C8.6163 10.2662 9.42073 9.45252 9.42073 8.44822C9.42073 7.44392 8.6163 6.63022 7.62675 6.63022ZM3.79478 1.11141C3.63488 1.11141 3.54793 1.12745 3.49239 1.15865C4.87835 1.24716 7.00342 1.40469 8.92354 1.5556C6.88792 1.34815 4.23684 1.11141 3.79478 1.11141Z" fill="#2F2F2F"/>
</svg>
