<?xml version="1.0" encoding="UTF-8"?>
<svg width="80px" height="66px" viewBox="0 0 80 66" version="1.1" xmlns="http://www.w3.org/2000/svg" xmlns:xlink="http://www.w3.org/1999/xlink">
    <title>LOGO</title>
    <defs>
        <linearGradient x1="21.7813477%" y1="71.0380512%" x2="84.1049298%" y2="24.5700443%" id="linearGradient-1">
            <stop stop-color="#EE4823" offset="0%"></stop>
            <stop stop-color="#EF4F22" offset="17%"></stop>
            <stop stop-color="#F16121" offset="42%"></stop>
            <stop stop-color="#F57F1E" offset="70%"></stop>
            <stop stop-color="#FAA61A" offset="100%"></stop>
        </linearGradient>
    </defs>
    <g id="Desktop" stroke="none" stroke-width="1" fill="none" fill-rule="evenodd">
        <g id="Product_desktop_demi1" transform="translate(-110.000000, -71.000000)">
            <g id="LOGO" transform="translate(110.000000, 71.000000)">
                <g id="Glo_Logo_FINALx2[2]-01">
                    <g id="Layer_1" fill-rule="nonzero">
                        <path d="M63.8927835,25.6483333 C59.0817676,25.6483333 54.7444754,28.511535 52.9033793,32.9028319 C51.0622833,37.2941287 52.0799558,42.3487301 55.4818577,45.7096832 C58.8837596,49.0706363 63.9999447,50.076059 68.4447438,48.2571243 C72.8895428,46.4381896 75.7876289,42.1531055 75.7876289,37.4 C75.7796762,30.9129909 70.4588283,25.6561903 63.8927835,25.6483333 L63.8927835,25.6483333 Z" id="Path" fill="url(#linearGradient-1)"></path>
                        <path d="M63.8927835,53.2114815 C57.4186981,53.2114815 51.5821317,49.3584209 49.1047991,43.4490639 C46.6274666,37.5397069 47.9972658,30.7378709 52.5754303,26.2153966 C57.1535949,21.6929222 64.0384788,20.3404875 70.0195144,22.7887616 C76.0005499,25.2370357 79.899803,31.0038435 79.8989692,37.4 C79.8898752,46.1295111 72.7286534,53.2036217 63.8927835,53.2114815 Z M63.8927835,25.6483333 C59.0817676,25.6483333 54.7444754,28.511535 52.9033793,32.9028319 C51.0622833,37.2941287 52.0799558,42.3487301 55.4818577,45.7096832 C58.8837596,49.0706363 63.9999447,50.076059 68.4447438,48.2571243 C72.8895428,46.4381896 75.7876289,42.1531055 75.7876289,37.4 C75.7796762,30.9129909 70.4588283,25.6561903 63.8927835,25.6483333 L63.8927835,25.6483333 Z" id="Shape" fill="#FFFFFF"></path>
                        <path d="M42.7216495,50.0255556 L42.7216495,2.4037037 C42.7462792,1.60653469 42.3298768,0.859282114 41.6349131,0.453507216 C40.9399495,0.0477323176 40.0765454,0.0477323176 39.3815817,0.453507216 C38.6866181,0.859282114 38.2702157,1.60653469 38.2948454,2.4037037 L38.2948454,50.0255556 C38.2702157,50.8227246 38.6866181,51.5699771 39.3815817,51.975752 C40.0765454,52.3815269 40.9399495,52.3815269 41.6349131,51.975752 C42.3298768,51.5699771 42.7462792,50.8227246 42.7216495,50.0255556 Z" id="Path" fill="#FFFFFF"></path>
                        <path d="M32.1774386,37.402037 C32.2069597,29.7439265 26.6977511,23.1568858 19.0797242,21.7420029 C11.4616972,20.32712 3.90737777,24.4878945 1.12008119,31.6338303 C-1.66721538,38.7797661 1.10739834,46.8729693 7.71644933,50.8746159 C14.3255003,54.8762625 22.8842046,53.6451539 28.0639175,47.9477778 L28.0639175,50.0744444 C28.0559649,56.5614535 22.7351169,61.8182542 16.1690722,61.8261111 C15.0954688,61.9084564 14.2668073,62.7931651 14.2668073,63.857037 C14.2668073,64.920909 15.0954688,65.8056176 16.1690722,65.887963 C25.0056104,65.8789825 32.1670915,58.8046157 32.1774386,50.0744444 L32.1774386,37.402037 Z M16.171134,49.1537037 C9.60179233,49.1537037 4.27628866,43.8923033 4.27628866,37.402037 C4.27628866,30.9117708 9.60179233,25.6503704 16.171134,25.6503704 C22.7404757,25.6503704 28.0659794,30.9117708 28.0659794,37.402037 C28.0580267,43.8890461 22.7371788,49.1458468 16.171134,49.1537037 L16.171134,49.1537037 Z" id="Shape" fill="#FFFFFF"></path>
                    </g>
                </g>
            </g>
        </g>
    </g>
</svg>