<?xml version="1.0" encoding="utf-8"?>
<!-- Generator: Adobe Illustrator 24.0.1, SVG Export Plug-In . SVG Version: 6.00 Build 0)  -->
<svg version="1.1" id="Layer_1" xmlns="http://www.w3.org/2000/svg" xmlns:xlink="http://www.w3.org/1999/xlink" x="0px" y="0px"
	 viewBox="0 0 42 55" style="enable-background:new 0 0 42 55;" xml:space="preserve">
<style type="text/css">
	.st0{fill:#4B4B4B;}
	.st1{fill:#FFFFFF;}
	.st2{opacity:0.3;fill:#4B4B4B;}
</style>
<title>shop_glo</title>
<desc>Created with Sketch.</desc>
<g id="icons">
	<g id="shop_glo" transform="translate(-64.000000, -88.000000)">
		<g transform="translate(64.000000, 88.000000)">
			<g id="glo-logo-placeholder" transform="translate(22.000000, 25.703008)">
				<g id="Group-3" transform="translate(1.000000, 1.195489)">
					<g id="Fill-1-Clipped">
						<g id="path-1">
						</g>
					</g>
				</g>
			</g>
			<g id="Clip-4">
			</g>
		</g>
	</g>
</g>
<g>
	<path class="st0" d="M15.4,19.7H11c0.2,1,1.1,1.8,2.2,1.8C14.3,21.5,15.2,20.7,15.4,19.7z"/>
	<path class="st0" d="M18.8,24.9h-1.7c-0.5,0-0.8,0.4-0.8,0.8v6.2h3.4h0v-6.2C19.6,25.2,19.2,24.9,18.8,24.9z"/>
	<path class="st0" d="M24.5,21.5c1.1,0,2-0.8,2.2-1.8h-4.4C22.5,20.7,23.4,21.5,24.5,21.5z"/>
	<path class="st0" d="M26.6,24.9h-2.8c-0.2,0-0.4,0.2-0.4,0.4v2.4c0,0.2,0.2,0.4,0.4,0.4h2.8c0.2,0,0.4-0.2,0.4-0.4v-2.4
		C27,25.1,26.8,24.9,26.6,24.9z"/>
	<path class="st0" d="M18.9,21.5c1.1,0,2-0.8,2.2-1.8h-4.4C16.8,20.7,17.8,21.5,18.9,21.5z"/>
	<polygon class="st0" points="29.1,13.7 14.3,13.7 11.5,18.5 31.9,18.5 	"/>
	<path class="st0" d="M30.2,21.5c1.1,0,2-0.8,2.2-1.8H28C28.1,20.7,29.1,21.5,30.2,21.5z"/>
	<path class="st0" d="M21,0C9.4,0,0,9.4,0,21.1c0,7.6,6.8,17.3,20.3,29c0.4,0.3,0.9,0.3,1.3,0C35.2,38.4,42,28.8,42,21.1
		C42,9.4,32.6,0,21,0z M31.5,22.4C31.5,22.4,31.5,22.4,31.5,22.4l0,10.1c0,0.3-0.3,0.6-0.6,0.6H20.2h0h-4.5h0h-3.2
		c-0.3,0-0.6-0.3-0.6-0.6V22.4c-1.2-0.5-2-1.7-2-3.1c0-0.1,0-0.2,0.1-0.3l3.5-6.1c0.1-0.2,0.3-0.3,0.5-0.3h15.5
		c0.2,0,0.4,0.1,0.5,0.3l3.5,6.1c0.1,0.1,0.1,0.2,0.1,0.3C33.6,20.7,32.7,21.8,31.5,22.4z"/>
	<path class="st0" d="M27.3,21.2c-0.6,0.9-1.6,1.5-2.8,1.5c-1.2,0-2.2-0.6-2.8-1.5c-0.6,0.9-1.7,1.5-2.8,1.5c-1.2,0-2.2-0.6-2.8-1.5
		c-0.6,0.9-1.7,1.5-2.8,1.5c-0.1,0-0.1,0-0.2,0v9.2h2.1v-6.2c0-1.1,0.9-2,2-2h1.7c1.1,0,2,0.9,2,2v6.2h9.6v-9.2c-0.1,0-0.1,0-0.2,0
		C29,22.6,27.9,22.1,27.3,21.2z M28,27.7c0,0.9-0.6,1.6-1.4,1.6h-2.8c-0.8,0-1.4-0.7-1.4-1.6v-2.4c0-0.9,0.6-1.6,1.4-1.6h2.8
		c0.8,0,1.4,0.7,1.4,1.6V27.7z"/>
	<path class="st1" d="M26.6,23.7h-2.8c-0.8,0-1.4,0.7-1.4,1.6v2.4c0,0.9,0.6,1.6,1.4,1.6h2.8c0.8,0,1.4-0.7,1.4-1.6v-2.4
		C28,24.4,27.4,23.7,26.6,23.7z M27,27.7c0,0.2-0.2,0.4-0.4,0.4h-2.8c-0.2,0-0.4-0.2-0.4-0.4v-2.4c0-0.2,0.2-0.4,0.4-0.4h2.8
		c0.2,0,0.4,0.2,0.4,0.4V27.7z"/>
	<path class="st1" d="M30,12.9c-0.1-0.2-0.3-0.3-0.5-0.3H13.9c-0.2,0-0.4,0.1-0.5,0.3L9.9,19c0,0.1-0.1,0.2-0.1,0.3
		c0,1.4,0.8,2.5,2,3.1v10.1c0,0.3,0.3,0.6,0.6,0.6h3.2h0h4.5h0h10.8c0.3,0,0.6-0.3,0.6-0.6v-10c0,0,0,0,0-0.1c1.2-0.5,2-1.7,2-3.1
		c0-0.1,0-0.2-0.1-0.3L30,12.9z M14.3,13.7h14.9l2.8,4.8H11.5L14.3,13.7z M26.7,19.7c-0.2,1-1.1,1.8-2.2,1.8s-2-0.8-2.2-1.8H26.7z
		 M21.1,19.7c-0.2,1-1.1,1.8-2.2,1.8c-1.1,0-2-0.8-2.2-1.8H21.1z M11,19.7h4.4c-0.2,1-1.1,1.8-2.2,1.8C12.1,21.5,11.2,20.7,11,19.7z
		 M19.6,31.9L19.6,31.9h-3.4v-6.2c0-0.4,0.4-0.8,0.8-0.8h1.7c0.5,0,0.8,0.4,0.8,0.8V31.9z M30.4,31.9h-9.6v-6.2c0-1.1-0.9-2-2-2
		h-1.7c-1.1,0-2,0.9-2,2v6.2H13v-9.2c0.1,0,0.1,0,0.2,0c1.2,0,2.2-0.6,2.8-1.5c0.6,0.9,1.7,1.5,2.8,1.5c1.2,0,2.2-0.6,2.8-1.5
		c0.6,0.9,1.7,1.5,2.8,1.5c1.2,0,2.2-0.6,2.8-1.5c0.6,0.9,1.7,1.5,2.8,1.5c0.1,0,0.1,0,0.2,0V31.9z M30.2,21.5c-1.1,0-2-0.8-2.2-1.8
		h4.4C32.2,20.7,31.3,21.5,30.2,21.5z"/>
	<path class="st2" d="M15.9,52c0-0.5,1.7-0.9,4-1c-3.7,0.1-6.5,0.5-6.5,1s2.8,0.9,6.5,1C17.7,52.9,15.9,52.5,15.9,52z"/>
	<path class="st2" d="M22,51c2.3,0.1,4,0.5,4,1s-1.7,0.9-4,1c3.7-0.1,6.5-0.5,6.5-1S25.7,51.1,22,51z"/>
	<path class="st2" d="M22,51c-0.3,0-0.7,0-1,0s-0.7,0-1,0c0.3,0,0.7,0,1,0S21.7,51,22,51z"/>
	<path class="st2" d="M20,53c0.3,0,0.7,0,1,0s0.7,0,1,0c-0.3,0-0.7,0-1,0S20.3,53,20,53z"/>
	<path class="st2" d="M26.1,52c0-0.5-1.7-0.9-4-1c-0.3,0-0.7,0-1,0c1.4,0,2.5,0.4,2.5,1s-1.1,1-2.5,1c0.4,0,0.7,0,1,0
		C24.3,52.9,26.1,52.5,26.1,52z"/>
	<path class="st2" d="M26.1,52c0-0.5-1.7-0.9-4-1c-0.3,0-0.7,0-1,0c1.4,0,2.5,0.4,2.5,1s-1.1,1-2.5,1c0.4,0,0.7,0,1,0
		C24.3,52.9,26.1,52.5,26.1,52z"/>
	<path class="st2" d="M18.5,52c0-0.6,1.1-1,2.5-1c-0.4,0-0.7,0-1,0c-2.3,0.1-4,0.5-4,1s1.7,0.9,4,1c0.3,0,0.7,0,1,0
		C19.6,53,18.5,52.6,18.5,52z"/>
	<path class="st2" d="M18.5,52c0-0.6,1.1-1,2.5-1c-0.4,0-0.7,0-1,0c-2.3,0.1-4,0.5-4,1s1.7,0.9,4,1c0.3,0,0.7,0,1,0
		C19.6,53,18.5,52.6,18.5,52z"/>
	<ellipse class="st0" cx="21" cy="52" rx="2.5" ry="1"/>
	<ellipse class="st2" cx="21" cy="52" rx="2.5" ry="1"/>
	<ellipse class="st2" cx="21" cy="52" rx="2.5" ry="1"/>
</g>
</svg>
