<svg xmlns="http://www.w3.org/2000/svg" xmlns:xlink="http://www.w3.org/1999/xlink" viewBox="0 0 386.7 322.39"><defs><style>.cls-1{fill:url(#linear-gradient);}.cls-2{fill:#415364;}</style><linearGradient id="linear-gradient" x1="276.52" y1="207.41" x2="348.42" y2="152.48" gradientUnits="userSpaceOnUse"><stop offset="0" stop-color="#ee4823"/><stop offset="0.17" stop-color="#ef4f22"/><stop offset="0.42" stop-color="#f16121"/><stop offset="0.7" stop-color="#f57f1e"/><stop offset="1" stop-color="#faa61a"/></linearGradient></defs><title>Glo_Logo_FINALx2[2]</title><g id="Layer_1" data-name="Layer 1"><path class="cls-1" d="M309.07,124.85a57.69,57.69,0,1,0,57.7,57.69A57.76,57.76,0,0,0,309.07,124.85Z"/><path id="TM" class="cls-2" d="M381.12,105a1.39,1.39,0,0,1-1.37-1.38V95.38l-3.49,5.75a1.42,1.42,0,0,1-2.51,0l-3.48-5.74v8.26a1.4,1.4,0,0,1-1.38,1.38,1.37,1.37,0,0,1-1.38-1.38V91A1.36,1.36,0,0,1,369,89.67a1.65,1.65,0,0,1,1.54,1L375,98l4.51-7.39a1.65,1.65,0,0,1,1.54-1A1.36,1.36,0,0,1,382.5,91v12.63A1.36,1.36,0,0,1,381.12,105Zm-20.49,0a1.37,1.37,0,0,1-1.38-1.38V92.43h-3.54a1.34,1.34,0,0,1-1.3-1.3,1.31,1.31,0,0,1,1.3-1.34h9.84a1.32,1.32,0,0,1,0,2.64H362v11.21A1.4,1.4,0,0,1,360.63,105Z"/><path class="cls-2" d="M309.07,260.15a77.62,77.62,0,1,1,77.63-77.61A77.69,77.69,0,0,1,309.07,260.15Zm0-135.3a57.69,57.69,0,1,0,57.7,57.69A57.76,57.76,0,0,0,309.07,124.85Z"/><path class="cls-2" d="M206.4,244.52V10.74a10.74,10.74,0,1,0-21.48,0V244.52a10.74,10.74,0,1,0,21.48,0Z"/><path class="cls-2" d="M155.25,182.54a77.88,77.88,0,1,0-19.94,51.78v10.44a57.76,57.76,0,0,1-57.69,57.69,10,10,0,1,0,0,19.94,77.71,77.71,0,0,0,77.63-77.63Zm-77.63,57.7a57.69,57.69,0,1,1,57.7-57.69A57.76,57.76,0,0,1,77.62,240.24Z"/></g></svg>