<svg xmlns="http://www.w3.org/2000/svg" width="40" height="40" viewBox="0 0 40 40">
    <g fill="none" fill-rule="evenodd">
        <path fill="#425563" d="M40 20c0 11.046-8.954 20-20 20S0 31.046 0 20 8.954 0 20 0s20 8.954 20 20"/>
        <path fill="#FFF" d="M25.84 26.072c2.287-1.389 3.819-3.56 4.014-6.036.013-.177.033-.353.033-.532 0-.15-.018-.297-.027-.447-.285-4.303-4.61-7.724-9.916-7.724-5.493 0-9.944 3.658-9.944 8.171 0 4.512 4.45 8.171 9.944 8.171.493 0 .973-.04 1.447-.096a6.041 6.041 0 0 0 5.594 3.754 6.004 6.004 0 0 0 3.015-.83c-2.075-.623-3.684-2.303-4.16-4.43"/>
        <path fill="#425563" d="M21.333 19.865a1.334 1.334 0 1 1-2.668 0 1.334 1.334 0 0 1 2.668 0M17.333 19.865a1.334 1.334 0 1 1-2.668 0 1.334 1.334 0 0 1 2.668 0M25.333 19.865a1.334 1.334 0 1 1-2.668 0 1.334 1.334 0 0 1 2.668 0"/>
    </g>
</svg>
