<svg xmlns="http://www.w3.org/2000/svg" xmlns:xlink="http://www.w3.org/1999/xlink" width="40" height="40" viewBox="0 0 40 40">
    <defs>
        <path id="a" d="M0 0h40v40H0z"/>
    </defs>
    <g fill="none" fill-rule="evenodd">
        <g>
            <mask id="b" fill="#fff">
                <use xlink:href="#a"/>
            </mask>
            <path fill="#25D366" d="M40 20c0 11.046-8.955 20-20 20C8.954 40 0 31.046 0 20S8.954 0 20 0c11.045 0 20 8.954 20 20" mask="url(#b)"/>
        </g>
        <path fill="#FFF" d="M25.232 21.897c.065.106.065.628-.151 1.237-.215.61-1.251 1.162-1.752 1.237-.826.123-1.472.061-3.123-.65-2.611-1.132-4.313-3.757-4.443-3.929-.128-.173-1.06-1.41-1.06-2.69s.67-1.908.909-2.17a.964.964 0 0 1 .694-.324c.173 0 .348 0 .497.01.159.008.375-.062.586.444.215.52.737 1.8.8 1.932.067.131.109.281.024.454-.496.993-1.031.961-.762 1.421 1.008 1.728 2.01 2.33 3.539 3.093.258.131.41.108.562-.065.154-.179.652-.76.825-1.022.172-.263.347-.22.585-.13.24.083 1.52.711 1.778.842.258.126.43.193.492.31m3.51-2.484c.006-2.312-.998-4.482-2.63-6.118A8.568 8.568 0 0 0 20 10.76c-4.773 0-8.655 3.881-8.655 8.65 0 1.634.456 3.223 1.323 4.601l.207.328-.873 3.193 3.272-.858.313.188a8.645 8.645 0 0 0 4.407 1.204c4.768 0 8.748-3.882 8.748-8.652m1.758 0c0 5.737-4.773 10.406-10.506 10.406h-.004a10.39 10.39 0 0 1-4.974-1.266L9.5 30.003l1.476-5.392a10.423 10.423 0 0 1-1.39-5.203c0-5.738 4.67-10.407 10.408-10.407 2.78 0 5.396 1.083 7.359 3.052 1.965 1.97 3.147 4.58 3.147 7.36"/>
    </g>
</svg>
