<svg xmlns="http://www.w3.org/2000/svg" xmlns:xlink="http://www.w3.org/1999/xlink" width="40" height="40" viewBox="0 0 40 40">
    <defs>
        <path id="a" d="M0 0h40v40H0z"/>
    </defs>
    <g fill="none" fill-rule="evenodd">
        <g>
            <mask id="b" fill="#fff">
                <use xlink:href="#a"/>
            </mask>
            <path fill="#2BA3D7" d="M40 20c0 11.046-8.954 20-20 20C8.955 40 0 31.046 0 20S8.955 0 20 0c11.046 0 20 8.954 20 20" mask="url(#b)"/>
        </g>
        <path fill="#FFF" d="M25.13 27.036c-.212.937-.767 1.17-1.554.729l-4.291-3.163-2.073 1.993c-.229.228-.42.42-.86.42l.308-4.372 7.953-7.187c.346-.309-.075-.479-.537-.17l-9.834 6.191-4.234-1.326c-.92-.286-.938-.92.193-1.361l16.557-6.379c.768-.288 1.438.17 1.188 1.341l-2.817 13.284z"/>
    </g>
</svg>
