<svg xmlns="http://www.w3.org/2000/svg" xmlns:xlink="http://www.w3.org/1999/xlink" width="40" height="40" viewBox="0 0 40 40">
    <defs>
        <path id="a" d="M0 0h40v40H0z"/>
    </defs>
    <g fill="none" fill-rule="evenodd">
        <g>
            <mask id="b" fill="#fff">
                <use xlink:href="#a"/>
            </mask>
            <path fill="#815DF3" d="M40 20c0 11.046-8.954 20-20 20S0 31.046 0 20 8.954 0 20 0s20 8.954 20 20" mask="url(#b)"/>
        </g>
        <path fill="#FFF" d="M22.084 19.146c-.045-.917-.475-1.363-1.357-1.413-.359-.02-.327-.559.028-.537 1.163.062 1.808.728 1.867 1.924.017.36-.52.384-.538.026zm-1.774-2.859c-.355-.025-.317-.563.038-.537 2.416.174 3.703 1.837 3.657 3.854-.004.358-.546.342-.538-.013.042-1.766-1.063-3.149-3.157-3.304zm4.579 3.867c-.026-3.396-2.287-5.246-5.034-5.267-.354-.004-.354-.538 0-.538 3.071.021 5.542 2.142 5.571 5.801.005.358-.537.362-.537.004zm.066 4.091c-.45.792-1.291 1.667-2.158 1.388l-.008-.013c-.879-.245-2.951-1.313-4.26-2.354a10.87 10.87 0 0 1-1.765-1.766 13.355 13.355 0 0 1-1.284-1.943c-.888-1.603-1.083-2.32-1.083-2.32-.279-.867.591-1.708 1.388-2.158h.008c.383-.2.75-.133.996.162 0 0 .517.617.736.921.209.284.489.738.635.992.254.454.095.917-.155 1.108l-.5.4c-.254.204-.22.583-.22.583s.74 2.804 3.512 3.513c0 0 .379.034.583-.22l.399-.5c.194-.25.656-.409 1.11-.155.612.346 1.39.883 1.908 1.371.291.237.357.6.158.983v.008zm1.768-10.553c-.452-.409-2.385-1.625-6.422-1.643 0 0-4.779-.312-7.1 1.792-1.291 1.275-1.728 3.171-1.775 5.484-.046 2.312-.296 6.732 3.946 7.908-.004 0-.004 0 0 0 0 0-.017 3.283-.017 3.57-.003.438.237.46.458.24.675-.68 2.841-3.293 2.841-3.293 2.906.188 5.218-.388 5.468-.467.583-.188 3.754-.462 4.292-4.796.553-4.47-.205-7.52-1.691-8.795zm3.187 9.187c-.635 5.192-4.547 5.692-5.238 5.916-.3.096-2.929.754-6.355.467a66.119 66.119 0 0 1-1.241 1.405c-.662.712-1.071 1.375-1.763 1.158-.575-.175-.541-1.046-.541-1.046l.003-2.15h-.003c-5.004-1.409-4.934-6.6-4.876-9.37.059-2.772.597-5.009 2.122-6.535 2.741-2.516 8.371-2.179 8.371-2.179 4.775.022 6.917 1.575 7.445 2.063 1.758 1.53 2.733 4.913 2.076 10.271z"/>
    </g>
</svg>
