<?xml version="1.0" encoding="utf-8"?>
<!-- Generator: Adobe Illustrator 24.0.1, SVG Export Plug-In . SVG Version: 6.00 Build 0)  -->
<svg version="1.1" id="Layer_1" xmlns="http://www.w3.org/2000/svg" xmlns:xlink="http://www.w3.org/1999/xlink" x="0px" y="0px"
	 viewBox="0 0 62 62" style="enable-background:new 0 0 62 62;" xml:space="preserve">
<style type="text/css">
	.st0{fill:none;}
	.st1{fill:#B0B0B0;}
</style>
<title>series20_icon</title>
<desc>Created with Sketch.</desc>
<g id="Clip-2">
</g>
<g>
	<path class="st0" d="M39.5,22.1c0-1,0-3.5,0-3.7c0-1.1,0-1.6,0-1.9c0-0.5-0.1-0.8-0.4-0.9c-0.1,0-0.3-0.1-0.5-0.1
		c-0.1-0.1-0.3-0.1-0.6-0.1c-0.4,0-1-0.1-1.5-0.1c-0.3-0.1-0.6-0.1-0.9-0.1c-3.9-0.2-11-0.6-11.9-0.6c-1.1,0-1.3,0.2-1.3,1.1V29
		l17.1-4.4C39.5,23.8,39.5,22.9,39.5,22.1z M31.2,22.8c-1.3,0-2.3-1-2.3-2.3s1-2.3,2.3-2.3s2.3,1,2.3,2.3S32.5,22.8,31.2,22.8z"/>
	<path class="st0" d="M37.2,47.7c0.5,0,0.9,0,1.2,0C38.1,47.7,37.8,47.7,37.2,47.7C37.3,47.7,37.2,47.7,37.2,47.7z"/>
	<path class="st0" d="M22.4,44.4V39c0-4.1,0-4.1,0-8.7v-1l17.1-4.4c0,0,0,0,0,0l-17.2,4.4v1c0,4.6,0,4.6,0,8.7v5.4
		c0,0.5,0,0.9,0,1.4c0,1.4,0,1.7,0.1,1.9c0,0,0,0,0.1,0c-0.1-0.1-0.1-0.4-0.1-1.9C22.4,45.2,22.4,44.8,22.4,44.4z"/>
	<path class="st0" d="M36.4,14.2c0.2,0,0.3,0,0.5,0c-0.1-0.1-0.3-0.2-0.6-0.2c-0.8-0.1-8.9-0.6-9.8-0.6c-0.3,0-0.5,0.1-0.8,0.2
		c2.7,0.1,7,0.3,9.8,0.5C35.8,14.2,36.1,14.2,36.4,14.2z"/>
	<circle class="st0" cx="31.2" cy="20.5" r="1.8"/>
	<path class="st0" d="M31,1.4C14.7,1.4,1.4,14.7,1.4,31S14.7,60.6,31,60.6c16.3,0,29.6-13.3,29.6-29.6S47.3,1.4,31,1.4z M40.8,18.3
		c0,0.2,0,2.7,0,3.7c0,7.4,0,14.9-0.1,23.8v0.1c0,2.6-0.3,2.8-3.5,2.8c-0.8,0-0.7,0-4.7,0c-0.8,0-1.5,0-2.1,0c-4.3,0-6.8,0-7.5,0
		c-0.9,0-1.3-0.1-1.6-0.7c-0.2-0.4-0.2-0.6-0.2-2.4c0-0.5,0-0.9,0-1.3v-5.4c0-4.1,0-4.1,0-8.7V15.6c0-1.7,0.8-2.3,2.5-2.3
		c0.1,0,0.5,0,1.1,0c0.1,0,0.1-0.1,0.1-0.1c0.1-0.1,0.2-0.2,0.3-0.3l0.2-0.1c0.3-0.2,0.6-0.3,1.2-0.3c0.9,0,9.1,0.5,9.9,0.6
		c1,0.1,1.6,0.5,1.9,1.1c0.1,0,0.2,0,0.3,0c0.3,0,0.7,0.1,1.1,0.3c0.7,0.4,1.1,1,1.1,2C40.8,16.7,40.8,17.3,40.8,18.3z"/>
	<path class="st1" d="M31.2,18.2c-1.3,0-2.3,1-2.3,2.3s1,2.3,2.3,2.3s2.3-1,2.3-2.3S32.5,18.2,31.2,18.2z M31.2,22.3
		c-1,0-1.8-0.8-1.8-1.8s0.8-1.8,1.8-1.8s1.8,0.8,1.8,1.8S32.2,22.3,31.2,22.3z"/>
	<path class="st0" d="M39.5,46.2v-0.1c0-8,0-14.7,0-21.2l-17.1,4.4v1c0,4.6,0,4.6,0,8.7v5.4c0,0.4,0,0.8,0,1.4c0,1.5,0,1.8,0.1,1.9
		c0,0,0,0,0.4,0c0,0,0.1,0,0.1,0c0.6,0,3.2,0,7.4,0c0,0,0.1,0,0.1,0c0.6,0,1.2,0,2,0c0,0,0.1,0,0.1,0c3.8,0,3.9,0,4.6,0
		c0,0,0.1,0,0.1,0c0.5,0,0.8,0,1.1,0C39.7,47.7,39.5,47.6,39.5,46.2z M30.7,42.9c0,0.6-0.5,1-1,1c0,0-0.1,0-0.1-0.1
		c0,0,0-0.1,0.1-0.1c0.4,0,0.7-0.3,0.7-0.7c-0.2,0.2-0.4,0.3-0.7,0.3c-0.6,0-1-0.4-1-1s0.5-1,1-1c0.6,0,1,0.5,1,1V42.9z M31.2,40.1
		V43c0,0,0,0.1-0.1,0.1c0,0-0.1,0-0.1-0.1v-2.9C31,40,31.1,40,31.2,40.1C31.2,40,31.3,40,31.2,40.1z M32.6,43.3c-0.6,0-1-0.4-1-1
		s0.5-1,1-1s1,0.4,1,1S33.2,43.3,32.6,43.3z"/>
	<circle class="st0" cx="29.7" cy="42.3" r="0.7"/>
	<path class="st0" d="M32.6,41.6c-0.4,0-0.7,0.3-0.7,0.7s0.3,0.7,0.7,0.7c0.4,0,0.7-0.3,0.7-0.7S33,41.6,32.6,41.6z"/>
	<path class="st1" d="M32.6,41.3c-0.5,0-1,0.4-1,1s0.4,1,1,1c0.6,0,1-0.4,1-1S33.1,41.3,32.6,41.3z M32.6,43c-0.4,0-0.7-0.3-0.7-0.7
		s0.3-0.7,0.7-0.7c0.4,0,0.7,0.3,0.7,0.7S33,43,32.6,43z"/>
	<path class="st1" d="M29.7,41.3c-0.5,0-1,0.4-1,1s0.4,1,1,1c0.3,0,0.5-0.1,0.7-0.3c0,0.4-0.3,0.7-0.7,0.7c-0.1,0-0.1,0.1-0.1,0.1
		c0,0.1,0.1,0.1,0.1,0.1c0.5,0,1-0.4,1-1v-0.6C30.7,41.8,30.3,41.3,29.7,41.3z M29.7,43c-0.4,0-0.7-0.3-0.7-0.7s0.3-0.7,0.7-0.7
		c0.4,0,0.7,0.3,0.7,0.7S30.1,43,29.7,43z"/>
	<path class="st1" d="M31.2,40c-0.1,0-0.2,0-0.2,0.1V43c0,0.1,0.1,0.1,0.1,0.1c0.1,0,0.1-0.1,0.1-0.1V40C31.3,40,31.2,40,31.2,40z"
		/>
	<path class="st1" d="M39.7,14.5c-0.4-0.2-0.8-0.3-1.1-0.3c-0.1,0-0.2,0-0.3,0c-0.3-0.6-0.9-1-1.9-1.1c-0.8-0.1-9-0.6-9.9-0.6
		c-0.6,0-0.9,0.1-1.2,0.3l-0.2,0.1c-0.1,0.1-0.2,0.2-0.3,0.3c0,0,0,0.1-0.1,0.1c-0.6,0-1,0-1.1,0c-1.7,0-2.5,0.6-2.5,2.3v14.6
		c0,4.6,0,4.6,0,8.7v5.4c0,0.4,0,0.8,0,1.3c0,1.8,0,2,0.2,2.4c0.3,0.6,0.7,0.7,1.6,0.7c0.7,0,3.2,0,7.5,0c0.6,0,1.3,0,2.1,0
		c4,0,3.9,0,4.7,0c3.2,0,3.5-0.2,3.5-2.8v-0.1c0.1-8.9,0.1-16.4,0.1-23.8c0-1,0-3.5,0-3.7c0-1,0-1.6,0-1.8
		C40.8,15.5,40.4,14.9,39.7,14.5z M26.5,13.4c0.9,0,9,0.5,9.8,0.6c0.3,0,0.5,0.1,0.6,0.2c-0.2,0-0.3,0-0.5,0c-0.3,0-0.6,0-0.9-0.1
		c-2.8-0.2-7.1-0.4-9.8-0.5C26,13.5,26.2,13.4,26.5,13.4z M22.4,15.7c0-0.9,0.2-1.1,1.3-1.1c0.9,0,8,0.4,11.9,0.6
		c0.3,0,0.6,0,0.9,0.1c0.5,0,1.1,0.1,1.5,0.1c0.3,0,0.5,0,0.6,0.1c0.2,0,0.4,0.1,0.5,0.1c0.3,0.1,0.4,0.4,0.4,0.9c0,0.3,0,0.8,0,1.9
		c0,0.2,0,2.7,0,3.7c0,0.8,0,1.7,0,2.5L22.4,29V15.7z M38.4,47.7c-0.3,0-0.7,0-1.2,0c-0.7,0-0.8,0-4.6,0c0,0-0.1,0-0.1,0
		c-0.8,0-1.4,0-2,0c0,0-0.1,0-0.1,0c-4.2,0-6.8,0-7.4,0c0,0-0.1,0-0.1,0c-0.4,0-0.4,0-0.4,0c-0.1,0-0.1,0-0.1,0
		c-0.1-0.2-0.1-0.5-0.1-1.9c0-0.5,0-0.9,0-1.4V39c0-4.1,0-4.1,0-8.7v-1l17.2-4.4c0,0,0,0,0,0l0.1,0c0,6.5,0,13.2,0,21.2v0.1
		C39.6,47.6,39.8,47.7,38.4,47.7z"/>
	<path class="st1" d="M39.6,46.1c0-8,0-14.7,0-21.2l-0.1,0C39.5,31.4,39.5,38.1,39.6,46.1l-0.1,0.1c0,1.4,0.2,1.5-1.1,1.5
		c1.4,0,1.2-0.1,1.2-1.5V46.1z"/>
	<path class="st1" d="M31,0C13.9,0,0,13.9,0,31s13.9,31,31,31c17.1,0,31-13.9,31-31S48.1,0,31,0z M31,60.6
		C14.7,60.6,1.4,47.3,1.4,31S14.7,1.4,31,1.4c16.3,0,29.6,13.3,29.6,29.6S47.3,60.6,31,60.6z"/>
</g>
</svg>
