<?xml version="1.0" encoding="UTF-8"?>
<svg width="60px" height="60px" viewBox="0 0 60 60" version="1.1" xmlns="http://www.w3.org/2000/svg" xmlns:xlink="http://www.w3.org/1999/xlink">
    <!-- Generator: Sketch 55.2 (78181) - https://sketchapp.com -->
    <title>ind_icon_w@1x</title>
    <desc>Created with Sketch.</desc>
    <defs>
        <polygon id="path-1" points="0 0 59.9997 0 59.9997 59.9999 0 59.9999"></polygon>
    </defs>
    <g id="Page-1" stroke="none" stroke-width="1" fill="none" fill-rule="evenodd">
        <g id="Main_desktop_pro_v2" transform="translate(-361.000000, -345.000000)">
            <g id="slider1" transform="translate(0.000000, 52.000000)">
                <g id="ind_icon_w" transform="translate(361.000000, 293.000000)">
                    <path d="M38.4255,25.5174 C38.2515,25.5174 38.0795,25.4324 37.9755,25.2764 C37.8105,25.0264 37.8765,24.6914 38.1245,24.5254 C38.1665,24.4964 39.2965,23.6574 39.1185,21.1044 C38.9365,18.4804 34.1545,15.6274 30.3175,15.0174 C26.2805,14.3764 22.8165,14.6954 21.4845,15.8344 C21.0645,16.1954 20.8605,16.6254 20.8625,17.1554 C20.8675,19.4494 22.4825,19.6904 27.4695,19.8394 C31.8185,19.9714 35.5755,17.8104 35.6125,17.7884 C35.8695,17.6364 36.2005,17.7224 36.3545,17.9804 C36.5055,18.2384 36.4195,18.5694 36.1615,18.7214 C35.9995,18.8164 32.1465,21.0614 27.4365,20.9204 C22.9965,20.7884 19.7895,20.6924 19.7794801,17.1584 C19.7765,16.3044 20.1135,15.5824 20.7795,15.0124 C23.1675,12.9694 28.8145,13.6804 30.4865,13.9484 C34.8875,14.6484 39.9775,17.8264 40.1995,21.0284 C40.4245,24.2534 38.7955,25.3784 38.7265,25.4254 C38.6335,25.4874 38.5295,25.5174 38.4255,25.5174" id="Fill-1" fill="#FFFFFF"></path>
                    <path d="M38.3562,16.8748 C38.2392,16.8748 38.1212,16.8378 38.0222,16.7598 C37.7872,16.5738 37.7472,16.2338 37.9312,15.9988 C37.9432,15.9848 39.1182,14.4658 39.1182,12.6308 C39.1182,10.8858 37.3912,9.7338 37.3732,9.7228 C37.1242,9.5598 37.0532,9.2238 37.2172,8.9738 C37.3822,8.7218 37.7192,8.6518 37.9672,8.8178 C38.0582,8.8778 40.2012,10.3078 40.2012,12.6308 C40.2012,14.8508 38.8382,16.5978 38.7812,16.6708 C38.6732,16.8058 38.5162,16.8748 38.3562,16.8748" id="Fill-3" fill="#FFFFFF"></path>
                    <path d="M38.4255,34.1786 C38.2515,34.1786 38.0795,34.0936 37.9755,33.9376 C37.8105,33.6876 37.8765,33.3526 38.1245,33.1866 C38.1665,33.1576 39.2965,32.3186 39.1185,29.7656 C38.9365,27.1426 34.1545,24.2896 30.3175,23.6786 C26.2805,23.0356 22.8165,23.3566 21.4845,24.4956 C21.0645,24.8566 20.8605,25.2876 20.8625,25.8186 C20.8675,28.1116 22.4825,28.3526 27.4695,28.5016 C31.8185,28.6216 35.5755,26.4716 35.6125,26.4496 C35.8695,26.2976 36.2005,26.3826 36.3545,26.6416 C36.5055,26.8996 36.4195,27.2306 36.1615,27.3826 C35.9995,27.4776 32.1465,29.7386 27.4365,29.5826 C22.9965,29.4496 19.7895,29.3546 19.7794801,25.8206 C19.7765,24.9666 20.1135,24.2436 20.7795,23.6736 C23.1655,21.6306 28.8135,22.3406 30.4865,22.6096 C34.8885,23.3116 39.9775,26.4886 40.1995,29.6896 C40.4245,32.9146 38.7955,34.0396 38.7265,34.0856 C38.6335,34.1486 38.5295,34.1786 38.4255,34.1786" id="Fill-5" fill="#FFFFFF"></path>
                    <path d="M38.4255,42.6112 C38.2515,42.6112 38.0795,42.5262 37.9755,42.3702 C37.8105,42.1212 37.8765,41.7862 38.1245,41.6202 C38.1665,41.5902 39.2965,40.7512 39.1185,38.1972 C38.9365,35.5752 34.1545,32.7232 30.3175,32.1112 C26.2805,31.4692 22.8165,31.7892 21.4845,32.9282 C21.0645,33.2892 20.8605,33.7192 20.8625,34.2502 C20.8675,36.5432 22.4825,36.7842 27.4695,36.9332 C31.8185,37.0712 35.5755,34.9052 35.6125,34.8822 C35.8695,34.7302 36.2005,34.8162 36.3545,35.0742 C36.5055,35.3322 36.4195,35.6642 36.1615,35.8152 C35.9995,35.9112 32.1465,38.1592 27.4365,38.0142 C22.9965,37.8822 19.7895,37.7872 19.7794801,34.2522 C19.7765,33.3992 20.1135,32.6762 20.7795,32.1062 C23.1675,30.0632 28.8145,30.7752 30.4865,31.0422 C34.8885,31.7452 39.9775,34.9222 40.1995,38.1232 C40.4245,41.3472 38.7955,42.4722 38.7265,42.5192 C38.6335,42.5822 38.5295,42.6112 38.4255,42.6112" id="Fill-7" fill="#FFFFFF"></path>
                    <path d="M38.4255,51.2723 C38.2515,51.2723 38.0795,51.1873 37.9755,51.0313 C37.8105,50.7823 37.8765,50.4463 38.1245,50.2813 C38.1665,50.2513 39.2965,49.4133 39.1185,46.8583 C38.9365,44.2363 34.1545,41.3843 30.3175,40.7723 C26.2805,40.1303 22.8165,40.4503 21.4845,41.5893 C21.0645,41.9503 20.8605,42.3813 20.8625,42.9123 C20.8675,45.2063 22.4825,45.4463 27.4695,45.5953 C31.8185,45.7213 35.5755,43.5663 35.6125,43.5433 C35.8695,43.3913 36.2005,43.4763 36.3545,43.7353 C36.5055,43.9933 36.4195,44.3253 36.1615,44.4763 C35.9995,44.5723 32.1465,46.8353 27.4365,46.6763 C22.9965,46.5443 19.7895,46.4493 19.7794801,42.9143 C19.7765,42.0613 20.1135,41.3373 20.7795,40.7673 C23.1655,38.7243 28.8135,39.4353 30.4865,39.7033 C34.8885,40.4063 39.9775,43.5833 40.1995,46.7843 C40.4245,50.0093 38.7955,51.1343 38.7265,51.1803 C38.6335,51.2423 38.5295,51.2723 38.4255,51.2723" id="Fill-9" fill="#FFFFFF"></path>
                    <g id="Group-13">
                        <mask id="mask-2" fill="white">
                            <use xlink:href="#path-1"></use>
                        </mask>
                        <g id="Clip-12"></g>
                        <path d="M29.9997,1.3309 C22.3427,1.3309 15.1427,4.3129 9.7287,9.7269 C4.3127,15.1429 1.3307,22.3429 1.3307,29.9999 C1.3307,37.6579 4.3127,44.8569 9.7287,50.2719 C15.1427,55.6869 22.3427,58.6689 29.9997,58.6689 C37.6577,58.6689 44.8567,55.6869 50.2717,50.2719 C55.6867,44.8569 58.6687,37.6579 58.6687,29.9999 C58.6687,22.3429 55.6867,15.1429 50.2717,9.7269 C44.8567,4.3129 37.6577,1.3309 29.9997,1.3309 M29.9997,59.9999 C21.9867,59.9999 14.4527,56.8799 8.7867,51.2129 C3.1207,45.5469 -0.0003,38.0139 -0.0003,29.9999 C-0.0003,21.9869 3.1207,14.4529 8.7867,8.7869 C14.4527,3.1209 21.9867,-0.0001 29.9997,-0.0001 C38.0137,-0.0001 45.5467,3.1209 51.2137,8.7869 C56.8797,14.4529 59.9997,21.9869 59.9997,29.9999 C59.9997,38.0139 56.8797,45.5469 51.2137,51.2129 C45.5467,56.8799 38.0137,59.9999 29.9997,59.9999" id="Fill-11" fill="#FFFFFF" mask="url(#mask-2)"></path>
                    </g>
                </g>
            </g>
        </g>
    </g>
</svg>