<?xml version="1.0" encoding="UTF-8"?>
<svg width="62px" height="62px" viewBox="0 0 62 62" version="1.1" xmlns="http://www.w3.org/2000/svg" xmlns:xlink="http://www.w3.org/1999/xlink">
    <!-- Generator: Sketch 55.2 (78181) - https://sketchapp.com -->
    <title>time_icon_w</title>
    <desc>Created with Sketch.</desc>
    <defs>
        <path d="M0,31 C0,48.1204068 13.8785424,62 31,62 L31,62 C48.1204068,62 61.9989492,48.1204068 61.9989492,31 L61.9989492,31 C61.9989492,13.8795932 48.1204068,0 31,0 L31,0 C13.8785424,0 0,13.8795932 0,31 L0,31 Z M1.33352542,31 C1.33352542,14.6099322 14.6172881,1.32722034 31,1.32722034 L31,1.32722034 C47.3827119,1.32722034 60.6675254,14.6099322 60.6675254,31 L60.6675254,31 C60.6675254,47.3900678 47.3827119,60.6738305 31,60.6738305 L31,60.6738305 C14.6172881,60.6738305 1.33352542,47.3900678 1.33352542,31 L1.33352542,31 Z" id="path-1"></path>
    </defs>
    <g id="Page-1" stroke="none" stroke-width="1" fill="none" fill-rule="evenodd">
        <g id="Main_desktop_pro_v2" transform="translate(-361.000000, -507.000000)">
            <g id="slider1" transform="translate(0.000000, 52.000000)">
                <g id="time_icon_w" transform="translate(361.000000, 455.000000)">
                    <g id="Group-3">
                        <mask id="mask-2" fill="white">
                            <use xlink:href="#path-1"></use>
                        </mask>
                        <use id="Clip-2" fill="#FFFFFF" xlink:href="#path-1"></use>
                    </g>
                    <g id="Group-32" transform="translate(9.457627, 10.508475)" fill="#FFFFFF" fill-rule="nonzero">
                        <path d="M12.7265255,35.4401905 C13.0085919,34.3999092 12.6456386,33.2833486 11.7815111,32.60474 C8.11595609,29.7384012 6.02240678,25.4899662 6.02240678,20.9358237 C6.02240678,12.6893553 12.9322963,5.96229831 21.4435932,5.96229831 C22.474329,5.96229831 23.501993,6.06036612 24.4957072,6.25377358 C25.9661672,6.54593014 27.4167837,5.60352543 27.7204237,4.13049512 C28.025975,2.64314364 27.0455224,1.21041271 25.5584136,0.921869224 C24.2156126,0.658505143 22.8310356,0.525213559 21.4435932,0.525213559 C15.8670357,0.525213559 10.6150015,2.64347845 6.66798994,6.48826525 C2.71054461,10.3398902 0.526474576,15.4753255 0.526474576,20.9358237 C0.526474576,27.1615895 3.38771505,32.9702762 8.36679761,36.8641304 C8.8522913,37.2483157 9.45435838,37.4530441 10.071322,37.4530441 C10.6153874,37.4530441 11.1435968,37.2921491 11.598035,36.9939992 L11.8385882,36.8361759 L12.6505445,35.7204141 L12.7265255,35.4401905 Z" id="Path"></path>
                        <path d="M17.1957997,35.3331429 L17.2104969,35.3371312 C18.6720441,35.7413365 19.5358082,37.2486592 19.1133088,38.7059026 C18.7710525,39.8853326 17.6814114,40.6730508 16.470878,40.6730508 C16.2257992,40.6730508 15.9819787,40.640021 15.7246519,40.5710939 C15.4791623,40.5020499 15.3421627,40.4624434 15.1942669,40.4166244 C13.7400482,39.9739285 12.9175278,38.4408375 13.3869192,36.9897642 C13.84918,35.5655011 15.3842688,34.7831744 16.8214508,35.2231331 C16.9934925,35.2762636 17.0956443,35.3064828 17.1957997,35.3331429 Z M24.8910694,35.5321078 L24.9011752,35.5298328 C26.365831,35.2051674 27.8388038,36.1047683 28.1821679,37.5684537 C28.527534,39.0457129 27.5867348,40.5033326 26.1004705,40.8357899 C25.9075131,40.8777371 25.7307494,40.9145743 25.5890369,40.9421616 C25.4008538,40.9823073 25.2166626,40.9999695 25.0289797,40.9999695 C23.7366601,40.9999695 22.5981407,40.1028658 22.3346029,38.8199632 C22.0325923,37.3325612 23.0119449,35.9025672 24.4779644,35.6192284 L24.5702611,35.6001328 C24.6587377,35.5819642 24.6587377,35.5819642 24.7408001,35.5648676 C24.8195015,35.5481671 24.8468562,35.5422136 24.8910694,35.5321078 Z M31.695132,32.1189597 L31.713864,32.1189597 L31.713864,32.1024554 C32.8416278,31.1245688 34.5611587,31.2201819 35.5642752,32.3214167 C36.596051,33.4463039 36.4934105,35.1872759 35.3352579,36.1946639 C35.1896075,36.3200187 35.0527679,36.4355721 34.921654,36.543607 C34.4217796,36.9569646 33.7976935,37.1741492 33.1605424,37.1741492 C32.3658437,37.1741492 31.5978075,36.8344787 31.0778294,36.2289445 C30.0718395,35.0767204 30.2243772,33.3335448 31.3947873,32.3744396 L31.4800131,32.3032943 C31.5771073,32.2221054 31.6393135,32.1689305 31.695132,32.1189597 Z M40.5683728,13.4414891 C40.7290541,13.8437622 40.8794694,14.2595374 41.0132062,14.6709725 C41.3256954,15.629036 41.5676839,16.6188978 41.7328919,17.6136022 L41.759552,17.7763728 C41.9878318,19.258937 40.9650778,20.6356036 39.538739,20.8712712 L39.4595505,20.8855352 C37.9701308,21.1154292 36.5611938,20.1166018 36.329014,18.6358996 L36.3082969,18.5095183 C36.1892065,17.7883601 36.0119008,17.0638439 35.7802669,16.3526538 C35.6873634,16.0649235 35.5778503,15.7628102 35.4561322,15.4560279 C34.8929414,14.0467882 35.6059657,12.4628059 37.0235333,11.9145541 C38.4250257,11.3768287 40.009931,12.0466354 40.5683728,13.4414891 Z M34.4284799,11.8349183 C33.4319817,11.994358 32.4136817,11.6062788 31.7938809,10.7871945 C31.1333915,9.91440997 30.3653315,9.10737526 29.5142434,8.3895506 C28.342033,7.40892728 28.2178377,5.66390386 29.23142,4.5251935 C30.2221877,3.40721614 31.9339313,3.2772198 33.0803987,4.23877691 C34.2419294,5.21678805 35.2884113,6.31738344 36.1946721,7.51438222 C37.1190624,8.72922301 36.8478729,10.4509249 35.6223781,11.3385629 C35.2662593,11.6002011 34.8552724,11.7667326 34.4284799,11.8349183 Z M36.3900781,25.0028377 C36.7738191,23.5941686 38.2317953,22.7696638 39.6451054,23.1343672 C41.0721065,23.5017967 41.9375391,24.9511279 41.5517648,26.3738245 C41.3483892,27.1240543 41.0957954,27.873835 40.7993923,28.6090891 C40.728497,28.7838542 40.6402726,28.950014 40.5346466,29.1051301 C40.5316393,29.1119822 40.5283244,29.1195345 40.5246401,29.1279287 C40.085677,30.0884555 39.1241861,30.6885492 38.0832373,30.6885492 C37.7214937,30.6885492 37.3599582,30.6145577 37.0201019,30.4689041 C35.6645505,29.8862336 35.0380779,28.318163 35.6489783,26.9550805 C35.6761342,26.8963886 35.7003545,26.8419955 35.7331301,26.7655787 C35.7902321,26.6370993 35.8570952,26.5150945 35.9323055,26.3991743 C36.1064314,25.9479896 36.2600583,25.4790021 36.3900781,25.0028377 Z" id="Stroke-22"></path>
                    </g>
                </g>
            </g>
        </g>
    </g>
</svg>