<?xml version="1.0" encoding="utf-8"?>
<!-- Generator: Adobe Illustrator 24.0.1, SVG Export Plug-In . SVG Version: 6.00 Build 0)  -->
<svg version="1.1" id="Layer_1" xmlns="http://www.w3.org/2000/svg" xmlns:xlink="http://www.w3.org/1999/xlink" x="0px" y="0px"
	 viewBox="0 0 63 63" style="enable-background:new 0 0 63 63;" xml:space="preserve">
<style type="text/css">
	.st0{fill:none;}
	.st1{fill:#B0B0B0;}
</style>
<title>battery_light</title>
<desc>Created with Sketch.</desc>
<g>
	<path class="st0" d="M31.5,1.5c-16.6,0-30,13.4-30,30s13.4,30,30,30s30-13.4,30-30S48.1,1.5,31.5,1.5z M40,47c0,2.2-1.7,4-3.9,4
		H25.9c-2.1,0-3.9-1.8-3.9-4V17c0-2.2,1.7-4,3.9-4H27v-0.1c0-0.5,0.5-0.9,1-0.9H34c0.6,0,1,0.4,1,0.9V13h1.1c2.1,0,3.9,1.8,3.9,4V47
		z"/>
	<path class="st0" d="M36.1,14.2h-2.1v-0.3c0-0.1,0-0.3-0.1-0.4c-0.2-0.2-0.4-0.3-0.7-0.3h-4.5c-0.4,0-0.7,0.2-0.8,0.5
		c0,0.1,0,0.2,0,0.2v0.3h-2.1c-1.5,0-2.7,1.3-2.7,2.8v30c0,1.5,1.2,2.8,2.7,2.8h10.3c1.5,0,2.7-1.3,2.7-2.8V17
		C38.8,15.4,37.6,14.2,36.1,14.2z M36.3,45.7h-9.6c-0.4,0-0.7-0.3-0.7-0.7s0.3-0.7,0.7-0.7h9.6c0.4,0,0.7,0.3,0.7,0.7
		S36.7,45.7,36.3,45.7z M36.3,40.7h-9.6c-0.4,0-0.7-0.3-0.7-0.7s0.3-0.7,0.7-0.7h9.6c0.4,0,0.7,0.3,0.7,0.7S36.7,40.7,36.3,40.7z
		 M36.3,35.7h-9.6c-0.4,0-0.7-0.3-0.7-0.7s0.3-0.7,0.7-0.7h9.6c0.4,0,0.7,0.3,0.7,0.7S36.7,35.7,36.3,35.7z M36.3,30.7h-9.6
		c-0.4,0-0.7-0.3-0.7-0.7s0.3-0.7,0.7-0.7h9.6c0.4,0,0.7,0.3,0.7,0.7S36.7,30.7,36.3,30.7z M36.3,25.7h-9.6c-0.4,0-0.7-0.3-0.7-0.7
		s0.3-0.7,0.7-0.7h9.6c0.4,0,0.7,0.3,0.7,0.7S36.7,25.7,36.3,25.7z M36.3,20.7h-9.6c-0.4,0-0.7-0.3-0.7-0.7s0.3-0.7,0.7-0.7h9.6
		c0.4,0,0.7,0.3,0.7,0.7S36.7,20.7,36.3,20.7z"/>
	<path class="st1" d="M31.5,0C14.1,0,0,14.1,0,31.5S14.1,63,31.5,63S63,48.9,63,31.5S48.9,0,31.5,0z M31.5,61.5
		c-16.6,0-30-13.4-30-30s13.4-30,30-30s30,13.4,30,30S48.1,61.5,31.5,61.5z"/>
	<path class="st1" d="M36.3,39.3h-9.6c-0.4,0-0.7,0.3-0.7,0.7s0.3,0.7,0.7,0.7h9.6c0.4,0,0.7-0.3,0.7-0.7S36.7,39.3,36.3,39.3z"/>
	<path class="st1" d="M36.1,13H35v-0.1c0-0.5-0.5-0.9-1-0.9H28c-0.6,0-1,0.4-1,0.9V13h-1.1c-2.1,0-3.9,1.8-3.9,4v30
		c0,2.2,1.7,4,3.9,4h10.3c2.1,0,3.9-1.8,3.9-4V17C40,14.8,38.3,13,36.1,13z M38.8,47c0,1.5-1.2,2.8-2.7,2.8H25.9
		c-1.5,0-2.7-1.3-2.7-2.8V17c0-1.5,1.2-2.8,2.7-2.8h2.1v-0.3c0-0.1,0-0.2,0-0.2c0.1-0.3,0.5-0.5,0.8-0.5h4.5c0.3,0,0.6,0.1,0.7,0.3
		c0,0.1,0.1,0.2,0.1,0.4v0.3h2.1c1.5,0,2.7,1.3,2.7,2.8V47z"/>
	<path class="st1" d="M36.3,44.3h-9.6c-0.4,0-0.7,0.3-0.7,0.7s0.3,0.7,0.7,0.7h9.6c0.4,0,0.7-0.3,0.7-0.7S36.7,44.3,36.3,44.3z"/>
	<path class="st1" d="M36.3,34.3h-9.6c-0.4,0-0.7,0.3-0.7,0.7s0.3,0.7,0.7,0.7h9.6c0.4,0,0.7-0.3,0.7-0.7S36.7,34.3,36.3,34.3z"/>
	<path class="st1" d="M36.3,19.3h-9.6c-0.4,0-0.7,0.3-0.7,0.7s0.3,0.7,0.7,0.7h9.6c0.4,0,0.7-0.3,0.7-0.7S36.7,19.3,36.3,19.3z"/>
	<path class="st1" d="M36.3,24.3h-9.6c-0.4,0-0.7,0.3-0.7,0.7s0.3,0.7,0.7,0.7h9.6c0.4,0,0.7-0.3,0.7-0.7S36.7,24.3,36.3,24.3z"/>
	<path class="st1" d="M36.3,29.3h-9.6c-0.4,0-0.7,0.3-0.7,0.7s0.3,0.7,0.7,0.7h9.6c0.4,0,0.7-0.3,0.7-0.7S36.7,29.3,36.3,29.3z"/>
</g>
</svg>
