<?xml version="1.0" encoding="UTF-8"?>
<svg width="62px" height="62px" viewBox="0 0 62 62" version="1.1" xmlns="http://www.w3.org/2000/svg" xmlns:xlink="http://www.w3.org/1999/xlink">
    <!-- Generator: Sketch 55.2 (78181) - https://sketchapp.com -->
    <title>boost_icon_w</title>
    <desc>Created with Sketch.</desc>
    <defs>
        <path d="M0,31 C0,48.1204068 13.8785424,62 31,62 L31,62 C48.1204068,62 61.9989492,48.1204068 61.9989492,31 L61.9989492,31 C61.9989492,13.8795932 48.1204068,0 31,0 L31,0 C13.8785424,0 0,13.8795932 0,31 L0,31 Z M1.33352542,31 C1.33352542,14.6099322 14.6172881,1.32722034 31,1.32722034 L31,1.32722034 C47.3827119,1.32722034 60.6675254,14.6099322 60.6675254,31 L60.6675254,31 C60.6675254,47.3900678 47.3827119,60.6738305 31,60.6738305 L31,60.6738305 C14.6172881,60.6738305 1.33352542,47.3900678 1.33352542,31 L1.33352542,31 Z" id="path-1"></path>
    </defs>
    <g id="Page-1" stroke="none" stroke-width="1" fill="none" fill-rule="evenodd">
        <g id="Main_desktop_pro_v2" transform="translate(-361.000000, -425.000000)">
            <g id="slider1" transform="translate(0.000000, 52.000000)">
                <g id="boost_icon_w" transform="translate(361.000000, 373.000000)">
                    <g id="time_icon_1">
                        <mask id="mask-2" fill="white">
                            <use xlink:href="#path-1"></use>
                        </mask>
                        <use id="Clip-2" fill="#FFFFFF" xlink:href="#path-1"></use>
                    </g>
                    <path d="M9.092,35 L9.092,25.9 L13.317,25.9 C14.3656719,25.9 15.158664,26.168664 15.696,26.706 C16.1120021,27.1220021 16.32,27.6463302 16.32,28.279 C16.32,29.1370043 15.9213373,29.7913311 15.124,30.242 C15.6873362,30.4586678 16.1119986,30.7424982 16.398,31.0935 C16.6840014,31.4445018 16.827,31.9146637 16.827,32.504 C16.827,33.3186707 16.5236697,33.9383312 15.917,34.363 C15.3103303,34.7876688 14.4783386,35 13.421,35 L9.092,35 Z M11.042,29.579 L12.888,29.579 C13.8500048,29.579 14.331,29.24967 14.331,28.591 C14.331,28.2876652 14.2183345,28.0558341 13.993,27.8955 C13.7676655,27.7351659 13.4426688,27.655 13.018,27.655 L11.042,27.655 L11.042,29.579 Z M11.042,33.245 L13.421,33.245 C14.3656714,33.245 14.838,32.9070034 14.838,32.231 C14.838,31.57233 14.3440049,31.243 13.356,31.243 L11.042,31.243 L11.042,33.245 Z M26.356,33.791 C25.4373287,34.7010046 24.2846736,35.156 22.898,35.156 C21.5113264,35.156 20.3608379,34.7010046 19.4465,33.791 C18.5321621,32.8809955 18.075,31.7673399 18.075,30.45 C18.075,29.1413268 18.5364954,28.0298379 19.4595,27.1155 C20.3825046,26.2011621 21.5373264,25.744 22.924,25.744 C24.3106736,25.744 25.4611621,26.1989955 26.3755,27.109 C27.2898379,28.0190046 27.747,29.1326601 27.747,30.45 C27.747,31.7586732 27.283338,32.8723287 26.356,33.791 Z M20.948,32.478 C21.4680026,33.0326694 22.1266627,33.31 22.924,33.31 C23.7213373,33.31 24.3756641,33.0348361 24.887,32.4845 C25.3983359,31.9341639 25.654,31.256004 25.654,30.45 C25.654,29.6526627 25.3940026,28.9766694 24.874,28.422 C24.3539974,27.8673306 23.6953373,27.59 22.898,27.59 C22.1006627,27.59 21.4463359,27.8651639 20.935,28.4155 C20.4236641,28.9658361 20.168,29.643996 20.168,30.45 C20.168,31.2473373 20.4279974,31.9233306 20.948,32.478 Z M37.406,33.791 C36.4873287,34.7010046 35.3346736,35.156 33.948,35.156 C32.5613264,35.156 31.4108379,34.7010046 30.4965,33.791 C29.5821621,32.8809955 29.125,31.7673399 29.125,30.45 C29.125,29.1413268 29.5864954,28.0298379 30.5095,27.1155 C31.4325046,26.2011621 32.5873264,25.744 33.974,25.744 C35.3606736,25.744 36.5111621,26.1989955 37.4255,27.109 C38.3398379,28.0190046 38.797,29.1326601 38.797,30.45 C38.797,31.7586732 38.333338,32.8723287 37.406,33.791 Z M31.998,32.478 C32.5180026,33.0326694 33.1766627,33.31 33.974,33.31 C34.7713373,33.31 35.4256641,33.0348361 35.937,32.4845 C36.4483359,31.9341639 36.704,31.256004 36.704,30.45 C36.704,29.6526627 36.4440026,28.9766694 35.924,28.422 C35.4039974,27.8673306 34.7453373,27.59 33.948,27.59 C33.1506627,27.59 32.4963359,27.8651639 31.985,28.4155 C31.4736641,28.9658361 31.218,29.643996 31.218,30.45 C31.218,31.2473373 31.4779974,31.9233306 31.998,32.478 Z M43.75,35.13 C42.2593259,35.13 40.9723388,34.6446715 39.889,33.674 L41.072,32.257 C41.9646711,32.9936704 42.8703287,33.362 43.789,33.362 C44.1963354,33.362 44.5169988,33.2840008 44.751,33.128 C44.9850012,32.9719992 45.102,32.7553347 45.102,32.478 C45.102,32.2179987 44.9806679,32.0078341 44.738,31.8475 C44.4953321,31.6871659 44.0056704,31.5116676 43.269,31.321 C42.7489974,31.1909994 42.3286683,31.0631673 42.008,30.9375 C41.6873317,30.8118327 41.3818348,30.645001 41.0915,30.437 C40.8011652,30.228999 40.588834,29.9668349 40.4545,29.6505 C40.320166,29.3341651 40.253,28.9550022 40.253,28.513 C40.253,27.6896626 40.5498304,27.0266692 41.1435,26.524 C41.7371696,26.0213308 42.5019953,25.77 43.438,25.77 C44.7293398,25.77 45.8559952,26.1556628 46.818,26.927 L45.778,28.435 C44.9199957,27.836997 44.1313369,27.538 43.412,27.538 C43.0393315,27.538 42.7511677,27.6138326 42.5475,27.7655 C42.3438323,27.9171674 42.242,28.1143321 42.242,28.357 C42.242,28.6516681 42.3676654,28.8726659 42.619,29.02 C42.8703346,29.1673341 43.398996,29.344999 44.205,29.553 C45.1930049,29.8130013 45.9209977,30.1466646 46.389,30.554 C46.8570023,30.9613354 47.091,31.5463295 47.091,32.309 C47.091,33.1930044 46.7855031,33.8841642 46.1745,34.3825 C45.5634969,34.8808358 44.7553384,35.13 43.75,35.13 Z M50.757,35 L50.757,27.746 L47.988,27.746 L47.988,25.9 L55.528,25.9 L55.528,27.746 L52.759,27.746 L52.759,35 L50.757,35 Z" id="boost1" fill="#FFFFFF" fill-rule="nonzero"></path>
                </g>
            </g>
        </g>
    </g>
</svg>