<?xml version="1.0" encoding="utf-8"?>
<!-- Generator: Adobe Illustrator 24.0.1, SVG Export Plug-In . SVG Version: 6.00 Build 0)  -->
<svg version="1.1" id="Layer_1" xmlns="http://www.w3.org/2000/svg" xmlns:xlink="http://www.w3.org/1999/xlink" x="0px" y="0px"
	 viewBox="0 0 62 62" style="enable-background:new 0 0 62 62;" xml:space="preserve">
<style type="text/css">
	.st0{fill:none;}
	.st1{fill:#B0B0B0;}
</style>
<g>
	<path class="st0" d="M31,1.4C14.7,1.4,1.4,14.7,1.4,31S14.7,60.6,31,60.6c16.3,0,29.6-13.3,29.6-29.6S47.3,1.4,31,1.4z M31,13.2
		c0,0,0.1,0,0.1,0c0,0,0.1,0,0.1,0c5.4,0,9.9,4.5,9.9,10.1c0,3.7-2,6.9-4.9,8.7c-0.1,0-0.1,0-0.2,0c-0.1,0-0.3,0-0.4,0
		c-0.1,0-0.1,0-0.2,0c-0.3-0.4-0.6-0.6-0.9-0.9c2.9-1.4,4.9-4.4,4.9-7.8c0-4.8-3.7-8.6-8.4-8.7c-4.7,0.1-8.4,3.9-8.4,8.7
		c0,2.7,1.2,5.1,3.1,6.7v1.8c-0.1,0-0.1-0.1-0.2-0.1v0.1c-2.8-1.8-4.6-4.9-4.6-8.5C21.1,17.7,25.5,13.2,31,13.2z M42.1,43.3
		c0,1.2-0.8,2.4-1.3,3s-2.6,2.6-6.4,2.6c-3.7,0-6.1-2.1-7-3.1c-0.3-0.3-0.8-1.3-1-1.6l-5.8-8c-0.9-1-0.8-2.6,0.2-3.5
		c0.2-0.2,0.5-0.4,0.8-0.5c0.9-0.3,2-0.1,2.7,0.7l2.4,3.2v-9.9c0-1.3,0.9-2.3,2.1-2.5c0.2,0,0.4,0,0.5,0c0.5,0,1.1,0.2,1.5,0.6
		c0.6,0.5,0.9,1.2,0.9,1.9v5.6c0.4-0.2,0.8-0.3,1.3-0.2c1,0.1,1.7,0.8,2,1.6c0.5-0.2,1-0.3,1.5-0.2c0.3,0,0.6,0.2,0.9,0.3
		c0.5,0.3,0.8,0.6,1,1.2c0.2-0.2,0.5-0.3,0.8-0.3c0.7-0.1,1.5,0.1,2,0.6c0.6,0.5,0.9,1.2,0.9,1.9V43.3z"/>
	<path class="st0" d="M28.8,23.7c-1.2,0.2-2.1,1.2-2.1,2.5C26.7,25,27.6,23.9,28.8,23.7z"/>
	<path class="st0" d="M36.5,33c0.3,0.1,0.6,0.2,0.9,0.3C37.1,33.2,36.8,33,36.5,33z"/>
	<path class="st0" d="M36.3,34.6c0.5,0.1,0.8,0.5,0.8,1v3.3h1.6v-0.2h-1.4v-3.3c0-0.5-0.3-0.9-0.8-1c-0.2,0-0.5,0-0.7,0.2
		c-0.2,0.1-0.3,0.2-0.3,0.4c0-0.1,0.1-0.1,0.1-0.2C35.8,34.6,36,34.6,36.3,34.6z"/>
	<path class="st0" d="M33.6,34.2v3h1.6V37h-1.4v-3c0-0.5-0.3-0.9-0.8-1c-0.2,0-0.5,0-0.7,0.2c-0.1,0.1-0.1,0.1-0.2,0.2
		c0.2-0.2,0.4-0.2,0.7-0.2C33.3,33.3,33.6,33.7,33.6,34.2z"/>
	<path class="st0" d="M34.7,31.1c2.9-1.4,4.9-4.3,4.9-7.8c0-4.8-3.8-8.7-8.5-8.7c0,0-0.1,0-0.1,0c4.7,0.1,8.4,3.9,8.4,8.7
		c0,3.4-2,6.4-4.9,7.8c0.3,0.3,0.6,0.5,0.9,0.9c0.1,0,0.1,0,0.2,0C35.4,31.6,35.1,31.3,34.7,31.1z"/>
	<path class="st0" d="M25.5,31.8v-0.1c-2.7-1.8-4.4-4.9-4.2-8.4c0-5.6,4.4-10,9.8-10.1c0,0-0.1,0-0.1,0c-5.5,0-9.9,4.5-10.1,10.1
		C20.9,26.9,22.7,30,25.5,31.8z"/>
	<path class="st0" d="M34.4,48.9c-3.7,0-6.1-2.2-7-3.1C28.3,46.8,30.7,48.9,34.4,48.9z"/>
	<path class="st0" d="M29.3,23.7c0.5,0,1,0.2,1.5,0.6C30.4,23.9,29.9,23.7,29.3,23.7z"/>
	<path class="st0" d="M39.7,35.5c-0.3,0.1-0.5,0.2-0.6,0.4c0.1-0.1,0.2-0.2,0.4-0.2c0.2,0,0.5,0.1,0.6,0.4c0.2,0.2,0.3,0.4,0.3,0.7
		v6.6c0,0.5-0.4,1.4-0.9,1.9c-0.2,0.2-0.7,0.8-1.5,1.2c0.9-0.5,1.5-1,1.7-1.3c0.4-0.5,0.9-1.4,0.9-1.9h0.2v-6.9
		c0-0.3-0.1-0.5-0.3-0.7C40.3,35.5,40,35.5,39.7,35.5z"/>
	<path class="st0" d="M23,34.1l5.2,6.8v-0.4l-5-6.5c-0.2-0.2-0.5-0.3-0.7-0.3c-0.2,0-0.4,0-0.6,0.2c0.1,0,0.3-0.1,0.4-0.1
		C22.6,33.8,22.8,33.9,23,34.1z"/>
	<path class="st0" d="M29.8,25.6c0.2,0.2,0.3,0.4,0.3,0.7v9.5h1.6c0,0,0-0.1,0-0.2h-1.4v-9.5c0-0.3-0.1-0.5-0.3-0.7
		c-0.2-0.2-0.5-0.2-0.8-0.2c-0.3,0.1-0.5,0.2-0.6,0.4c0.1-0.1,0.2-0.2,0.4-0.2C29.3,25.3,29.6,25.4,29.8,25.6z"/>
	<path class="st0" d="M39.5,45.3c0.5-0.5,0.9-1.4,0.9-1.9v-6.6c0-0.3-0.1-0.5-0.3-0.7c-0.1-0.3-0.4-0.4-0.6-0.4
		c-0.2,0-0.3,0.1-0.4,0.2c-0.1,0.2-0.2,0.4-0.2,0.6v2.2h-0.2v0.2h-1.6v-3.3c0-0.5-0.3-0.9-0.8-1c-0.3,0-0.5,0-0.7,0.2
		c-0.1,0.1-0.1,0.1-0.1,0.2c0,0.1-0.1,0.2-0.1,0.3c0,0.1,0,1.1,0,1.5V37h-0.2v0.2h-1.6v-3c0-0.5-0.3-0.9-0.8-1c-0.3,0-0.5,0-0.7,0.2
		c-0.1,0.1-0.2,0.3-0.2,0.5v1.7h-0.2c0,0.1,0,0.2,0,0.2h-1.6v-9.5c0-0.3-0.1-0.5-0.3-0.7c-0.2-0.2-0.5-0.3-0.8-0.2
		c-0.2,0-0.3,0.1-0.4,0.2c-0.1,0.2-0.2,0.4-0.2,0.6v14.6l-0.2-0.3v0.4L23,34.1c-0.2-0.2-0.4-0.3-0.7-0.3c-0.1,0-0.2,0-0.4,0.1
		c0,0,0,0,0,0c-0.4,0.3-0.4,0.9-0.1,1.3l6,8.2c0.3,0.6,0.7,1.2,0.8,1.3c0.8,0.8,2.8,2.6,5.9,2.6c1.5,0,2.6-0.4,3.5-0.8
		C38.8,46.1,39.3,45.5,39.5,45.3z"/>
	<path class="st1" d="M22.4,23.3c0,2.7,1.2,5.1,3.1,6.7v1.7c0.1,0,0.1,0.1,0.2,0.1V30c-1.9-1.6-3.1-4-3.1-6.7c0-4.8,3.7-8.6,8.4-8.7
		c0,0-0.1,0-0.1,0C26.2,14.6,22.4,18.5,22.4,23.3z"/>
	<path class="st1" d="M40.9,23.3c0,3.7-2,6.9-4.9,8.7c0.1,0,0.1,0,0.2,0c2.9-1.8,4.9-5,4.9-8.7c0-5.6-4.5-10.1-9.9-10.1
		c0,0-0.1,0-0.1,0C36.6,13.3,40.9,17.7,40.9,23.3z"/>
	<path class="st1" d="M21.3,23.3c-0.2,3.4,1.5,6.5,4.2,8.4V30c-1.9-1.6-3.1-4-3.1-6.7c0-4.8,3.8-8.7,8.5-8.7c0,0,0.1,0,0.1,0
		c0,0,0.1,0,0.1,0c4.7,0,8.5,3.9,8.5,8.7c0,3.5-2,6.4-4.9,7.8c0.4,0.2,0.7,0.5,0.9,0.9c0.1,0,0.3,0,0.4,0c2.9-1.8,4.9-5,4.9-8.7
		c0-5.6-4.3-10-9.8-10.1C25.7,13.3,21.3,17.7,21.3,23.3z"/>
	<path class="st1" d="M28.8,23.7c0.2,0,0.3,0,0.5,0C29.2,23.7,29,23.7,28.8,23.7z"/>
	<path class="st1" d="M31.7,31.8c0.4-0.2,0.9-0.2,1.3-0.2C32.5,31.5,32.1,31.6,31.7,31.8z"/>
	<path class="st1" d="M38.4,34.5c0.2-0.1,0.5-0.2,0.8-0.3C38.9,34.2,38.6,34.3,38.4,34.5z"/>
	<path class="st1" d="M35,33.2c-0.3-0.8-1-1.5-2-1.6C33.9,31.7,34.6,32.4,35,33.2z"/>
	<path class="st1" d="M24.3,32.9l2.4,3.2L24.3,32.9c-0.7-0.8-1.7-1-2.7-0.7C22.6,31.9,23.6,32.2,24.3,32.9z"/>
	<path class="st1" d="M42.1,43.3c0,1.1-0.8,2.4-1.3,3C41.3,45.7,42.1,44.5,42.1,43.3z"/>
	<path class="st1" d="M38.4,34.5c-0.2-0.5-0.6-0.9-1-1.2C37.8,33.6,38.2,34,38.4,34.5z"/>
	<path class="st1" d="M39.2,34.2c-0.3,0.1-0.6,0.2-0.8,0.3c-0.2-0.5-0.6-0.9-1-1.2c-0.3-0.2-0.6-0.3-0.9-0.3c-0.5-0.1-1,0-1.5,0.2
		c-0.4-0.8-1.1-1.5-2-1.6c-0.4,0-0.9,0-1.3,0.2v-5.6c0-0.7-0.3-1.4-0.9-1.9c-0.4-0.4-1-0.6-1.5-0.6c-0.2,0-0.4,0-0.5,0
		c-1.2,0.2-2.1,1.3-2.1,2.5v9.9l-2.4-3.2c-0.7-0.8-1.7-1-2.7-0.7c-0.3,0.1-0.6,0.3-0.8,0.5c-1,0.9-1.1,2.5-0.2,3.5l5.8,8
		c0.2,0.3,0.7,1.3,1,1.6c0.9,0.9,3.3,3.1,7,3.1c3.8,0,5.9-2,6.4-2.6s1.3-1.9,1.3-3v-6.6c0-0.7-0.3-1.4-0.9-1.9
		C40.7,34.3,39.9,34.1,39.2,34.2z M40.8,43.3h-0.2c0,0.5-0.5,1.4-0.9,1.9c-0.2,0.3-0.8,0.8-1.7,1.3c-0.9,0.5-2.1,0.9-3.7,0.9
		c-3.1,0-5.2-1.8-5.9-2.6c-0.1-0.1-0.5-0.7-0.8-1.3l-6-8.2c-0.3-0.4-0.3-1,0.1-1.3c0,0,0.1-0.1,0.2-0.1c0.2-0.2,0.4-0.2,0.6-0.2
		c0.2,0,0.5,0.1,0.7,0.3l5,6.5V26.4c0-0.3,0.1-0.6,0.4-0.8c0.1-0.2,0.3-0.3,0.6-0.4c0.3,0,0.6,0,0.8,0.2c0.2,0.2,0.3,0.4,0.3,0.7
		v9.5h1.4c0-0.4,0-1.4,0-1.5c0.1-0.3,0.2-0.5,0.4-0.7c0,0,0,0,0,0c0.1-0.1,0.1-0.1,0.2-0.2C32.5,33,32.8,33,33,33
		c0.5,0.1,0.8,0.5,0.8,1v3h1.4c0-0.5,0-1.4,0-1.5c0.1-0.2,0.2-0.4,0.3-0.5c0.1-0.1,0.2-0.3,0.3-0.4c0.2-0.2,0.5-0.2,0.7-0.2
		c0.5,0.1,0.8,0.5,0.8,1v3.3h1.4v-2c0-0.3,0.1-0.6,0.4-0.8c0.1-0.2,0.3-0.3,0.6-0.4c0.3,0,0.6,0,0.8,0.2c0.2,0.2,0.3,0.4,0.3,0.7
		V43.3z"/>
	<path class="st1" d="M35.4,36.8c0-0.4,0-1.4,0-1.5c0-0.1,0-0.2,0.1-0.3c-0.1,0.1-0.2,0.3-0.3,0.5c0,0.1,0,1,0,1.5h0.2V36.8z"/>
	<path class="st1" d="M31.9,33.9c0-0.2,0.1-0.4,0.2-0.5c0,0,0,0,0,0c-0.2,0.2-0.3,0.4-0.4,0.7c0,0.1,0,1.1,0,1.5h0.2V33.9z"/>
	<path class="st1" d="M28.4,26.2c0-0.2,0.1-0.4,0.2-0.6c-0.2,0.2-0.4,0.5-0.4,0.8v14.1l0.2,0.3V26.2z"/>
	<path class="st1" d="M38.9,36.5c0-0.2,0.1-0.4,0.2-0.6c-0.2,0.2-0.4,0.5-0.4,0.8v2h0.2V36.5z"/>
	<path class="st1" d="M28.6,44.7c-0.1-0.1-0.5-0.7-0.8-1.3l-6-8.2c-0.3-0.4-0.3-1,0.1-1.3c0,0,0,0,0,0c-0.1,0-0.2,0.1-0.2,0.1
		c-0.4,0.3-0.4,0.9-0.1,1.3l6,8.2c0.3,0.6,0.7,1.2,0.8,1.3c0.7,0.8,2.8,2.6,5.9,2.6c1.6,0,2.8-0.4,3.7-0.9c-0.9,0.4-2,0.8-3.5,0.8
		C31.4,47.3,29.4,45.5,28.6,44.7z"/>
	<path class="st1" d="M31,0C13.9,0,0,13.9,0,31s13.9,31,31,31c17.1,0,31-13.9,31-31S48.1,0,31,0z M31,60.6
		C14.7,60.6,1.4,47.3,1.4,31S14.7,1.4,31,1.4c16.3,0,29.6,13.3,29.6,29.6S47.3,60.6,31,60.6z"/>
</g>
</svg>
