<svg xmlns="http://www.w3.org/2000/svg" width="26" height="26" viewBox="0 0 26 26">
    <path fill="#FFF" fill-rule="evenodd" d="M13 0c3.53 0 3.973.015 5.36.078 1.384.063 2.329.283 3.155.605.855.332 1.58.776 2.303 1.499a6.373 6.373 0 0 1 1.5 2.303c.32.826.54 1.771.604 3.155C25.985 9.027 26 9.47 26 13c0 3.53-.015 3.973-.078 5.36-.063 1.384-.283 2.329-.604 3.155a6.373 6.373 0 0 1-1.5 2.303 6.373 6.373 0 0 1-2.303 1.5c-.826.32-1.771.54-3.155.604-1.387.063-1.83.078-5.36.078-3.53 0-3.973-.015-5.36-.078-1.384-.063-2.329-.283-3.155-.604a6.373 6.373 0 0 1-2.303-1.5 6.372 6.372 0 0 1-1.5-2.303c-.32-.826-.54-1.771-.604-3.155C.015 16.973 0 16.53 0 13c0-3.53.015-3.973.078-5.36.063-1.384.283-2.329.605-3.155a6.372 6.372 0 0 1 1.499-2.303 6.372 6.372 0 0 1 2.303-1.5C5.31.363 6.256.143 7.64.079 9.027.015 9.47 0 13 0zm0 2.342c-3.471 0-3.882.014-5.253.076-1.268.058-1.956.27-2.414.448a4.027 4.027 0 0 0-1.495.972 4.027 4.027 0 0 0-.972 1.495c-.178.458-.39 1.146-.448 2.414-.062 1.37-.076 1.782-.076 5.253s.014 3.882.076 5.253c.058 1.268.27 1.956.448 2.414.236.607.517 1.04.972 1.495.455.455.888.736 1.495.972.458.178 1.146.39 2.414.448 1.37.062 1.782.076 5.253.076s3.883-.014 5.253-.076c1.268-.058 1.956-.27 2.414-.448a4.027 4.027 0 0 0 1.495-.972c.455-.455.736-.888.972-1.495.178-.458.39-1.146.448-2.414.062-1.37.076-1.782.076-5.253s-.014-3.882-.076-5.253c-.058-1.268-.27-1.956-.448-2.414a4.027 4.027 0 0 0-.972-1.495 4.027 4.027 0 0 0-1.495-.972c-.458-.178-1.146-.39-2.414-.448-1.37-.062-1.782-.076-5.253-.076zm0 3.982a6.676 6.676 0 1 1 0 13.352 6.676 6.676 0 0 1 0-13.352zm0 11.01a4.333 4.333 0 1 0 0-8.667 4.333 4.333 0 0 0 0 8.666zM21.5 6.06a1.56 1.56 0 1 1-3.12 0 1.56 1.56 0 0 1 3.12 0z"/>
</svg>
