<?xml version="1.0" encoding="UTF-8"?>
<svg width="62px" height="62px" viewBox="0 0 62 62" version="1.1" xmlns="http://www.w3.org/2000/svg" xmlns:xlink="http://www.w3.org/1999/xlink">
    <!-- Generator: Sketch 55.2 (78181) - https://sketchapp.com -->
    <title>icon_social-viber</title>
    <desc>Created with Sketch.</desc>
    <g id="Кабинет" stroke="none" stroke-width="1" fill="none" fill-rule="evenodd">
        <g id="Account_Icons_2" transform="translate(-1103.000000, -509.000000)" fill-rule="nonzero">
            <g id="Group-4" transform="translate(924.000000, 510.000000)">
                <g id="icon_social-viber" transform="translate(180.000000, 0.000000)">
                    <circle id="Oval" stroke="#2A2C2C" cx="30" cy="30" r="30"></circle>
                    <path d="M29.8160244,16.2130959 C30.0322561,16.0117072 30.1855151,15.9832668 30.9389119,16.0070953 C31.3341987,16.0209311 31.9092992,16.0670507 32.2249216,16.104715 C33.8166906,16.3061036 35.1042177,16.6950451 36.5138968,17.3914501 C37.9015734,18.0801686 38.790779,18.7304541 39.9660174,19.9149577 C41.065385,21.0333565 41.6769035,21.8804188 42.3248399,23.1955943 C43.2269435,25.0303834 43.7405887,27.2118377 43.8285988,29.6123597 C43.8604645,30.4317503 43.8377033,30.6154598 43.6533373,30.8475948 C43.3012969,31.3026409 42.5281736,31.2273123 42.2656607,30.7169227 C42.1806854,30.5485864 42.1571655,30.4033099 42.1306107,29.7468751 C42.0843295,28.7407004 42.0152871,28.0911836 41.8756849,27.3133006 C41.3294153,24.267105 39.8871117,21.8335306 37.5829161,20.087906 C35.661868,18.6289912 33.6778471,17.9156756 31.0785141,17.7627125 C30.1984131,17.711981 30.0459128,17.6789286 29.8471314,17.5236595 C29.4776407,17.2277258 29.458673,16.5359327 29.8160244,16.2130959 Z M35.3303127,22.2409198 C34.4001369,21.6797988 33.0261171,21.2639542 31.7734905,21.1601853 C31.3182658,21.122521 31.0694096,21.0295132 30.8987004,20.8281246 C30.6346701,20.5237356 30.6073566,20.1117344 30.8288993,19.7696811 C31.0694096,19.3915009 31.4389003,19.3300082 32.5443376,19.4975758 C35.3530739,19.9149577 37.5282892,21.2347452 38.9523837,23.3785352 C39.7550966,24.5853298 40.2535676,26.0042744 40.4250356,27.5254505 C40.4834561,28.0827283 40.4834561,29.0973582 40.4182072,29.2656945 C40.3597867,29.4248069 40.1640401,29.6408001 39.9978831,29.7299646 C39.8180693,29.8229723 39.4326458,29.8137484 39.2202076,29.7015242 C38.8651323,29.5201207 38.7581545,29.2287989 38.7581545,28.4432294 C38.7581545,27.2302855 38.4486017,25.9527742 37.9121953,24.9619727 C37.3006768,23.827432 36.4129887,22.8927427 35.3303127,22.2409198 Z M36.8940095,28.480125 C36.6216334,28.7322452 36.116334,28.7414691 35.8105747,28.5039535 C35.5897907,28.3340798 35.5192309,28.1557509 35.4683975,27.675339 C35.4092183,27.0342774 35.2984469,26.5838432 35.1072526,26.1679987 C34.7005852,25.2840409 33.9836063,24.8243828 32.7711913,24.6744943 C32.2029191,24.605315 32.0306924,24.5392103 31.8463264,24.3186051 C31.5079428,23.9119845 31.6384405,23.2524751 32.1058045,23.0080415 C32.281066,22.9211831 32.353902,22.9104218 32.7438778,22.9342503 C32.9836294,22.9480861 33.3402221,22.9895937 33.5298991,23.03187 C34.4411071,23.2286467 35.1406357,23.5799238 35.7362213,24.1456569 C36.5055511,24.8812635 36.9266339,25.7698334 37.1117586,27.0473446 C37.2369454,27.8813397 37.1853533,28.2087884 36.8940095,28.480125 Z M43.8050788,40.7755945 C43.464419,41.6687763 42.1313694,43.344453 41.2011937,44.0600745 C40.3597867,44.7057481 39.761925,44.9532563 38.9743863,44.9924579 C38.3279672,45.0239729 38.0593846,44.9670921 37.2316344,44.6219642 C30.7355782,41.9124412 25.548293,37.8692948 21.430027,32.3126588 C19.2798491,29.4109711 17.6417989,26.4024397 16.5204288,23.2793782 C15.8702162,21.4599623 15.8383505,20.6690122 16.3739982,19.7366288 C16.6061628,19.3446127 17.5902068,18.3707217 18.3094618,17.8288171 C19.5029092,16.9294861 20.053731,16.5974254 20.4915054,16.5028803 C20.7934711,16.4367757 21.3154621,16.4890445 21.6485348,16.6112613 C21.8093809,16.6666047 22.0612719,16.7988141 22.2031502,16.8918218 C23.0832513,17.4821519 25.530084,20.6497957 26.329762,22.2316959 C26.7880215,23.1356389 26.9412805,23.8036036 26.797126,24.3001573 C26.6484193,24.832838 26.4025979,25.1141672 25.3077826,26.0088863 C24.8677321,26.3693874 24.454995,26.7383437 24.3912636,26.8375007 C24.2243478,27.080397 24.0900566,27.5585029 24.0900566,27.8944069 C24.0946088,28.6769017 24.595356,30.0935403 25.2516382,31.1850361 C25.7614898,32.0320983 26.6711805,33.1174448 27.5748015,33.9506712 C28.6339576,34.9337861 29.5679269,35.6032881 30.6240482,36.1321255 C31.9783416,36.8154633 32.8076092,36.9876429 33.4130581,36.7024705 C33.566317,36.6332911 33.7286805,36.5387461 33.7779965,36.4964698 C33.8242777,36.4541936 34.1801116,36.0145206 34.5700875,35.5279595 C35.3189321,34.573285 35.4911587,34.4187845 36.0040452,34.2412243 C36.6572926,34.0160072 37.3226794,34.0759626 37.9933771,34.4226278 C38.5032287,34.6901212 39.6132182,35.3880635 40.3294384,35.8923039 C41.2740296,36.5618059 43.2914337,38.2282586 43.5645685,38.5603193 C44.0471066,39.160642 44.1305645,39.9277637 43.8050788,40.7755945 Z" id="Shape" fill="#2A2C2C"></path>
                </g>
            </g>
        </g>
    </g>
</svg>