<?xml version="1.0" encoding="UTF-8"?>
<svg width="62px" height="62px" viewBox="0 0 62 62" version="1.1" xmlns="http://www.w3.org/2000/svg" xmlns:xlink="http://www.w3.org/1999/xlink">
    <!-- Generator: Sketch 55.2 (78181) - https://sketchapp.com -->
    <title>icon_social-telegram</title>
    <desc>Created with Sketch.</desc>
    <g id="Кабинет" stroke="none" stroke-width="1" fill="none" fill-rule="evenodd">
        <g id="Account_Icons_2" transform="translate(-1013.000000, -509.000000)">
            <g id="Group-4" transform="translate(924.000000, 510.000000)">
                <g id="icon_social-telegram" transform="translate(90.000000, 0.000000)">
                    <circle id="Oval" stroke="#2A2C2C" fill-rule="nonzero" cx="30" cy="30" r="30"></circle>
                    <path d="M28.6415294,39.7263209 C27.2996898,41.017415 25.9694644,42.2870929 24.6516276,43.566714 C24.1909267,44.0149256 23.6729286,44.2627422 23.0116874,44.2283233 C22.5602779,44.2046124 22.3078603,44.0088067 22.1692629,43.5858357 C21.1595924,40.4904222 20.1352105,37.4026574 19.13096,34.3041844 C19.0333998,34.003592 18.8893824,33.8575026 18.5812161,33.763424 C16.2026059,33.0459796 13.8286414,32.311708 11.4585484,31.5674932 C11.0938591,31.4527633 10.7260727,31.3028495 10.4109378,31.0909816 C9.92391117,30.7651486 9.85267675,30.2335666 10.2893747,29.8511335 C10.6927783,29.4985302 11.174385,29.1910539 11.6745745,28.9952482 C14.5820228,27.8571273 17.5049569,26.75572 20.4232453,25.6443694 C27.8293022,22.8197186 35.2353591,19.9973623 42.6421902,17.1727115 C44.0506186,16.6350106 45.1330721,17.3922281 44.9867318,18.8967199 C44.8930431,19.8589215 44.6406254,20.8058259 44.4369879,21.7557897 C42.8287934,29.2568324 41.2190504,36.75864 39.6023388,44.2581531 C39.2182923,46.0387615 37.9523328,46.5038002 36.4687985,45.4230443 C33.984111,43.6141357 31.5017463,41.7991082 29.0186073,39.9871402 C28.9001414,39.9022401 28.7770297,39.8203994 28.6415294,39.7263209 Z M23.0643389,42.0040924 C23.0922132,41.9964437 23.1200876,41.9887951 23.1479619,41.9819113 C23.1634476,41.9115436 23.185902,41.8427056 23.1920963,41.7731028 C23.3515994,40.0728053 23.520394,38.3732726 23.6589914,36.6699156 C23.6899629,36.2905419 23.8215918,36.021309 24.1104009,35.7658437 C26.4007423,33.7427727 28.6771467,31.7066989 30.9581967,29.6752142 C33.4831472,27.4257428 36.008872,25.1785659 38.524531,22.919916 C38.6801627,22.7807104 38.7452028,22.5436019 38.8520545,22.3508556 C38.6151226,22.325615 38.3611564,22.2315365 38.1459046,22.2866068 C37.8524497,22.3615637 37.5744806,22.5298343 37.3127716,22.6927508 C31.7402267,26.1598892 26.1723276,29.6331466 20.5959114,33.0934013 C20.2807765,33.289207 20.2219307,33.455183 20.3419452,33.7970782 C20.7530917,34.9634991 21.1270724,36.1406282 21.5149902,37.3154626 C22.0314398,38.8788491 22.5478893,40.4414708 23.0643389,42.0040924 Z" id="Shape" fill="#2A2C2C"></path>
                </g>
            </g>
        </g>
    </g>
</svg>