<svg width="24" height="24" viewBox="0 0 24 24" fill="none" xmlns="http://www.w3.org/2000/svg">
<path d="M12.1693 8.58808C13.0308 8.58808 13.7292 7.88968 13.7292 7.02817C13.7292 6.16666 13.0308 5.46826 12.1693 5.46826C11.3078 5.46826 10.6094 6.16666 10.6094 7.02817C10.6094 7.88968 11.3078 8.58808 12.1693 8.58808Z" fill="#2F2F2F" stroke="white"/>
<path d="M13.4673 11.3017V16.4432C13.4673 16.7874 13.3305 17.1175 13.0871 17.3609C12.8437 17.6043 12.5136 17.741 12.1694 17.741C11.8252 17.741 11.4951 17.6043 11.2517 17.3609C11.0083 17.1175 10.8716 16.7874 10.8716 16.4432V11.3017C10.8716 10.9575 11.0083 10.6274 11.2517 10.384C11.4951 10.1406 11.8252 10.0039 12.1694 10.0039C12.5136 10.0039 12.8437 10.1406 13.0871 10.384C13.3305 10.6274 13.4673 10.9575 13.4673 11.3017Z" fill="#2F2F2F" stroke="white"/>
<path d="M12.1693 0.364258C5.96663 0.364258 0.937988 5.3929 0.937988 11.5956C0.937988 17.7983 5.96663 22.8269 12.1693 22.8269C18.372 22.8269 23.4007 17.7983 23.4007 11.5956C23.4007 5.3929 18.372 0.364258 12.1693 0.364258ZM18.699 18.1252C17.8441 18.9948 16.8256 19.6864 15.7021 20.1602C14.5786 20.634 13.3723 20.8806 12.153 20.8858C10.9337 20.891 9.72541 20.6547 8.59789 20.1905C7.47038 19.7263 6.44597 19.0433 5.58376 18.1811C4.72156 17.3189 4.03865 16.2945 3.57443 15.167C3.11021 14.0395 2.87388 12.8312 2.87908 11.6119C2.88428 10.3926 3.1309 9.18635 3.60472 8.06283C4.07853 6.93932 4.77015 5.92076 5.63967 5.06594C6.49449 4.19642 7.51305 3.5048 8.63656 3.03098C9.76008 2.55717 10.9663 2.31055 12.1856 2.30535C13.405 2.30015 14.6132 2.53648 15.7407 3.0007C16.8683 3.46492 17.8927 4.14783 18.7549 5.01003C19.6171 5.87223 20.3 6.89665 20.7642 8.02416C21.2284 9.15168 21.4648 10.36 21.4596 11.5793C21.4544 12.7986 21.2077 14.0048 20.7339 15.1283C20.2601 16.2519 19.5685 17.2704 18.699 18.1252Z" fill="#2F2F2F" stroke="white" stroke-width="0.5"/>
<path d="M12.1693 0.364258C5.96663 0.364258 0.937988 5.3929 0.937988 11.5956C0.937988 17.7983 5.96663 22.8269 12.1693 22.8269C18.372 22.8269 23.4007 17.7983 23.4007 11.5956C23.4007 5.3929 18.372 0.364258 12.1693 0.364258ZM18.699 18.1252C17.8441 18.9948 16.8256 19.6864 15.7021 20.1602C14.5786 20.634 13.3723 20.8806 12.153 20.8858C10.9337 20.891 9.72541 20.6547 8.59789 20.1905C7.47038 19.7263 6.44597 19.0433 5.58376 18.1811C4.72156 17.3189 4.03865 16.2945 3.57443 15.167C3.11021 14.0395 2.87388 12.8312 2.87908 11.6119C2.88428 10.3926 3.1309 9.18635 3.60472 8.06283C4.07853 6.93932 4.77015 5.92076 5.63967 5.06594C6.49449 4.19642 7.51305 3.5048 8.63656 3.03098C9.76008 2.55717 10.9663 2.31055 12.1856 2.30535C13.405 2.30015 14.6132 2.53648 15.7407 3.0007C16.8683 3.46492 17.8927 4.14783 18.7549 5.01003C19.6171 5.87223 20.3 6.89665 20.7642 8.02416C21.2284 9.15168 21.4648 10.36 21.4596 11.5793C21.4544 12.7986 21.2077 14.0048 20.7339 15.1283C20.2601 16.2519 19.5685 17.2704 18.699 18.1252Z" fill="#2F2F2F" stroke="white" stroke-width="0.5"/>
</svg>
