<svg width="16" height="9" viewBox="0 0 16 9" fill="none" xmlns="http://www.w3.org/2000/svg">
<path d="M8.05677 3.19571L13.5188 8.6575C13.6688 8.80789 13.8694 8.89062 14.0833 8.89062C14.2973 8.89062 14.4978 8.80789 14.6481 8.6575L15.1264 8.17891C15.277 8.02875 15.3598 7.82804 15.3598 7.61414C15.3598 7.40025 15.277 7.19977 15.1264 7.04949L8.62343 0.546366C8.47269 0.3955 8.27125 0.312886 8.05712 0.313479C7.84204 0.312886 7.64085 0.395381 7.48998 0.546366L0.993264 7.04344C0.842755 7.19371 0.759903 7.39419 0.759903 7.60821C0.759903 7.8221 0.842755 8.02258 0.993264 8.17297L1.47162 8.65144C1.78296 8.96279 2.28981 8.96279 2.60103 8.65144L8.05677 3.19571Z" fill="#929292"/>
</svg>
