<svg width="24" height="21" viewBox="0 0 24 21" fill="none" xmlns="http://www.w3.org/2000/svg">
<path d="M12.3652 0.768196C12.2294 0.660903 12.0614 0.602539 11.8884 0.602539C11.7153 0.602539 11.5473 0.660903 11.4115 0.768196L0.359985 9.38948L1.31363 10.6046L2.6672 9.5433V19.0644C2.6672 19.4723 2.82925 19.8636 3.11771 20.152C3.40617 20.4405 3.7974 20.6025 4.20534 20.6025H19.5868C19.9947 20.6025 20.3859 20.4405 20.6744 20.152C20.9629 19.8636 21.1249 19.4723 21.1249 19.0644V9.55099L22.4785 10.6046L23.4321 9.39717L12.3652 0.768196ZM13.4342 19.0644H10.3579V12.9118H13.4342V19.0644ZM14.9723 19.0644V12.9118C14.9723 12.5039 14.8103 12.1127 14.5218 11.8242C14.2334 11.5357 13.8421 11.3737 13.4342 11.3737H10.3579C9.94997 11.3737 9.55874 11.5357 9.27028 11.8242C8.98182 12.1127 8.81977 12.5039 8.81977 12.9118V19.0644H4.20534V8.34355L11.8961 2.35248L19.5868 8.35124V19.0644H14.9723Z" fill="#2F2F2F"/>
</svg>
