<svg width="24" height="24" viewBox="0 0 24 24" fill="none" xmlns="http://www.w3.org/2000/svg">
<path fill-rule="evenodd" clip-rule="evenodd" d="M12.1708 12.8128C10.0992 12.8128 8.42052 11.1342 8.42052 9.06258C8.42052 6.99215 10.0992 5.31349 12.1708 5.31349C14.2412 5.31349 15.9199 6.99215 15.9199 9.06258C15.9199 11.1342 14.2412 12.8128 12.1708 12.8128ZM19.7701 19.6902H19.7678C19.7713 19.7181 19.784 19.7425 19.784 19.7716C19.784 20.1564 19.4725 20.4691 19.0865 20.4691C18.7343 20.4691 18.4553 20.2029 18.4076 19.8634L18.3948 19.8658C18.0042 16.7363 15.3165 14.3636 12.1708 14.3625C9.03897 14.3625 6.35823 16.7119 5.94786 19.8239L5.93856 19.8344C5.90485 20.189 5.61538 20.4691 5.25268 20.4691C4.86789 20.4691 4.55518 20.1564 4.55518 19.7716C4.55518 19.7495 4.56564 19.7309 4.56796 19.71C4.65864 18.9497 4.9109 17.7291 5.73163 16.4468C5.89439 16.1922 6.0676 15.9597 6.2443 15.7435C6.28615 15.6912 6.33033 15.647 6.37334 15.5982C6.514 15.4343 6.65583 15.2762 6.79998 15.1332C6.83486 15.0995 6.86159 15.0762 6.88252 15.0576C7.49865 14.502 7.94621 14.1974 7.94621 14.1974C8.51352 13.8103 9.12035 13.565 9.497 13.4325C9.33541 13.3336 9.18429 13.2244 9.03548 13.1104C8.97387 13.0628 8.91575 13.0116 8.8553 12.9605C8.64837 12.7849 8.45656 12.5954 8.27869 12.3885C8.1915 12.2874 8.10431 12.1862 8.02526 12.0793C7.94505 11.97 7.87181 11.8584 7.8009 11.7422C7.69744 11.5782 7.6056 11.4062 7.5219 11.2295C7.48586 11.1516 7.44401 11.0795 7.41146 11.0005C7.30567 10.7471 7.22895 10.4808 7.16501 10.2088C7.14641 10.1286 7.13129 10.0496 7.11618 9.9705C7.06271 9.67174 7.02434 9.36832 7.02434 9.05561C7.02434 7.27813 7.92413 5.71339 9.29356 4.78804C10.1143 4.23352 11.1048 3.90918 12.1708 3.90918C13.5914 3.90918 14.8783 4.48578 15.8094 5.41695C16.7406 6.34696 17.316 7.63386 17.316 9.05561C17.316 9.36832 17.2788 9.6729 17.2242 9.9705C17.2091 10.0496 17.194 10.1286 17.1765 10.2077C17.1126 10.4797 17.0347 10.7471 16.9301 11.0005C16.8975 11.0795 16.8557 11.1516 16.8196 11.2283C16.7348 11.4062 16.6429 11.5782 16.5406 11.7433C16.4686 11.8584 16.3965 11.97 16.3163 12.0793C16.2372 12.1874 16.1489 12.2874 16.0617 12.3885C15.8838 12.5954 15.6932 12.7849 15.4851 12.9605C15.4258 13.0116 15.3677 13.0628 15.3049 13.1104C15.1561 13.2244 15.005 13.3336 14.8445 13.4325C15.2224 13.5661 15.828 13.8114 16.3953 14.1974C16.3953 14.1974 16.8394 14.4996 17.4579 15.0576C17.4788 15.0762 17.5067 15.0995 17.5404 15.1332C17.6857 15.2762 17.8287 15.4355 17.9694 15.6005C18.0112 15.6482 18.0554 15.6924 18.0961 15.7424C18.2739 15.9597 18.446 16.1922 18.6099 16.4468C19.4237 17.7186 19.6771 18.9288 19.7701 19.6902Z" fill="#2F2F2F"/>
<path fill-rule="evenodd" clip-rule="evenodd" d="M22.7569 12.1892C22.7569 6.34203 18.0169 1.60205 12.1697 1.60205C6.3225 1.60205 1.58252 6.34203 1.58252 12.1892C1.58252 18.0364 6.3225 22.7764 12.1697 22.7764C18.0169 22.7764 22.7569 18.0364 22.7569 12.1892Z" stroke="#2F2F2F" stroke-width="1.5"/>
</svg>
