<svg width="23" height="23" viewBox="0 0 23 23" fill="none" xmlns="http://www.w3.org/2000/svg">
<path d="M11.4604 0.827148C5.39522 0.827148 0.460449 5.76192 0.460449 11.8271C0.460449 17.8928 5.39522 22.8271 11.4604 22.8271C17.5261 22.8271 22.4604 17.8928 22.4604 11.8271C22.4604 5.76192 17.5261 0.827148 11.4604 0.827148ZM11.4604 21.1348C6.3281 21.1348 2.15276 16.9595 2.15276 11.8271C2.15276 6.6948 6.3281 2.51946 11.4604 2.51946C16.5928 2.51946 20.7681 6.6948 20.7681 11.8271C20.7681 16.9595 16.5928 21.1348 11.4604 21.1348Z" fill="#2F2F2F" stroke="white" stroke-width="0.2"/>
<path d="M11.4603 5.90405C9.59411 5.90405 8.07568 7.42248 8.07568 9.28867C8.07568 9.75575 8.45476 10.1348 8.92184 10.1348C9.38891 10.1348 9.76799 9.75575 9.76799 9.28867C9.76799 8.35536 10.527 7.59636 11.4603 7.59636C12.3936 7.59636 13.1526 8.35536 13.1526 9.28867C13.1526 10.222 12.3936 10.981 11.4603 10.981C10.9932 10.981 10.6141 11.3601 10.6141 11.8271V13.5194C10.6141 13.9865 10.9932 14.3656 11.4603 14.3656C11.9274 14.3656 12.3065 13.9865 12.3065 13.5194V12.5662C13.7644 12.1893 14.8449 10.8629 14.8449 9.28867C14.8449 7.42248 13.3265 5.90405 11.4603 5.90405Z" fill="#2F2F2F" stroke="white" stroke-width="0.2"/>
<path d="M11.4604 17.7502C11.9277 17.7502 12.3066 17.3713 12.3066 16.904C12.3066 16.4367 11.9277 16.0579 11.4604 16.0579C10.9931 16.0579 10.6143 16.4367 10.6143 16.904C10.6143 17.3713 10.9931 17.7502 11.4604 17.7502Z" fill="#2F2F2F" stroke="white" stroke-width="0.2"/>
</svg>
