<svg width="51" height="51" viewBox="0 0 51 51" fill="none" xmlns="http://www.w3.org/2000/svg">
<g clip-path="url(#clip0)">
<path d="M0.566406 25.9141C0.566406 39.7212 11.7593 50.9141 25.5664 50.9141C39.3735 50.9141 50.5664 39.7212 50.5664 25.9141C50.5664 12.1069 39.3735 0.914062 25.5664 0.914062C11.7593 0.914062 0.566406 12.1069 0.566406 25.9141Z" fill="#7D3DAF"/>
<path d="M41.3794 17.0311L41.3695 16.9916C40.5708 13.7627 36.97 10.298 33.6632 9.57713L33.6259 9.56945C28.2773 8.54911 22.8542 8.54911 17.5067 9.56945L17.4683 9.57713C14.1627 10.298 10.5619 13.7627 9.76204 16.9916L9.75326 17.0311C8.76584 21.5403 8.76584 26.1132 9.75326 30.6224L9.76204 30.6619C10.5277 33.753 13.8604 37.0586 17.0437 37.9677V41.572C17.0437 42.8765 18.6335 43.5172 19.5375 42.5759L23.1894 38.7799C23.9814 38.8242 24.7739 38.8489 25.5663 38.8489C28.2587 38.8489 30.9522 38.5944 33.6259 38.0842L33.6632 38.0765C36.97 37.3557 40.5708 33.8909 41.3695 30.662L41.3794 30.6226C42.3668 26.1132 42.3668 21.5403 41.3794 17.0311ZM38.4895 29.9685C37.9563 32.0751 35.2222 34.6939 33.0499 35.1778C30.206 35.7185 27.3396 35.9497 24.4761 35.8704C24.4192 35.8688 24.3644 35.8909 24.3247 35.9317C23.9183 36.3488 21.6583 38.6689 21.6583 38.6689L18.8222 41.5796C18.6149 41.7957 18.2506 41.6487 18.2506 41.3503V35.3794C18.2506 35.2808 18.1802 35.197 18.0833 35.178C18.0827 35.1779 18.0822 35.1778 18.0816 35.1776C15.9093 34.6938 13.1763 32.0749 12.642 29.9684C11.7533 25.8926 11.7533 21.7607 12.642 17.6849C13.1763 15.5784 15.9093 12.9595 18.0816 12.4757C23.0484 11.531 28.0843 11.531 33.0499 12.4757C35.2233 12.9595 37.9563 15.5784 38.4895 17.6849C39.3792 21.7609 39.3792 25.8927 38.4895 29.9685Z" fill="white"/>
<path d="M30.2917 32.7248C29.9578 32.6234 29.6395 32.5553 29.3439 32.4326C26.2811 31.1619 23.4624 29.5226 21.2296 27.0096C19.9599 25.5806 18.9661 23.9672 18.126 22.2599C17.7276 21.4502 17.3919 20.6088 17.0497 19.7729C16.7377 19.0106 17.1973 18.223 17.6812 17.6487C18.1353 17.1097 18.7197 16.6971 19.3525 16.3931C19.8464 16.1558 20.3337 16.2926 20.6944 16.7113C21.4742 17.6164 22.1906 18.5679 22.7706 19.6171C23.1273 20.2624 23.0294 21.0512 22.383 21.4904C22.2259 21.5972 22.0827 21.7225 21.9364 21.8431C21.808 21.9487 21.6872 22.0555 21.5992 22.1985C21.4384 22.4603 21.4307 22.769 21.5343 23.0536C22.3314 25.2444 23.6751 26.9479 25.8801 27.8655C26.233 28.0123 26.5873 28.1832 26.9938 28.1358C27.6746 28.0563 27.895 27.3095 28.3721 26.9194C28.8383 26.5381 29.4342 26.5331 29.9365 26.8509C30.4389 27.1689 30.9259 27.5102 31.4099 27.8552C31.8851 28.1937 32.3582 28.525 32.7965 28.9109C33.2179 29.2821 33.3631 29.769 33.1257 30.2727C32.6913 31.1952 32.0591 31.9626 31.1472 32.4525C30.8897 32.5906 30.5821 32.6354 30.2917 32.7248C29.9578 32.6233 30.5821 32.6354 30.2917 32.7248Z" fill="white"/>
<path d="M25.5748 15.3381C29.581 15.4503 32.8714 18.109 33.5766 22.0697C33.6967 22.7445 33.7395 23.4345 33.7929 24.1195C33.8154 24.4076 33.6523 24.6813 33.3413 24.6851C33.0202 24.6889 32.8757 24.4202 32.8549 24.1322C32.8136 23.5621 32.785 22.9895 32.7064 22.4242C32.2917 19.4399 29.912 16.9709 26.9415 16.441C26.4945 16.3613 26.037 16.3403 25.5842 16.2928C25.298 16.2628 24.9231 16.2454 24.8597 15.8896C24.8065 15.5913 25.0583 15.3538 25.3423 15.3385C25.4196 15.3343 25.4972 15.3378 25.5748 15.3381C29.581 15.4503 25.4972 15.3378 25.5748 15.3381Z" fill="white"/>
<path d="M31.663 23.2307C31.6565 23.2807 31.653 23.3983 31.6237 23.5092C31.5174 23.9114 30.9076 23.9617 30.7671 23.5558C30.7255 23.4353 30.7193 23.2983 30.7191 23.1686C30.7176 22.3201 30.5332 21.4724 30.1053 20.7342C29.6655 19.9754 28.9935 19.3375 28.2053 18.9515C27.7287 18.7182 27.2133 18.5731 26.6909 18.4867C26.4626 18.4489 26.2319 18.426 26.0025 18.3941C25.7245 18.3554 25.576 18.1783 25.5892 17.9043C25.6015 17.6476 25.7891 17.4629 26.0689 17.4787C26.9883 17.5309 27.8763 17.7296 28.6936 18.1625C30.3558 19.0427 31.3053 20.4321 31.5824 22.2874C31.5949 22.3714 31.6151 22.4547 31.6215 22.5391C31.6372 22.7474 31.647 22.956 31.663 23.2307C31.6565 23.2807 31.647 22.956 31.663 23.2307Z" fill="white"/>
<path d="M29.171 23.1338C28.8359 23.1398 28.6565 22.9543 28.6219 22.647C28.5979 22.4327 28.5789 22.2156 28.5278 22.0071C28.4271 21.5966 28.2089 21.2161 27.8635 20.9645C27.7004 20.8457 27.5157 20.7592 27.3222 20.7033C27.0763 20.6323 26.821 20.6519 26.5757 20.5917C26.3093 20.5265 26.1619 20.3108 26.2038 20.0608C26.2419 19.8334 26.4632 19.6559 26.7117 19.6739C28.2649 19.786 29.375 20.589 29.5334 22.4175C29.5446 22.5465 29.5578 22.6829 29.5292 22.8063C29.4801 23.0176 29.3237 23.1235 29.171 23.1338C28.8359 23.1398 29.3237 23.1235 29.171 23.1338Z" fill="white"/>
</g>
<defs>
<clipPath id="clip0">
<rect width="50" height="50" fill="white" transform="translate(0.566406 0.914062)"/>
</clipPath>
</defs>
</svg>
