<svg width="22" height="22" viewBox="0 0 22 22" fill="none" xmlns="http://www.w3.org/2000/svg">
<path d="M11.2651 0.778518C10.9339 0.741018 10.6506 0.762893 10.5503 0.778518L10.9175 1.34082C11.1714 1.16901 11.5964 0.816018 11.2651 0.778518Z" fill="black"/>
<path d="M16.0553 6.01709H5.46584C4.51247 6.01709 3.69164 6.69002 3.50468 7.62488L1.33242 18.4869C1.08492 19.7244 2.03149 20.8791 3.29358 20.8791H18.3008C19.5681 20.8791 20.5159 19.7153 20.2593 18.4742L18.0139 7.6122C17.8218 6.68333 17.0038 6.01709 16.0553 6.01709Z" stroke="#2F2F2F" stroke-width="1.4" stroke-linecap="round" stroke-linejoin="round"/>
<path d="M6.99473 8.66992C6.78771 6.23424 7.27971 1.34099 10.9039 1.25342" stroke="#2F2F2F" stroke-width="1.4" stroke-linecap="round" stroke-linejoin="round"/>
<path d="M14.8134 8.66992C15.0204 6.23424 14.5284 1.34099 10.9042 1.25342" stroke="#2F2F2F" stroke-width="1.4" stroke-linecap="round" stroke-linejoin="round"/>
</svg>
