<svg width="32" height="32" viewBox="0 0 32 32" fill="none" xmlns="http://www.w3.org/2000/svg">
<g clip-path="url(#clip0)">
<path d="M26.4748 8.20839L24.3719 6.44713L23.8931 3.7461C23.7339 2.84837 22.9572 2.19736 22.0457 2.19736C22.0452 2.19736 22.0445 2.19736 22.0439 2.19736L19.3009 2.1998L17.198 0.438729C16.4986 -0.147045 15.4842 -0.146169 14.7858 0.440918L12.6862 2.20599L9.94312 2.20856C9.03087 2.20943 8.25434 2.86219 8.0968 3.76067L7.62292 6.46251L5.52324 8.22765C4.82495 8.81467 4.64971 9.81379 5.10658 10.6034L6.48026 12.9778L6.00644 15.6795C5.84877 16.578 6.3568 17.456 7.21439 17.7673L9.52727 18.6068L9.53622 30.1228C9.53622 30.8236 9.92192 31.4606 10.5428 31.7854C10.8173 31.929 11.1158 32.0001 11.4131 32.0001C11.7882 32.0001 12.1614 31.887 12.4825 31.6642L15.9782 29.2375L19.4738 31.6642C20.0494 32.0637 20.7926 32.1102 21.4135 31.7854C22.0343 31.4606 22.42 30.8236 22.42 30.1228V18.6203L24.8012 17.7512C25.6581 17.4384 26.1645 16.5594 26.0053 15.6612L25.5265 12.9602L26.8958 10.5834C27.3513 9.7929 27.1741 8.7941 26.4748 8.20839V8.20839ZM16.5131 27.3248C16.1915 27.1015 15.7649 27.1015 15.4432 27.3248L11.4126 30.1224C11.4126 30.1222 11.4126 30.1221 11.4126 30.1221L11.4059 21.4034C11.7629 21.7949 12.2668 22.0148 12.7894 22.0148C13.0042 22.0148 13.2221 21.9777 13.4341 21.9004L16.0109 20.9599L18.5894 21.8956C19.2831 22.1472 20.0391 21.9676 20.5438 21.4714L20.5436 30.1226L16.5131 27.3248ZM23.9007 12.0236C23.6809 12.4052 23.6022 12.8541 23.6791 13.2877L24.1579 15.9887L21.5809 16.9292C21.2579 17.0472 20.9756 17.2528 20.7622 17.5183C20.752 17.5305 20.7426 17.5435 20.7331 17.5562C20.6847 17.6197 20.6388 17.6853 20.5987 17.7551L19.2299 20.1321C19.2299 20.1321 19.2297 20.132 19.2293 20.1318L16.6509 19.1961C16.2369 19.0459 15.7811 19.0463 15.3674 19.1972L12.7907 20.1378L11.417 17.7635C11.3432 17.6359 11.2538 17.5194 11.1536 17.4136C11.1445 17.4039 11.136 17.3936 11.1265 17.3842C10.9322 17.1879 10.6958 17.0348 10.433 16.9394L7.85451 16.0036L8.3284 13.3017C8.40438 12.8679 8.32483 12.4192 8.1043 12.0381L6.73062 9.66375L8.8303 7.89861C9.16747 7.61523 9.39499 7.22021 9.47098 6.78654L9.94487 4.08477L12.6878 4.08221C13.1282 4.08183 13.5564 3.92554 13.8935 3.64216L15.9932 1.87708L18.096 3.63822C18.4332 3.92066 18.8611 4.07614 19.301 4.07614H19.3025L22.0456 4.07364L22.5244 6.77466C22.6012 7.20827 22.8295 7.60266 23.1671 7.88548L25.27 9.64674L23.9007 12.0236Z" fill="white"/>
<path d="M15.9996 5.83472C13.0167 5.83472 10.5898 8.26155 10.5898 11.2445C10.5898 14.2275 13.0167 16.6543 15.9996 16.6543C18.9826 16.6543 21.4095 14.2275 21.4095 11.2445C21.4095 8.26155 18.9826 5.83472 15.9996 5.83472ZM15.9996 14.778C14.0513 14.778 12.4661 13.1929 12.4661 11.2445C12.4661 9.29613 14.0513 7.71099 15.9996 7.71099C17.948 7.71099 19.5332 9.29613 19.5332 11.2445C19.5332 13.1929 17.948 14.778 15.9996 14.778Z" fill="white"/>
</g>
<defs>
<clipPath id="clip0">
<rect width="32" height="32" fill="white"/>
</clipPath>
</defs>
</svg>
