<svg width="22" height="22" viewBox="0 0 22 22" fill="none" xmlns="http://www.w3.org/2000/svg">
<path fill-rule="evenodd" clip-rule="evenodd" d="M1.52574 21.0989C1.21834 21.0989 0.923536 20.9768 0.706174 20.7594C0.488812 20.542 0.366699 20.2472 0.366699 19.9398L0.366699 1.25792C0.366699 0.617415 0.885238 0.098877 1.52574 0.098877H20.2077C20.8482 0.098877 21.3667 0.617415 21.3667 1.25792V19.9398C21.3667 20.5795 20.8474 21.0989 20.2077 21.0989H14.8567V12.9662H17.5867L17.9946 9.79684H14.8567V7.77357C14.8567 6.85603 15.1111 6.23088 16.4269 6.23088H18.1052V3.39588C17.8145 3.35711 16.8186 3.27068 15.6595 3.27068C13.2397 3.27068 11.5831 4.74715 11.5831 7.46018V9.79684H8.84747V12.9662H11.5839V21.0989H1.52574Z" fill="#205EFF"/>
</svg>
