<?xml version="1.0" encoding="UTF-8"?>
<svg width="37px" height="37px" viewBox="0 0 37 37" version="1.1" xmlns="http://www.w3.org/2000/svg" xmlns:xlink="http://www.w3.org/1999/xlink">
    <!-- Generator: Sketch 55.2 (78181) - https://sketchapp.com -->
    <title>icon_soc_facebook</title>
    <desc>Created with Sketch.</desc>
    <g id="Кабинет" stroke="none" stroke-width="1" fill="none" fill-rule="evenodd">
        <g id="Account_Icons_2" transform="translate(-112.000000, -795.000000)" fill-rule="nonzero">
            <g id="Group-3" transform="translate(112.000000, 738.000000)">
                <g id="icon_soc_facebook" transform="translate(0.000000, 57.000000)">
                    <g id="Group">
                        <rect id="Rectangle" fill="#2A2C2C" x="0" y="0" width="37" height="37"></rect>
                        <rect id="Rectangle" fill="#757575" x="0" y="33" width="37" height="4"></rect>
                    </g>
                    <path d="M23.2941176,18.6285714 L24,15.3142857 L20.5882353,15.3142857 L20.5882353,12.6285714 C20.5882353,11.6 21.1176471,11.3142857 22.6470588,11.3142857 L24,11.3142857 L24,8 C24,8 22.5882353,8 21.2352941,8 C18.4117647,8 16.4117647,9.6 16.4117647,12.6857143 L16.4117647,15.3714286 L13,15.3714286 L13,18.6857143 L16.4117647,18.6857143 L16.4117647,28 L20.5294118,28 L20.5294118,18.6285714 L23.2941176,18.6285714 Z" id="f_1_" fill="#FFFFFF"></path>
                </g>
            </g>
        </g>
    </g>
</svg>