<svg width="20" height="21" viewBox="0 0 20 21" fill="none" xmlns="http://www.w3.org/2000/svg">
<path d="M19.3191 4.61849H13.2478C13.3393 4.54007 13.4286 4.45729 13.5157 4.37015C14.7019 3.18399 14.9992 1.69394 14.2085 0.903173C14.0586 0.758951 13.8813 0.646197 13.6871 0.571557C13.4929 0.496918 13.2858 0.461903 13.0779 0.468576C12.1845 0.534488 11.35 0.938875 10.7448 1.59918C10.5307 1.81176 10.3381 2.04488 10.1697 2.29519C10.0012 2.04488 9.80862 1.81176 9.59455 1.59918C8.98926 0.938875 8.15477 0.534488 7.26144 0.468576C7.05329 0.462334 6.84601 0.497865 6.65182 0.573071C6.45763 0.648276 6.28048 0.761631 6.13083 0.906441C5.34006 1.69721 5.63742 3.1938 6.82358 4.37342C6.91071 4.46056 7.00003 4.54334 7.09152 4.62176H1.02023C0.846902 4.62176 0.680675 4.69061 0.558114 4.81317C0.435553 4.93573 0.366699 5.10196 0.366699 5.27529V9.84673C0.366699 10.0201 0.435553 10.1863 0.558114 10.3088C0.680675 10.4314 0.846902 10.5003 1.02023 10.5003H1.34699V19.9764C1.34699 20.1498 1.41585 20.316 1.53841 20.4386C1.66097 20.5611 1.8272 20.63 2.00052 20.63H18.3388C18.5121 20.63 18.6783 20.5611 18.8009 20.4386C18.9235 20.316 18.9923 20.1498 18.9923 19.9764V10.5003H19.3191C19.4924 10.5003 19.6586 10.4314 19.7812 10.3088C19.9037 10.1863 19.9726 10.0201 19.9726 9.84673V5.27202C19.9726 5.09869 19.9037 4.93247 19.7812 4.80991C19.6586 4.68735 19.4924 4.61849 19.3191 4.61849ZM18.6655 9.1932H13.1105V5.92555H18.6655V9.1932ZM11.8035 5.92555V9.1932H8.53583V5.92555H11.8035ZM11.6695 2.52393C12.0315 2.11053 12.5326 1.84428 13.0779 1.77564C13.1519 1.76986 13.2256 1.78946 13.287 1.83119C13.421 1.96516 13.3458 2.69711 12.5942 3.44867C11.8427 4.20023 11.1205 4.28519 10.9604 4.14142C10.8003 3.99764 10.9179 3.27222 11.6695 2.52393ZM7.05231 1.82792C7.11369 1.78619 7.18745 1.7666 7.26144 1.77237C7.80666 1.84102 8.30776 2.10726 8.6698 2.52066C9.42136 3.27222 9.49651 4.00417 9.36254 4.15449C9.22857 4.3048 8.47374 4.19043 7.74505 3.46174C7.01637 2.73306 6.91834 1.96516 7.05231 1.82792ZM1.67376 5.92555H7.22877V9.1932H1.67376V5.92555ZM2.65405 19.3229V10.5003H7.22877V19.3229H2.65405ZM8.53583 19.3229V10.5003H11.8035V19.3229H8.53583ZM17.6852 19.3229H13.1105V10.5003H17.6852V19.3229Z" fill="#2F2F2F"/>
</svg>
