<svg width="22" height="18" viewBox="0 0 22 18" fill="none" xmlns="http://www.w3.org/2000/svg">
<path fill-rule="evenodd" clip-rule="evenodd" d="M8.49401 9.70785C6.42242 9.70785 4.74376 8.02919 4.74376 5.9576C4.74376 3.88717 6.42242 2.20851 8.49401 2.20851C10.5644 2.20851 12.2431 3.88717 12.2431 5.9576C12.2431 8.02919 10.5644 9.70785 8.49401 9.70785ZM16.0933 16.5853H16.091C16.0945 16.6132 16.1073 16.6376 16.1073 16.6666C16.1073 17.0514 15.7957 17.3641 15.4098 17.3641C15.0575 17.3641 14.7785 17.0979 14.7309 16.7585L14.7181 16.7608C14.3275 13.6313 11.6398 11.2586 8.49401 11.2575C5.36221 11.2575 2.68147 13.6069 2.2711 16.7189L2.2618 16.7294C2.22809 17.084 1.93863 17.3641 1.57592 17.3641C1.19113 17.3641 0.878418 17.0514 0.878418 16.6666C0.878418 16.6445 0.888881 16.6259 0.891206 16.605C0.981881 15.8447 1.23415 14.6241 2.05488 13.3419C2.21763 13.0873 2.39084 12.8548 2.56754 12.6385C2.60939 12.5862 2.65357 12.542 2.69658 12.4932C2.83725 12.3293 2.97907 12.1712 3.12322 12.0282C3.1581 11.9945 3.18484 11.9713 3.20576 11.9527C3.82189 11.397 4.26946 11.0924 4.26946 11.0924C4.83676 10.7053 5.44359 10.46 5.82024 10.3275C5.65865 10.2287 5.50753 10.1194 5.35873 10.0055C5.29711 9.95779 5.23899 9.90664 5.17854 9.85549C4.97161 9.67995 4.7798 9.49046 4.60193 9.28354C4.51475 9.1824 4.42756 9.08126 4.34851 8.97431C4.26829 8.86504 4.19506 8.75343 4.12414 8.63718C4.02068 8.47327 3.92884 8.30122 3.84514 8.12452C3.8091 8.04663 3.76725 7.97455 3.7347 7.8955C3.62891 7.64208 3.55219 7.37586 3.48825 7.10383C3.46965 7.02362 3.45454 6.94457 3.43942 6.86552C3.38595 6.56675 3.34759 6.26334 3.34759 5.95063C3.34759 4.17315 4.24737 2.60841 5.6168 1.68306C6.43753 1.12854 7.42799 0.804199 8.49401 0.804199C9.9146 0.804199 11.2015 1.3808 12.1327 2.31197C13.0638 3.24198 13.6393 4.52888 13.6393 5.95063C13.6393 6.26334 13.6021 6.56792 13.5474 6.86552C13.5323 6.94457 13.5172 7.02362 13.4998 7.10267C13.4358 7.3747 13.3579 7.64208 13.2533 7.8955C13.2208 7.97455 13.1789 8.04663 13.1429 8.12335C13.058 8.30122 12.9662 8.47327 12.8639 8.63835C12.7918 8.75343 12.7197 8.86504 12.6395 8.97431C12.5605 9.08242 12.4721 9.1824 12.3849 9.28354C12.2071 9.49046 12.0164 9.67995 11.8083 9.85549C11.749 9.90664 11.6909 9.95779 11.6281 10.0055C11.4793 10.1194 11.3282 10.2287 11.1678 10.3275C11.5456 10.4612 12.1513 10.7064 12.7186 11.0924C12.7186 11.0924 13.1626 11.3947 13.7811 11.9527C13.802 11.9713 13.8299 11.9945 13.8636 12.0282C14.009 12.1712 14.1519 12.3305 14.2926 12.4955C14.3345 12.5432 14.3786 12.5874 14.4193 12.6374C14.5972 12.8548 14.7692 13.0873 14.9331 13.3419C15.7469 14.6136 16.0003 15.8238 16.0933 16.5853ZM21.4439 16.5854C21.4474 16.6133 21.4602 16.6377 21.4602 16.6667C21.4602 17.0515 21.1475 17.3643 20.7627 17.3643C20.4104 17.3643 20.1314 17.098 20.0838 16.7586L20.071 16.7609C20.021 16.3622 19.9338 15.9751 19.8129 15.6031C19.4211 14.4033 18.7562 13.6407 18.4621 13.3083C17.4193 12.1306 16.2114 11.5808 15.5372 11.3343C15.3802 11.2901 15.2559 11.2413 15.1687 11.203C15.0687 11.1599 15.0071 11.1344 14.9338 11.0832C14.892 11.053 14.7862 10.9786 14.7025 10.853C14.5235 10.5892 14.5735 10.2857 14.5874 10.2055C14.6165 10.0242 14.6897 9.90095 14.7095 9.8684C14.7223 9.84631 14.7792 9.75563 14.8839 9.66147C14.9827 9.57196 15.0815 9.51732 15.1501 9.48709C16.6381 8.87329 17.6099 7.46084 17.596 5.95772C17.5786 4.14653 16.1324 2.51204 14.1573 2.24234L14.1666 2.23304C13.819 2.19235 13.5458 1.9087 13.5458 1.54948C13.5458 1.16353 13.8585 0.851978 14.2445 0.851978C14.2596 0.851978 14.2712 0.860116 14.2863 0.860116C14.2863 0.857791 14.2863 0.855466 14.2863 0.853141C14.756 0.896154 16.2568 1.09262 17.4856 2.31209C18.3063 3.12701 18.6411 4.03725 18.7608 4.41972C18.9108 4.90332 18.9922 5.41831 18.9922 5.95074C18.9922 6.26346 18.9538 6.56803 18.9003 6.86564C18.8852 6.94469 18.8701 7.02374 18.8515 7.10279C18.7887 7.37481 18.7108 7.64219 18.6062 7.89562C18.5737 7.97467 18.5318 8.04674 18.4946 8.12347C18.4109 8.30133 18.3191 8.47222 18.2156 8.63846C18.1447 8.75355 18.0715 8.86515 17.9924 8.97443C17.9122 9.08254 17.825 9.18252 17.7378 9.28365C17.56 9.48942 17.3693 9.68007 17.1612 9.85561C17.1019 9.90676 17.0426 9.95791 16.981 10.0056C16.8322 10.1195 16.6811 10.2288 16.5195 10.3276C16.8985 10.4613 17.5042 10.7066 18.0715 11.0925C18.0715 11.0925 18.5144 11.3948 19.134 11.9528C19.1549 11.9714 19.1828 11.9946 19.2165 12.0283C19.3618 12.1713 19.5048 12.3306 19.6455 12.4957C19.6873 12.5433 19.7304 12.5875 19.7722 12.6375C19.9489 12.8549 20.1221 13.0874 20.2849 13.342C21.0998 14.6138 21.3532 15.8239 21.4462 16.5854H21.4439Z" fill="#2F2F2F"/>
</svg>
