<svg width="24" height="22" viewBox="0 0 24 22" fill="none" xmlns="http://www.w3.org/2000/svg">
<path d="M23.6176 6.40959L21.6635 10.4824C21.5809 10.6537 21.4337 10.7852 21.2544 10.848C21.075 10.9109 20.8781 10.8999 20.7068 10.8176L16.6384 8.86139C16.4761 8.77354 16.3539 8.62652 16.2971 8.45085C16.2403 8.27518 16.2533 8.08436 16.3333 7.918C16.4133 7.75164 16.5542 7.62251 16.7268 7.55742C16.8994 7.49233 17.0905 7.49628 17.2602 7.56845L20.0624 8.91694C19.6364 7.27481 18.7628 5.78355 17.5391 4.60968C16.3154 3.43582 14.7899 2.62557 13.1329 2.26941C11.4758 1.91325 9.7525 2.02519 8.15534 2.59275C6.55817 3.1603 5.15004 4.16112 4.08818 5.48345C3.32367 6.41903 2.75189 7.49695 2.40587 8.65498C2.05984 9.81301 1.94642 11.0282 2.07216 12.2303C2.19791 13.4325 2.56032 14.5978 3.13847 15.659C3.71661 16.7201 4.49904 17.6561 5.44056 18.4128C6.38208 19.1696 7.46404 19.7321 8.62395 20.0679C9.78385 20.4037 10.9987 20.5061 12.1984 20.3692C13.3981 20.2324 14.5588 19.8589 15.6135 19.2705C16.6681 18.6821 17.5959 17.8903 18.3432 16.9409C18.4018 16.866 18.4745 16.8036 18.5574 16.7571C18.6402 16.7106 18.7314 16.681 18.8257 16.6701C18.92 16.6592 19.0156 16.6671 19.1068 16.6934C19.198 16.7197 19.2831 16.7638 19.3572 16.8233C19.4313 16.8828 19.4928 16.9564 19.5383 17.0398C19.5837 17.1233 19.6121 17.2149 19.6219 17.3095C19.6317 17.404 19.6227 17.4996 19.5953 17.5906C19.568 17.6816 19.5229 17.7663 19.4626 17.8397C18.5954 18.9283 17.5208 19.8337 16.3013 20.5033C15.0818 21.173 13.7416 21.5935 12.3585 21.7406C11.9715 21.7829 11.5825 21.8041 11.1932 21.8043C9.20071 21.8003 7.24984 21.233 5.56529 20.1677C3.88075 19.1024 2.53105 17.5825 1.67164 15.7829C0.812233 13.9834 0.478077 11.9774 0.707658 9.99601C0.937239 8.01465 1.72122 6.13851 2.9693 4.58366C4.16528 3.09491 5.74124 1.95772 7.53024 1.29256C9.31924 0.6274 11.2546 0.459038 13.1314 0.80531C15.0082 1.15158 16.7565 1.99959 18.1911 3.25951C19.6257 4.51942 20.6931 6.14433 21.2803 7.96208L22.3236 5.78754C22.3616 5.69809 22.4173 5.61727 22.4873 5.54999C22.5574 5.48271 22.6403 5.43035 22.7312 5.3961C22.822 5.36184 22.9188 5.34639 23.0158 5.35069C23.1128 5.35499 23.2079 5.37894 23.2954 5.4211C23.3828 5.46326 23.4608 5.52274 23.5247 5.59596C23.5885 5.66917 23.6368 5.75459 23.6667 5.84705C23.6966 5.93951 23.7075 6.03707 23.6986 6.13385C23.6898 6.23062 23.6614 6.32459 23.6152 6.41006L23.6176 6.40959ZM10.4881 5.67021C10.2978 5.67021 10.1153 5.74589 9.98075 5.8806C9.84618 6.01531 9.77059 6.19801 9.77059 6.38852V12.4606C9.77064 12.5856 9.80328 12.7084 9.86527 12.8169C9.92727 12.9254 10.0165 13.0159 10.1241 13.0793L13.4726 15.0541C13.6366 15.1508 13.8322 15.1784 14.0165 15.1307C14.2007 15.083 14.3585 14.964 14.4551 14.7998C14.5517 14.6357 14.5793 14.4398 14.5316 14.2554C14.484 14.0709 14.3651 13.913 14.2011 13.8162L11.2057 12.0483V6.38852C11.2057 6.19801 11.1301 6.01531 10.9955 5.8806C10.8609 5.74589 10.6784 5.67021 10.4881 5.67021Z" fill="#2F2F2F"/>
</svg>
