<?xml version="1.0" encoding="UTF-8"?>
<svg width="37px" height="37px" viewBox="0 0 37 37" version="1.1" xmlns="http://www.w3.org/2000/svg" xmlns:xlink="http://www.w3.org/1999/xlink">
    <!-- Generator: Sketch 55.2 (78181) - https://sketchapp.com -->
    <title>iconfinder_6_1579034 copy</title>
    <desc>Created with Sketch.</desc>
    <g id="Кабинет" stroke="none" stroke-width="1" fill="none" fill-rule="evenodd">
        <g id="Account_Icons_2" transform="translate(-112.000000, -738.000000)" fill-rule="nonzero">
            <g id="Group-3" transform="translate(112.000000, 738.000000)">
                <g id="iconfinder_6_1579034-copy">
                    <g id="Group">
                        <rect id="Rectangle" fill="#2A2C2C" x="0" y="0" width="37" height="37"></rect>
                        <rect id="Rectangle" fill="#757575" x="0" y="33" width="37" height="4"></rect>
                    </g>
                    <g id="Group" transform="translate(8.000000, 7.000000)" fill="#FFFFFF">
                        <path d="M7.16717227,0.585198542 C4.54433612,1.48550399 2.34847329,3.34613525 1.1285495,5.80697015 C0.701576172,6.64725523 0.396595224,7.54756068 0.213606655,8.44786613 C-0.274362862,10.7286399 0.0916142756,13.1894748 1.1285495,15.2301672 C1.79950759,16.6106355 2.83644281,17.8110428 4.0563666,18.7113482 C5.2152942,19.6116537 6.49621419,20.2718777 7.96012274,20.6319999 C9.72901224,21.1121628 11.6198941,21.1121628 13.4497798,20.6920202 C15.0966769,20.3318981 16.6215817,19.5516333 17.8415055,18.4712668 C19.1224254,17.3308799 20.0373683,15.7703504 20.5253378,14.0897803 C21.0743035,12.2891694 21.1352997,10.3685178 20.7693226,8.50788649 C17.4145321,8.50788649 14.0597417,8.50788649 10.7049513,8.50788649 C10.7049513,9.88835485 10.7049513,11.2688232 10.7049513,12.5892712 C12.6568293,12.5892712 14.6087074,12.5892712 16.4995893,12.5892712 C16.2556045,13.9097192 15.4626541,15.1101264 14.3647227,15.8303708 C13.6327684,16.3105337 12.8398179,16.6106355 11.9858713,16.7306763 C11.1319246,16.850717 10.2779779,16.9107373 9.42403129,16.7306763 C8.57008463,16.5506152 7.77713417,16.190493 7.04517989,15.7103301 C5.88625229,14.9300654 5.03230564,13.7896785 4.60533231,12.4692305 C4.17835898,11.1487825 4.11736279,9.70829376 4.60533231,8.38784577 C4.91031326,7.48754032 5.45927896,6.58723487 6.13023705,5.92701087 C6.9841837,5.08672579 8.08211512,4.42650179 9.30203891,4.18642034 C10.3389741,3.94633888 11.4369055,4.00635925 12.4128446,4.30646106 C13.2667912,4.54654252 14.0597417,5.02670542 14.7306998,5.62690906 C15.4016579,4.96668506 16.0116198,4.36648143 16.6825779,3.70625743 C17.048555,3.34613525 17.4145321,3.04603344 17.7195131,2.68591126 C16.743574,1.78560581 15.5846464,1.06536145 14.3037265,0.585198542 C12.1078636,-0.195066181 9.48502748,-0.195066181 7.16717227,0.585198542 Z" id="Path"></path>
                    </g>
                </g>
            </g>
        </g>
    </g>
</svg>