<svg width="51" height="51" viewBox="0 0 51 51" fill="none" xmlns="http://www.w3.org/2000/svg">
<g clip-path="url(#clip0)">
<path d="M25.5664 50.9141C39.3735 50.9141 50.5664 39.7212 50.5664 25.9141C50.5664 12.1069 39.3735 0.914062 25.5664 0.914062C11.7593 0.914062 0.566406 12.1069 0.566406 25.9141C0.566406 39.7212 11.7593 50.9141 25.5664 50.9141Z" fill="#039BE5"/>
<path d="M12.0058 25.3721L36.11 16.0783C37.2287 15.6742 38.2058 16.3513 37.8433 18.0429L37.8454 18.0408L33.7412 37.3763C33.4371 38.7471 32.6225 39.0804 31.4829 38.4346L25.2329 33.8283L22.2183 36.7325C21.885 37.0658 21.6037 37.3471 20.9579 37.3471L21.4016 30.9867L32.985 20.5221C33.4891 20.0783 32.8725 19.8283 32.2079 20.27L17.8933 29.2825L11.7225 27.3575C10.3829 26.9325 10.3537 26.0179 12.0058 25.3721Z" fill="white"/>
</g>
<defs>
<clipPath id="clip0">
<rect width="50" height="50" fill="white" transform="translate(0.566406 0.914062)"/>
</clipPath>
</defs>
</svg>
