<?xml version="1.0" encoding="UTF-8"?>
<svg width="62px" height="62px" viewBox="0 0 62 62" version="1.1" xmlns="http://www.w3.org/2000/svg" xmlns:xlink="http://www.w3.org/1999/xlink">
    <!-- Generator: Sketch 55.2 (78181) - https://sketchapp.com -->
    <title>icon_social-mesenger</title>
    <desc>Created with Sketch.</desc>
    <g id="Кабинет" stroke="none" stroke-width="1" fill="none" fill-rule="evenodd">
        <g id="Account_Icons_2" transform="translate(-923.000000, -510.000000)" fill-rule="nonzero">
            <g id="Group-4" transform="translate(924.000000, 510.000000)">
                <g id="icon_social-mesenger" transform="translate(0.000000, 1.000000)">
                    <circle id="Oval" stroke="#2A2C2C" cx="30" cy="30" r="30"></circle>
                    <path d="M29.9984483,15 C21.1620599,15 14,21.6329163 14,29.81447 C14,34.4774513 16.3268354,38.6353409 19.9625643,41.3524391 L19.9625643,47 L25.4099505,44.0097954 C26.8647076,44.413248 28.4032587,44.6297158 29.9992241,44.6297158 C38.8356125,44.6297158 46,37.9967995 46,29.8136941 C45.9992241,21.6329163 38.8348366,15 29.9984483,15 Z M31.5897585,34.9515081 L27.5156629,30.605082 L19.5637669,34.9515081 L28.3093783,25.6666667 L32.4835612,30.0130928 L40.3345941,25.6666667 L31.5897585,34.9515081 Z" id="Shape" fill="#2A2C2C"></path>
                </g>
            </g>
        </g>
    </g>
</svg>