<svg width="22" height="22" viewBox="0 0 22 22" fill="none" xmlns="http://www.w3.org/2000/svg">
<path d="M5.61426 11.0461C5.61426 10.0057 5.90092 9.03102 6.39893 8.19647V4.65649H2.85895C1.45396 6.4812 0.692383 8.70502 0.692383 11.0461C0.692383 13.3872 1.45396 15.611 2.85895 17.4357H6.39893V13.8958C5.90092 13.0612 5.61426 12.0866 5.61426 11.0461Z" fill="#FBBD00"/>
<path d="M11.1924 16.6242L8.73145 19.0851L11.1924 21.546C13.5335 21.546 15.7573 20.7845 17.582 19.3795V15.8433H14.0458C13.204 16.3431 12.2252 16.6242 11.1924 16.6242Z" fill="#0F9D58"/>
<path d="M6.39886 13.8955L2.85889 17.4355C3.13705 17.7968 3.43996 18.1427 3.76771 18.4705C5.7509 20.4537 8.38767 21.5459 11.1923 21.5459V16.624C9.15696 16.624 7.37307 15.5281 6.39886 13.8955Z" fill="#31AA52"/>
<path d="M21.6924 11.0458C21.6924 10.407 21.6346 9.76697 21.5204 9.14361L21.4281 8.63916H11.1924V13.561H16.1738C15.6901 14.5233 14.9463 15.3084 14.0458 15.8431L17.582 19.3793C17.9432 19.1011 18.2892 18.7982 18.617 18.4704C20.6002 16.4872 21.6924 13.8504 21.6924 11.0458Z" fill="#3C79E6"/>
<path d="M15.1367 7.10155L15.5717 7.53656L19.052 4.0563L18.617 3.62129C16.6338 1.6381 13.9971 0.545898 11.1924 0.545898L8.73145 3.00684L11.1924 5.46777C12.6823 5.46777 14.0831 6.04798 15.1367 7.10155Z" fill="#CF2D48"/>
<path d="M11.1924 5.46777V0.545898C8.38771 0.545898 5.75094 1.6381 3.76771 3.62125C3.43996 3.94901 3.13705 4.29497 2.85889 4.65628L6.39886 8.19626C7.37311 6.56371 9.157 5.46777 11.1924 5.46777Z" fill="#EB4132"/>
</svg>
