<?xml version="1.0" encoding="utf-8"?>
<!-- Generator: Adobe Illustrator 24.0.0, SVG Export Plug-In . SVG Version: 6.00 Build 0)  -->
<svg version="1.1" id="Layer_1" xmlns="http://www.w3.org/2000/svg" xmlns:xlink="http://www.w3.org/1999/xlink" x="0px" y="0px"
	 viewBox="0 0 283.5 283.5" style="enable-background:new 0 0 283.5 283.5;" xml:space="preserve">
<style type="text/css">
	.st0{fill:#FFFFFF;}
</style>
<g>
	<path class="st0" d="M56.8,102.6c-31.2,0-56.6,25.1-56.6,56c0,30.9,25.4,56,56.6,56c16.7,0,31.7-7.2,42.1-18.7v7.5
		c0,23-18.9,41.7-42.1,41.7c-4,0-7.3,3.2-7.3,7.2c0,4,3.2,7.2,7.3,7.2c31.2,0,56.7-25.1,56.7-56v-44.9
		C113.4,127.7,88,102.6,56.8,102.6z M56.8,200.3c-23.2,0-42.1-18.7-42.1-41.6c0-23,18.9-41.7,42.1-41.7c23.2,0,42.1,18.7,42.1,41.7
		C98.9,181.6,80,200.3,56.8,200.3z"/>
	<path class="st0" d="M226.1,102.6c-31.6,0-57.2,25.3-57.2,56.5c0,31.1,25.7,56.4,57.2,56.4c31.6,0,57.2-25.3,57.2-56.4
		C283.3,127.9,257.7,102.6,226.1,102.6z M226.1,201c-23.5,0-42.5-18.8-42.5-41.9c0-23.1,19.1-42,42.5-42c23.5,0,42.5,18.8,42.5,42
		C268.6,182.2,249.6,201,226.1,201z"/>
	<path class="st0" d="M145.4,23.9c-4.8,0-8.8,3.5-8.8,7.8v169.7c0,4.3,3.9,7.8,8.8,7.8c4.9,0,8.8-3.5,8.8-7.8V31.7
		C154.2,27.3,150.2,23.9,145.4,23.9z"/>
</g>
</svg>
