<?xml version="1.0" encoding="UTF-8"?>
<svg width="106px" height="70px" viewBox="0 0 106 70" version="1.1" xmlns="http://www.w3.org/2000/svg" xmlns:xlink="http://www.w3.org/1999/xlink">
    <!-- Generator: Sketch 55.2 (78181) - https://sketchapp.com -->
    <title>Combined Shape</title>
    <desc>Created with Sketch.</desc>
    <g id="Symbols" stroke="none" stroke-width="1" fill="none" fill-rule="evenodd">
        <g id="FOOTER-DESKTOP-1920" transform="translate(-489.000000, -90.000000)" fill="#2f2f2f">
            <g id="FOOTER-DESKTOP-1.0">
                <g id="Group-10" transform="translate(489.000000, 90.000000)">
                    <path d="M66,57 C56.6268546,57 49,49.3799642 49,40.002107 C49,30.6260557 56.6268546,23 66,23 C75.3755533,23 83,30.6260557 83,40.002107 C83,49.3799642 75.3755533,57 66,57 Z M66,27.36626 C59.0328954,27.36626 53.3642222,33.0346323 53.3642222,40.002107 C53.3642222,46.9671736 59.0328954,52.634944 66,52.634944 C72.9671046,52.634944 78.6351758,46.9671736 78.6351758,40.002107 C78.6351758,33.0346323 72.9671046,27.36626 66,27.36626 Z M45,51.719792 C45,52.9796621 43.8827745,54 42.4955209,54 C41.1165856,54 40,52.9796621 40,51.719792 L40,2.27206856 C40,1.0180123 41.1165856,0 42.4955209,0 C43.8827745,0 45,1.0180123 45,2.27206856 L45,51.719792 Z M33.6910772,40.1099387 L33.6910772,53.4074137 C33.6910772,62.5571387 26.1347263,70.0001762 16.8437789,70.0001762 C15.6466211,70.0001762 14.6809018,69.0478387 14.6809018,67.8681387 C14.6809018,66.6937262 15.6466211,65.7390387 16.8437789,65.7390387 C23.7451825,65.7390387 29.3641298,60.2065512 29.3641298,53.4074137 L29.3641298,51.1760887 C26.2772877,54.5583262 21.8173228,56.7003512 16.8455684,56.7003512 C7.55700702,56.7003512 5.96491234e-05,49.2631887 5.96491234e-05,40.1117012 C5.96491234e-05,30.9619762 7.55700702,23.5183513 16.8455684,23.5183513 C26.1353228,23.5183513 33.6904807,30.9602137 33.6910772,40.1099387 Z M16.8455684,52.4403887 C23.7493579,52.4403887 29.3659193,46.9090762 29.3659193,40.1117012 C29.3659193,33.3125637 23.7493579,27.7806637 16.8455684,27.7806637 C9.94297193,27.7806637 4.32581404,33.3125637 4.32581404,40.1117012 C4.32581404,46.9090762 9.94297193,52.4403887 16.8455684,52.4403887 Z M104.204375,24 L106,24 L106,35 L104.313537,35 L104.313537,27.1116924 L101.284441,32.2971773 L101.229569,32.2971773 L98.2279095,27.1431439 L98.2279095,35 L96.5688829,35 L96.5688829,24 L98.3645078,24 L101.284441,29.2015452 L104.204375,24 Z M87,25.791398 L87,24 L94.7866843,24 L94.7866843,25.791398 L91.742995,25.791398 L91.742995,35 L90.0436893,35 L90.0436893,25.791398 L87,25.791398 Z" id="Combined-Shape"></path>
                </g>
            </g>
        </g>
    </g>
</svg>