<svg width="16" height="107" viewBox="0 0 16 107" fill="none" xmlns="http://www.w3.org/2000/svg">
<path d="M7.64644 106.354C7.8417 106.549 8.15829 106.549 8.35355 106.354L11.5355 103.172C11.7308 102.976 11.7308 102.66 11.5355 102.464C11.3403 102.269 11.0237 102.269 10.8284 102.464L8 105.293L5.17157 102.464C4.97631 102.269 4.65972 102.269 4.46446 102.464C4.2692 102.66 4.2692 102.976 4.46446 103.172L7.64644 106.354ZM7.5 -2.18557e-08L7.5 3.92593L8.5 3.92593L8.5 2.18557e-08L7.5 -2.18557e-08ZM7.5 7.85185L7.5 15.7037L8.5 15.7037L8.5 7.85185L7.5 7.85185ZM7.5 19.6296L7.5 27.4815L8.5 27.4815L8.5 19.6296L7.5 19.6296ZM7.5 31.4074L7.5 39.2593L8.5 39.2593L8.5 31.4074L7.5 31.4074ZM7.5 43.1852L7.5 51.037L8.5 51.037L8.5 43.1852L7.5 43.1852ZM7.5 54.963L7.5 62.8148L8.5 62.8148L8.5 54.963L7.5 54.963ZM7.5 66.7407L7.5 74.5926L8.5 74.5926L8.5 66.7407L7.5 66.7407ZM7.5 78.5185L7.5 86.3704L8.5 86.3704L8.5 78.5185L7.5 78.5185ZM7.5 90.2963L7.5 98.1481L8.5 98.1481L8.5 90.2963L7.5 90.2963ZM7.5 102.074L7.5 106L8.5 106L8.5 102.074L7.5 102.074ZM7.29289 106.707C7.68341 107.098 8.31658 107.098 8.7071 106.707L15.0711 100.343C15.4616 99.9526 15.4616 99.3195 15.0711 98.9289C14.6805 98.5384 14.0474 98.5384 13.6568 98.9289L8 104.586L2.34314 98.9289C1.95262 98.5384 1.31945 98.5384 0.928928 98.9289C0.538403 99.3195 0.538403 99.9526 0.928928 100.343L7.29289 106.707ZM7 -4.37114e-08L7 3.92593L9 3.92593L9 4.37114e-08L7 -4.37114e-08ZM7 7.85185L7 15.7037L9 15.7037L9 7.85185L7 7.85185ZM7 19.6296L7 27.4815L9 27.4815L9 19.6296L7 19.6296ZM7 31.4074L7 39.2593L9 39.2593L9 31.4074L7 31.4074ZM7 43.1852L7 51.037L9 51.037L9 43.1852L7 43.1852ZM7 54.963L7 62.8148L9 62.8148L9 54.963L7 54.963ZM7 66.7407L7 74.5926L9 74.5926L9 66.7407L7 66.7407ZM7 78.5185L7 86.3704L9 86.3704L9 78.5185L7 78.5185ZM7 90.2963L7 98.1481L9 98.1481L9 90.2963L7 90.2963ZM7 102.074L7 106L9 106L9 102.074L7 102.074Z" fill="white"/>
</svg>
