<svg width="48" height="48" viewBox="0 0 48 48" fill="none" xmlns="http://www.w3.org/2000/svg">
<circle opacity="0.6" cx="23.5516" cy="23.5516" r="23.5516" fill="white"/>
<path fill-rule="evenodd" clip-rule="evenodd" d="M23.5501 15.1253L22.2639 13.8032C19.2448 10.6997 13.7089 11.7707 11.7105 15.6724C10.7723 17.5075 10.5606 20.1571 12.2738 23.5386C13.9241 26.7945 17.3576 30.6944 23.5501 34.9423C29.7427 30.6944 33.1744 26.7945 34.8265 23.5386C36.5397 20.1553 36.3298 17.5075 35.3898 15.6724C33.3914 11.7707 27.8555 10.6979 24.8364 13.8014L23.5501 15.1253ZM23.5501 37.104C-3.95556 18.9283 15.0812 4.74222 23.2344 12.2461C23.3421 12.3447 23.4479 12.447 23.5501 12.5528C23.6514 12.4471 23.7567 12.3453 23.8659 12.2479C32.0173 4.73863 51.0559 18.9265 23.5501 37.104Z" fill="white"/>
</svg>
