<svg width="48" height="48" viewBox="0 0 48 48" fill="none" xmlns="http://www.w3.org/2000/svg">
<circle opacity="0.6" cx="23.5328" cy="23.5328" r="23.5328" fill="white"/>
<path d="M31.9218 37.7293C31.5008 37.7289 31.0895 37.6028 30.7405 37.3673L23.6339 32.6041C23.5989 32.58 23.5574 32.567 23.5148 32.567C23.4723 32.567 23.4307 32.58 23.3957 32.6041L16.2891 37.3673C15.9323 37.6055 15.5114 37.7296 15.0823 37.7231C14.6533 37.7165 14.2364 37.5795 13.887 37.3304C13.5376 37.0813 13.2723 36.7318 13.1262 36.3283C12.9801 35.9248 12.9603 35.4865 13.0692 35.0714L15.4032 26.8407C15.4142 26.7993 15.4129 26.7556 15.3993 26.715C15.3858 26.6743 15.3606 26.6386 15.327 26.6121L8.60141 21.325C8.24735 21.0612 7.98472 20.6933 7.85034 20.2727C7.71596 19.8522 7.71657 19.4001 7.85208 18.9799C7.98759 18.5597 8.25121 18.1925 8.60598 17.9297C8.96074 17.6669 9.38886 17.5217 9.8303 17.5145L18.404 17.1906C18.4461 17.1877 18.4865 17.1726 18.5203 17.1473C18.5541 17.1219 18.5799 17.0873 18.5945 17.0477L21.5476 9.01702C21.6965 8.6099 21.9669 8.25836 22.3221 8.00999C22.6774 7.76162 23.1004 7.62842 23.5339 7.62842C23.9674 7.62842 24.3904 7.76162 24.7456 8.00999C25.1009 8.25836 25.3713 8.6099 25.5201 9.01702L28.4733 17.0477C28.4879 17.0873 28.5136 17.1219 28.5474 17.1473C28.5812 17.1726 28.6216 17.1877 28.6638 17.1906L37.2374 17.5145C37.6789 17.5217 38.107 17.6669 38.4618 17.9297C38.8165 18.1925 39.0802 18.5597 39.2157 18.9799C39.3512 19.4001 39.3518 19.8522 39.2174 20.2727C39.083 20.6933 38.8204 21.0612 38.4663 21.325L31.7408 26.6121C31.7061 26.6377 31.6802 26.6734 31.6665 26.7143C31.6529 26.7553 31.6522 26.7994 31.6646 26.8407L33.9985 35.0714C34.0804 35.3871 34.0886 35.7175 34.0223 36.0368C33.956 36.3562 33.817 36.656 33.6162 36.913C33.4154 37.17 33.1581 37.3773 32.8642 37.5189C32.5704 37.6604 32.2479 37.7324 31.9218 37.7293ZM23.5196 30.6608C23.9414 30.6737 24.3497 30.8131 24.6913 31.0609L31.7979 35.824C31.8339 35.8514 31.8779 35.8664 31.9231 35.8667C31.9683 35.8671 32.0125 35.8528 32.0489 35.826C32.0853 35.7992 32.1121 35.7613 32.1253 35.718C32.1384 35.6748 32.1372 35.6284 32.1218 35.5858L29.7879 27.3551C29.673 26.9514 29.6815 26.5225 29.8122 26.1236C29.9429 25.7247 30.1899 25.374 30.5214 25.1165L37.247 19.8294C37.2837 19.8036 37.3111 19.7667 37.3253 19.7242C37.3395 19.6817 37.3397 19.6357 37.3258 19.5931C37.312 19.5504 37.2848 19.5134 37.2483 19.4873C37.2118 19.4613 37.168 19.4476 37.1231 19.4483L28.5495 19.1244C28.1297 19.1081 27.7242 18.967 27.3849 18.7193C27.0456 18.4716 26.7877 18.1284 26.6442 17.7336L23.6911 9.70291C23.6777 9.66027 23.6512 9.623 23.6152 9.59654C23.5792 9.57008 23.5357 9.5558 23.491 9.5558C23.4463 9.5558 23.4028 9.57008 23.3668 9.59654C23.3309 9.623 23.3043 9.66027 23.291 9.70291L20.3664 17.7241C20.2229 18.1189 19.965 18.4621 19.6257 18.7098C19.2864 18.9575 18.8809 19.0985 18.4611 19.1149L9.88746 19.4388C9.84263 19.4381 9.79875 19.4517 9.76227 19.4778C9.72578 19.5038 9.69862 19.5409 9.68476 19.5836C9.6709 19.6262 9.67109 19.6722 9.68528 19.7147C9.69947 19.7572 9.72693 19.7941 9.76362 19.8198L16.4987 25.1165C16.8292 25.3748 17.0754 25.7256 17.206 26.1242C17.3367 26.5228 17.3458 26.9513 17.2322 27.3551L14.9078 35.5858C14.8939 35.6271 14.8939 35.6717 14.9076 35.7129C14.9214 35.7542 14.9482 35.7898 14.984 35.8145C15.0185 35.844 15.0625 35.8602 15.1079 35.8602C15.1533 35.8602 15.1972 35.844 15.2317 35.8145L22.3383 31.0513C22.6856 30.821 23.0933 30.6983 23.5101 30.6989L23.5196 30.6608Z" fill="white"/>
</svg>
