<svg width="48" height="48" viewBox="0 0 48 48" fill="none" xmlns="http://www.w3.org/2000/svg">
<circle opacity="0.6" cx="23.5325" cy="23.5325" r="23.5325" fill="white"/>
<path d="M39.8587 17.4492L34.3748 10.8685C34.2706 10.744 34.1165 10.6716 33.9536 10.6716H13.1147C12.9518 10.6716 12.7977 10.7435 12.6935 10.8685L7.20959 17.4492C7.07302 17.6126 7.0434 17.8402 7.13388 18.0326C7.22437 18.2251 7.41793 18.3485 7.63071 18.3485H39.4375C39.6502 18.3485 39.8438 18.2251 39.9343 18.0326C40.0243 17.8408 39.9953 17.6131 39.8587 17.4492ZM8.80162 17.2518L13.3714 11.7679H33.6964L38.2662 17.2518H8.80162Z" fill="white" stroke="white" stroke-width="0.5"/>
<path d="M24.0412 11.0093C23.9562 10.8042 23.7561 10.6709 23.5345 10.6709H13.115C12.9187 10.6709 12.7377 10.7757 12.6396 10.9462C12.5415 11.1168 12.542 11.3257 12.6413 11.4957L16.48 18.0764C16.5655 18.2228 16.7142 18.3221 16.8831 18.344C16.9067 18.3468 16.9302 18.3484 16.9532 18.3484C17.098 18.3484 17.2379 18.2914 17.3415 18.1877L23.9222 11.607C24.0791 11.4502 24.1262 11.2143 24.0412 11.0093ZM17.0684 16.9094L14.0692 11.7677H22.2101L17.0684 16.9094Z" fill="white" stroke="white" stroke-width="0.5"/>
<path d="M39.9282 17.5581C39.836 17.3711 39.6452 17.2527 39.4368 17.2527H7.63006C7.42165 17.2527 7.23136 17.3711 7.13869 17.5581C7.04653 17.7451 7.06793 17.9683 7.1946 18.1339L23.098 38.9729C23.2017 39.1089 23.3629 39.1889 23.534 39.1889C23.7051 39.1889 23.8663 39.1089 23.9689 38.9729L39.8723 18.1339C39.9989 17.9683 40.0203 17.7451 39.9282 17.5581ZM23.534 37.7368L8.73888 18.3501H38.3291L23.534 37.7368Z" fill="white" stroke="white" stroke-width="0.5"/>
<path d="M24.0566 38.475L17.4759 17.636C17.4036 17.4079 17.1924 17.2527 16.9528 17.2527H7.63006C7.42165 17.2527 7.23136 17.3711 7.13869 17.5581C7.04653 17.7451 7.06793 17.9683 7.1946 18.1339L23.098 38.9729C23.2044 39.1127 23.3673 39.1889 23.534 39.1889C23.6195 39.1889 23.7061 39.1692 23.7862 39.1264C24.0226 39.0042 24.1367 38.7289 24.0566 38.475ZM8.73837 18.3501H16.5508L22.0654 35.8131L8.73837 18.3501Z" fill="white" stroke="white" stroke-width="0.5"/>
<path d="M34.4278 10.9462C34.3302 10.7757 34.1487 10.6709 33.9524 10.6709H23.5329C23.3114 10.6709 23.1112 10.8042 23.0262 11.0093C22.9411 11.2143 22.9883 11.4502 23.1452 11.607L29.7259 18.1877C29.829 18.2914 29.9688 18.3484 30.1136 18.3484C30.1372 18.3484 30.1608 18.3467 30.1844 18.344C30.3527 18.3221 30.5019 18.2234 30.5874 18.0764L34.4262 11.4957C34.5249 11.3257 34.5254 11.1168 34.4278 10.9462ZM29.9984 16.9094L24.8567 11.7677H32.9976L29.9984 16.9094Z" fill="white" stroke="white" stroke-width="0.5"/>
<path d="M39.9278 17.5586C39.8356 17.3716 39.6448 17.2532 39.4364 17.2532H30.1137C29.8741 17.2532 29.6624 17.4084 29.5905 17.6365L23.0098 38.4755C22.9297 38.7288 23.0438 39.0041 23.2802 39.127C23.3602 39.1686 23.4469 39.1884 23.5324 39.1884C23.6986 39.1884 23.8615 39.1122 23.9684 38.9734L39.8718 18.1345C39.9985 17.9688 40.0199 17.7456 39.9278 17.5586ZM25.0005 35.8124L30.5152 18.3493H38.3276L25.0005 35.8124Z" fill="white" stroke="white" stroke-width="0.5"/>
</svg>
