<svg width="16" height="59" viewBox="0 0 16 59" fill="none" xmlns="http://www.w3.org/2000/svg">
<path d="M7.64644 58.3536C7.84171 58.5488 8.15829 58.5488 8.35355 58.3536L11.5355 55.1716C11.7308 54.9763 11.7308 54.6597 11.5355 54.4645C11.3403 54.2692 11.0237 54.2692 10.8284 54.4645L8 57.2929L5.17157 54.4645C4.97631 54.2692 4.65973 54.2692 4.46446 54.4645C4.2692 54.6597 4.2692 54.9763 4.46446 55.1716L7.64644 58.3536ZM7.5 -2.18557e-08L7.5 2.63636L8.5 2.63636L8.5 2.18557e-08L7.5 -2.18557e-08ZM7.5 8.96364L7.5 14.2364L8.5 14.2364L8.5 8.96364L7.5 8.96364ZM7.5 20.5636L7.5 25.8364L8.5 25.8364L8.5 20.5636L7.5 20.5636ZM7.5 32.1636L7.5 37.4364L8.5 37.4364L8.5 32.1636L7.5 32.1636ZM7.5 43.7636L7.5 49.0364L8.5 49.0364L8.5 43.7636L7.5 43.7636ZM7.5 55.3636L7.5 58L8.5 58L8.5 55.3636L7.5 55.3636ZM7.29289 58.7071C7.68341 59.0976 8.31658 59.0976 8.7071 58.7071L15.0711 52.3431C15.4616 51.9526 15.4616 51.3195 15.0711 50.9289C14.6805 50.5384 14.0474 50.5384 13.6569 50.9289L8 56.5858L2.34314 50.9289C1.95262 50.5384 1.31945 50.5384 0.92893 50.9289C0.538406 51.3195 0.538406 51.9526 0.92893 52.3431L7.29289 58.7071ZM7 -4.37114e-08L7 2.63636L9 2.63636L9 4.37114e-08L7 -4.37114e-08ZM7 8.96364L7 14.2364L9 14.2364L9 8.96364L7 8.96364ZM7 20.5636L7 25.8364L9 25.8364L9 20.5636L7 20.5636ZM7 32.1636L7 37.4364L9 37.4364L9 32.1636L7 32.1636ZM7 43.7636L7 49.0364L9 49.0364L9 43.7636L7 43.7636ZM7 55.3636L7 58L9 58L9 55.3636L7 55.3636Z" fill="white"/>
</svg>
