<svg width="154" height="68" viewBox="0 0 154 68" fill="none" xmlns="http://www.w3.org/2000/svg">
<rect width="154" height="68" fill="white"/>
<path fill-rule="evenodd" clip-rule="evenodd" d="M17.1191 13.1502V14.2792H18.6867V18.7727H19.9126V14.2792H21.4882V13.1502H17.1191Z" fill="#1D1D1B"/>
<path fill-rule="evenodd" clip-rule="evenodd" d="M25.1829 13.1502V15.3156H23.0501V13.1502H21.8242V18.7727H23.0501V16.4479H25.1829V18.7727H26.4088V13.1502H25.1829Z" fill="#1D1D1B"/>
<path fill-rule="evenodd" clip-rule="evenodd" d="M26.7378 13.1502V18.7727H30.2286V17.6411H27.9637V16.4858H29.9292V15.3845H27.9637V14.2738H30.1396V13.1502H26.7378Z" fill="#1D1D1B"/>
<path fill-rule="evenodd" clip-rule="evenodd" d="M34.3184 13.1502L32.0977 18.7727H33.3983L33.7875 17.7067H36.0421L36.4376 18.7727H37.7681L35.4761 13.1502H34.3184ZM34.9093 14.6358L35.6566 16.6464H34.1698L34.9093 14.6358Z" fill="#1D1D1B"/>
<path fill-rule="evenodd" clip-rule="evenodd" d="M38.0967 13.1502V18.7727H41.4969V17.6441H39.3226V13.1502H38.0967Z" fill="#1D1D1B"/>
<path fill-rule="evenodd" clip-rule="evenodd" d="M41.8364 13.1502V18.7727H45.2365V17.6441H43.0623V13.1502H41.8364Z" fill="#1D1D1B"/>
<path fill-rule="evenodd" clip-rule="evenodd" d="M50.6964 13.1502V16.5794L48.2126 13.1502H47.1055V18.7727H48.3087V15.2589L50.8746 18.7727H51.8997V13.1502H50.6964Z" fill="#1D1D1B"/>
<path fill-rule="evenodd" clip-rule="evenodd" d="M52.229 13.1502V18.7727H55.7198V17.6411H53.4549V16.4858H55.4202V15.3845H53.4549V14.2738H55.631V13.1502H52.229Z" fill="#1D1D1B"/>
<path fill-rule="evenodd" clip-rule="evenodd" d="M62.895 13.1502L61.8069 16.8852L60.2779 13.2068H59.8644L58.3763 16.886L57.2639 13.1502H55.9629L57.7514 18.7727H58.8416L60.0704 15.6208L61.336 18.7727H62.4265L64.1743 13.1502H62.895Z" fill="#1D1D1B"/>
<path fill-rule="evenodd" clip-rule="evenodd" d="M38.2582 41.4398V48.448L33.0823 41.4398H29.832V54.7978H33.4304V47.5486L38.7853 54.7978H41.8568V41.4398H38.2582Z" fill="#1D1D1B"/>
<path fill-rule="evenodd" clip-rule="evenodd" d="M54.1733 41.4398V44.7533H57.8351V54.7978H61.5646V44.7533H65.2266V41.4398H54.1733Z" fill="#1D1D1B"/>
<path fill-rule="evenodd" clip-rule="evenodd" d="M66.1128 54.7976H69.8757V41.4397H66.1128V54.7976Z" fill="#1D1D1B"/>
<path fill-rule="evenodd" clip-rule="evenodd" d="M80.4027 41.4398L77.7182 49.7435L74.9657 41.4398H70.729L75.9994 54.7978H79.4578L84.6173 41.4398H80.4027Z" fill="#1D1D1B"/>
<path fill-rule="evenodd" clip-rule="evenodd" d="M47.8685 41.4398L42.709 54.7978H46.9236L49.6086 46.4942L52.3605 54.7978H56.5973L51.3269 41.4398H47.8685Z" fill="#1D1D1B"/>
<path fill-rule="evenodd" clip-rule="evenodd" d="M90.3208 41.4398V54.7974H99.1089V51.6056H94.018V49.6063H98.4451V46.5876H94.018V44.6211H98.9457V41.4398H90.3208Z" fill="#1D1D1B"/>
<path fill-rule="evenodd" clip-rule="evenodd" d="M109.075 48.108C109.075 46.1264 107.745 44.8101 105.748 44.8101H104.198V51.4276H105.748C107.745 51.4276 109.075 50.0787 109.075 48.108ZM112.882 48.108C112.882 52.006 109.994 54.7977 105.924 54.7977H100.468V41.4401H105.924C110.005 41.4401 112.882 44.2045 112.882 48.108Z" fill="#1D1D1B"/>
<mask id="mask0" mask-type="alpha" maskUnits="userSpaceOnUse" x="112" y="41" width="12" height="14">
<path fill-rule="evenodd" clip-rule="evenodd" d="M112.752 41.4398H123.805V54.7978H112.752V41.4398Z" fill="white"/>
</mask>
<g mask="url(#mask0)">
<path fill-rule="evenodd" clip-rule="evenodd" d="M123.805 44.7534H120.143V54.7979H116.414V44.7534H112.752V41.4398H123.805V44.7534Z" fill="#1D1D1B"/>
</g>
<mask id="mask1" mask-type="alpha" maskUnits="userSpaceOnUse" x="124" y="41" width="13" height="14">
<path fill-rule="evenodd" clip-rule="evenodd" d="M124.692 41.4399H136.717V54.7976H124.692V41.4399Z" fill="white"/>
</mask>
<g mask="url(#mask1)">
<path fill-rule="evenodd" clip-rule="evenodd" d="M136.717 41.4399V54.7976H133.646L128.291 47.5488V54.7976H124.692V41.4399H127.942L133.119 48.4479V41.4399H136.717Z" fill="#1D1D1B"/>
</g>
<path fill-rule="evenodd" clip-rule="evenodd" d="M62.1698 29.8397V36.2981H58.442V30.2689C58.442 29.0321 58.0036 28.4015 57.0307 28.4015C55.9026 28.4015 55.1996 29.1946 55.1996 30.5711V36.2981H51.4717V21.7003H55.1996V26.2789C55.9963 25.6429 57.0097 25.2558 58.0884 25.2558C60.573 25.2558 62.1698 27.0598 62.1698 29.8397Z" fill="#1D1D1B"/>
<path fill-rule="evenodd" clip-rule="evenodd" d="M74.4111 25.5731L69.8751 35.8207C68.4161 39.1034 67.0752 40.2888 64.2807 40.2888H63.0045V37.1146H64.0296C65.4554 37.1146 65.8856 36.7465 66.3906 35.412L61.9185 25.5731H65.9693L68.2663 31.4813L70.4061 25.5731H74.4111Z" fill="#1D1D1B"/>
<path fill-rule="evenodd" clip-rule="evenodd" d="M83.3079 30.9353C83.3079 29.5264 82.2814 28.4811 80.8855 28.4811C79.489 28.4811 78.4625 29.5264 78.4625 30.9353C78.4625 32.3443 79.489 33.3899 80.8855 33.3899C82.2729 33.3899 83.3079 32.3443 83.3079 30.9353ZM87.0589 30.9357C87.0589 34.2769 84.6936 36.6608 81.3838 36.6608C80.4053 36.6608 79.5094 36.4058 78.7455 35.9488V40.1711H75.0605V25.5732H77.5953L78.0625 26.4254C78.9528 25.6625 80.098 25.2216 81.3838 25.2216C84.6936 25.2216 87.0589 27.5942 87.0589 30.9357Z" fill="#1D1D1B"/>
<path fill-rule="evenodd" clip-rule="evenodd" d="M91.4124 29.7666H95.7874C95.4604 28.6947 94.6808 28.1162 93.5556 28.1162C92.4692 28.1162 91.7141 28.7014 91.4124 29.7666ZM99.4595 30.8342C99.4595 31.1574 99.4314 31.4806 99.3825 31.8125H91.3464C91.5905 33.0425 92.3788 33.6787 93.5558 33.6787C94.4267 33.6787 95.1541 33.3007 95.5124 32.6729H99.2222C98.4604 35.1204 96.2712 36.6498 93.5558 36.6498C90.1791 36.6498 87.6772 34.2041 87.6772 30.9274C87.6772 27.6394 90.1589 25.2216 93.5558 25.2216C97.0445 25.2216 99.4596 27.6882 99.4596 30.8342H99.4595Z" fill="#1D1D1B"/>
<path fill-rule="evenodd" clip-rule="evenodd" d="M107.741 25.5221V28.9029H106.294C104.974 28.9029 104.422 29.4764 104.422 30.8444V36.2979H100.694V25.5729H103.191L103.773 26.7632C104.536 25.8884 105.466 25.5221 106.754 25.5221H107.741Z" fill="#1D1D1B"/>
<path fill-rule="evenodd" clip-rule="evenodd" d="M23.1229 32.9768C24.4581 32.9768 25.4186 31.995 25.4186 30.6302C25.4186 29.2769 24.4611 28.2948 23.1229 28.2948C21.7877 28.2948 20.8183 29.2769 20.8183 30.6302C20.8183 31.995 21.7762 32.9768 23.1226 32.9768H23.1229ZM28.8955 25.5849V35.1078C28.8955 38.4748 26.675 40.5601 23.1096 40.5601C20.0462 40.5601 17.9018 39.0272 17.405 36.4884H20.9933C21.2505 37.2046 22.1719 37.5902 23.0751 37.5902C24.321 37.5902 25.3224 36.8047 25.3224 35.5303V35.2106C24.511 35.7219 23.5476 36.015 22.5057 36.015C19.4107 36.015 17.1113 33.73 17.1113 30.6302C17.1113 27.5754 19.4107 25.2421 22.5057 25.2421C23.8122 25.2421 24.9954 25.707 25.9103 26.4836L26.3821 25.5847L28.8955 25.5849Z" fill="#1D1D1B"/>
<mask id="mask2" mask-type="alpha" maskUnits="userSpaceOnUse" x="17" y="13" width="120" height="42">
<path fill-rule="evenodd" clip-rule="evenodd" d="M17.1113 54.7978H136.717V13.1501H17.1113V54.7978Z" fill="white"/>
</mask>
<g mask="url(#mask2)">
<path fill-rule="evenodd" clip-rule="evenodd" d="M30.3125 36.298H34.0307V21.7159H30.3125V36.298Z" fill="#1D1D1B"/>
<path fill-rule="evenodd" clip-rule="evenodd" d="M41.4997 33.3344C42.8553 33.3344 43.8277 32.3582 43.8277 30.9416C43.8277 29.5339 42.8553 28.5488 41.4997 28.5488C40.1437 28.5488 39.1717 29.5254 39.1717 30.9416C39.1717 32.3579 40.1437 33.3341 41.4997 33.3341V33.3344ZM35.4473 30.9413C35.4473 27.6204 37.9801 25.2338 41.4997 25.2338C45.0078 25.2338 47.5518 27.6204 47.5518 30.9413C47.5518 34.2511 45.0078 36.6493 41.4997 36.6493C37.9801 36.6493 35.4473 34.2511 35.4473 30.9413Z" fill="#1D1D1B"/>
</g>
<path d="M142.076 46L142.051 44.4684L143.4 45.2911L144 44.2532L142.664 43.5063L144 42.7468L143.4 41.7089L142.051 42.5443L142.076 41H140.924L140.936 42.5443L139.588 41.7089L139 42.7468L140.336 43.5063L139 44.2532L139.588 45.2911L140.936 44.4557L140.924 46H142.076Z" fill="#1D1D1B"/>
</svg>
