<svg width="394" height="528" viewBox="0 0 394 528" fill="none" xmlns="http://www.w3.org/2000/svg">
<g opacity="0.0751023">
<path fill-rule="evenodd" clip-rule="evenodd" d="M394 517.408L296.277 517.244L42.9951 218.174L43.1843 218.01C-4.39535 162.236 2.53984 78.7585 58.7359 31.4527C85.7832 8.69183 119.324 -1.51982 152.193 0.18212L173.86 81.0961C152.928 69.6337 126.175 71.4176 106.862 87.6783C81.9373 108.676 78.869 145.729 100.032 170.458L394 517.408ZM343.433 290.573V212.865C295.364 212.865 252.959 237.689 227.551 275.519L280.476 340.372C287.909 311.709 313.254 290.573 343.433 290.573ZM153.418 455.478C167.955 455.478 181.594 451.595 193.395 444.788L240.193 501.652C215.508 518.903 185.637 529 153.418 529C68.6848 529 0 459.137 0 372.922C0 330.264 16.8445 291.612 44.1224 263.446L90.9195 320.289C79.2815 334.577 72.2783 352.932 72.2783 372.922C72.2783 418.543 108.601 455.478 153.418 455.478Z" fill="#D8D8D8"/>
</g>
</svg>
