<svg width="31" height="71" viewBox="0 0 31 71" fill="none" xmlns="http://www.w3.org/2000/svg">
<g id="arr1">
<g id="Group 6">
<path id="Combined Shape" d="M2.40862 4.14486L1.18536 5.01298C0.705908 4.33739 0.86491 3.40105 1.5405 2.9216L2.40862 4.14486ZM3.27674 5.36812L2.05348 6.23624V6.23624L3.27674 5.36812ZM4.85514 2.40862L3.98702 1.18536C4.31145 0.955118 4.71405 0.863187 5.10626 0.929789C5.49847 0.996391 5.84816 1.21607 6.0784 1.5405L4.85514 2.40862ZM5.72326 3.63188L4.5 4.5V4.5L5.72326 3.63188ZM27.5758 34.4242L26.7077 35.6474C26.5702 35.5498 26.4502 35.4298 26.3526 35.2923L27.5758 34.4242ZM28.5914 35.1449L29.4595 33.9216C30.1351 34.401 30.2941 35.3374 29.8146 36.013L28.5914 35.1449ZM28.3393 35.5L27.1161 36.3681C26.7471 35.8482 26.7471 35.1518 27.1161 34.6319L28.3393 35.5ZM28.5914 35.8551L29.8146 34.987C30.2941 35.6626 30.1351 36.5989 29.4595 37.0784L28.5914 35.8551ZM27.5758 36.5758L26.3526 35.7077C26.4502 35.5702 26.5702 35.4502 26.7077 35.3526L27.5758 36.5758ZM5.72326 67.3681L4.5 66.5V66.5L5.72326 67.3681ZM4.85514 68.5914L6.0784 69.4595C5.84816 69.7839 5.49847 70.0036 5.10626 70.0702C4.71405 70.1368 4.31145 70.0449 3.98702 69.8146L4.85514 68.5914ZM2.40862 66.8551L1.5405 68.0784C0.86491 67.5989 0.70591 66.6626 1.18536 65.987L2.40862 66.8551ZM3.27674 65.6319L2.05348 64.7638V64.7638L3.27674 65.6319ZM24.6607 35.5L25.8839 34.6319C26.2529 35.1518 26.2529 35.8482 25.8839 36.3681L24.6607 35.5ZM3.63188 3.27674L4.5 4.5L2.05348 6.23624L1.18536 5.01298L3.63188 3.27674ZM5.72326 3.63188L3.27674 5.36812L1.5405 2.9216L3.98702 1.18536L5.72326 3.63188ZM4.5 4.5L3.63188 3.27674L6.0784 1.5405L6.94652 2.76376L4.5 4.5ZM26.3526 35.2923L4.5 4.5L6.94652 2.76376L28.7991 33.556L26.3526 35.2923ZM28.444 33.2009L29.4595 33.9216L27.7233 36.3681L26.7077 35.6474L28.444 33.2009ZM29.8146 36.013L29.5626 36.3681L27.1161 34.6319L27.3681 34.2767L29.8146 36.013ZM27.3681 36.7233L27.1161 36.3681L29.5626 34.6319L29.8146 34.987L27.3681 36.7233ZM26.7077 35.3526L27.7233 34.6319L29.4595 37.0784L28.444 37.7991L26.7077 35.3526ZM28.7991 37.444L6.94652 68.2362L4.5 66.5L26.3526 35.7077L28.7991 37.444ZM6.94652 68.2362L6.0784 69.4595L3.63188 67.7233L4.5 66.5L6.94652 68.2362ZM3.98702 69.8146L1.5405 68.0784L3.27674 65.6319L5.72326 67.3681L3.98702 69.8146ZM1.18536 65.987L2.05348 64.7638L4.5 66.5L3.63188 67.7233L1.18536 65.987ZM2.05348 64.7638L23.4374 34.6319L25.8839 36.3681L4.5 66.5L2.05348 64.7638ZM4.5 4.5L25.8839 34.6319L23.4374 36.3681L2.05348 6.23624L4.5 4.5Z" fill="#979797"/>
</g>
</g>
</svg>
