<svg width="31" height="71" viewBox="0 0 31 71" fill="none" xmlns="http://www.w3.org/2000/svg">
<g id="arr1">
<g id="Group 6">
<path id="Combined Shape" d="M28.5914 4.14486L29.8146 5.01298C30.2941 4.33739 30.1351 3.40105 29.4595 2.9216L28.5914 4.14486ZM27.7233 5.36812L28.9465 6.23624V6.23624L27.7233 5.36812ZM26.1449 2.40862L27.013 1.18536C26.6886 0.955118 26.2859 0.863187 25.8937 0.929789C25.5015 0.996391 25.1518 1.21607 24.9216 1.5405L26.1449 2.40862ZM25.2767 3.63188L26.5 4.5V4.5L25.2767 3.63188ZM3.42416 34.4242L4.29228 35.6474C4.42978 35.5498 4.54984 35.4298 4.64742 35.2923L3.42416 34.4242ZM2.40862 35.1449L1.5405 33.9216C0.86491 34.401 0.705909 35.3374 1.18536 36.013L2.40862 35.1449ZM2.66065 35.5L3.88391 36.3681C4.2529 35.8482 4.2529 35.1518 3.88391 34.6319L2.66065 35.5ZM2.40862 35.8551L1.18536 34.987C0.705909 35.6626 0.86491 36.5989 1.5405 37.0784L2.40862 35.8551ZM3.42416 36.5758L4.64742 35.7077C4.54984 35.5702 4.42978 35.4502 4.29228 35.3526L3.42416 36.5758ZM25.2767 67.3681L26.5 66.5V66.5L25.2767 67.3681ZM26.1449 68.5914L24.9216 69.4595C25.1518 69.7839 25.5015 70.0036 25.8937 70.0702C26.2859 70.1368 26.6886 70.0449 27.013 69.8146L26.1449 68.5914ZM28.5914 66.8551L29.4595 68.0784C30.1351 67.5989 30.2941 66.6626 29.8146 65.987L28.5914 66.8551ZM27.7233 65.6319L28.9465 64.7638V64.7638L27.7233 65.6319ZM6.33935 35.5L5.11609 34.6319C4.7471 35.1518 4.7471 35.8482 5.11609 36.3681L6.33935 35.5ZM27.3681 3.27674L26.5 4.5L28.9465 6.23624L29.8146 5.01298L27.3681 3.27674ZM25.2767 3.63188L27.7233 5.36812L29.4595 2.9216L27.013 1.18536L25.2767 3.63188ZM26.5 4.5L27.3681 3.27674L24.9216 1.5405L24.0535 2.76376L26.5 4.5ZM4.64742 35.2923L26.5 4.5L24.0535 2.76376L2.2009 33.556L4.64742 35.2923ZM2.55604 33.2009L1.5405 33.9216L3.27674 36.3681L4.29228 35.6474L2.55604 33.2009ZM1.18536 36.013L1.43739 36.3681L3.88391 34.6319L3.63188 34.2767L1.18536 36.013ZM3.63188 36.7233L3.88391 36.3681L1.43739 34.6319L1.18536 34.987L3.63188 36.7233ZM4.29228 35.3526L3.27674 34.6319L1.5405 37.0784L2.55604 37.7991L4.29228 35.3526ZM2.2009 37.444L24.0535 68.2362L26.5 66.5L4.64742 35.7077L2.2009 37.444ZM24.0535 68.2362L24.9216 69.4595L27.3681 67.7233L26.5 66.5L24.0535 68.2362ZM27.013 69.8146L29.4595 68.0784L27.7233 65.6319L25.2767 67.3681L27.013 69.8146ZM29.8146 65.987L28.9465 64.7638L26.5 66.5L27.3681 67.7233L29.8146 65.987ZM28.9465 64.7638L7.56261 34.6319L5.11609 36.3681L26.5 66.5L28.9465 64.7638ZM26.5 4.5L5.11609 34.6319L7.56261 36.3681L28.9465 6.23624L26.5 4.5Z" fill="#979797"/>
</g>
</g>
</svg>
