<svg xmlns="http://www.w3.org/2000/svg" viewBox="0 0 384 384" width="10" height="10">
	<style>
		tspan { white-space:pre }
		.shp0 { fill: #d20707 } 
	</style>
	<g id="Layer">
		<g id="Layer">
			<g id="Layer">
				<path id="Layer" class="shp0" d="M316.48 46.19L286.29 76.37C319.79 103.79 341.33 145.28 341.33 192C341.33 274.45 274.45 341.33 192 341.33C109.55 341.33 42.67 274.45 42.67 192C42.67 145.28 64.21 103.79 97.71 76.37L67.52 46.19C26.35 81.39 0 133.55 0 192C0 298.03 85.97 384 192 384C298.03 384 384 298.03 384 192C384 133.55 357.65 81.39 316.48 46.19Z" />
				<path id="Layer" class="shp0" d="M170.67 0L213.33 0L213.33 213.33L170.67 213.33L170.67 0Z" />
			</g>
		</g>
	</g>
	<g id="Layer">
	</g>
	<g id="Layer">
	</g>
	<g id="Layer">
	</g>
	<g id="Layer">
	</g>
	<g id="Layer">
	</g>
	<g id="Layer">
	</g>
	<g id="Layer">
	</g>
	<g id="Layer">
	</g>
	<g id="Layer">
	</g>
	<g id="Layer">
	</g>
	<g id="Layer">
	</g>
	<g id="Layer">
	</g>
	<g id="Layer">
	</g>
	<g id="Layer">
	</g>
	<g id="Layer">
	</g>
</svg>