<?xml version="1.0" encoding="utf-8"?>
<!-- Generator: Adobe Illustrator 24.0.1, SVG Export Plug-In . SVG Version: 6.00 Build 0)  -->
<svg version="1.1" id="Layer_1" xmlns="http://www.w3.org/2000/svg" xmlns:xlink="http://www.w3.org/1999/xlink" x="0px" y="0px"
	 viewBox="0 0 62 62" style="enable-background:new 0 0 62 62;" xml:space="preserve">
<style type="text/css">
	.st0{fill:none;}
	.st1{fill:#B0B0B0;}
</style>
<title>NANO_ICON</title>
<desc>Created with Sketch.</desc>
<g>
	<path class="st0" d="M29.7,43.5c-0.4,0-0.7,0.3-0.7,0.7s0.3,0.7,0.7,0.7c0.4,0,0.7-0.3,0.7-0.7S30.1,43.5,29.7,43.5z"/>
	<path class="st0" d="M32.6,43.5c-0.4,0-0.7,0.3-0.7,0.7s0.3,0.7,0.7,0.7s0.7-0.3,0.7-0.7S33,43.5,32.6,43.5z"/>
	<path class="st0" d="M27.4,9.7c-0.2,0-0.2,0-0.3,0c1.4,0.1,3.5,0.2,5.4,0.4C30.4,10,27.8,9.7,27.4,9.7z"/>
	<path class="st0" d="M31.2,15.2c-1,0-1.8,0.8-1.8,1.8s0.8,1.8,1.8,1.8c1,0,1.8-0.8,1.8-1.8C33,16.1,32.2,15.2,31.2,15.2z"/>
	<path class="st0" d="M37.5,19.2c0-1.1,0-3.9,0-4.1c0-1.2,0-1.7,0-2.1c0-0.6-0.1-0.9-0.3-1.1c-0.1,0-0.2-0.1-0.3-0.1
		c-0.1,0-0.2,0-0.4-0.1c-0.4,0-0.7-0.1-1.1-0.1c-0.2,0-0.4,0-0.6-0.1c-3-0.2-8.3-0.6-9-0.6c-0.7,0-0.8,0.1-0.8,1.2v12.6l12.7-3.1
		C37.6,20.8,37.6,20,37.5,19.2z M31.2,19.4c-1.3,0-2.3-1-2.3-2.3s1-2.3,2.3-2.3c1.3,0,2.3,1,2.3,2.3S32.5,19.4,31.2,19.4z"/>
	<path class="st0" d="M31,1.4C14.7,1.4,1.4,14.7,1.4,31S14.7,60.6,31,60.6c16.3,0,29.6-13.3,29.6-29.6S47.3,1.4,31,1.4z M38.8,47.9
		L38.8,47.9c0,2.8-0.3,3.1-2.8,3.1c-0.6,0-0.5,0-3.6,0c-0.6,0-1.1,0-1.6,0c-3.3,0-5.2,0-5.7,0c-0.8,0-1.2-0.2-1.4-0.8
		c-0.1-0.4-0.1-0.7-0.1-2.6c0-0.6,0-1,0-1.5v-8c0-4.5,0-4.5,0-9.7V12.2c0-1.8,0.6-2.5,2.1-2.5c0.1,0,0.2,0,0.4,0
		c0-0.1,0.1-0.2,0.1-0.2c0,0,0,0,0,0c0,0,0.1-0.1,0.1-0.2c0.2-0.3,0.5-0.4,1-0.4c0.8,0,7,0.6,7.7,0.7c0.6,0.1,1,0.4,1.3,0.9
		c0.1,0,0.2,0,0.3,0c0.1,0,0.3,0,0.4,0.1c0.3,0,0.6,0.1,1,0.3c0.5,0.4,0.8,1.1,0.8,2.1c0,0.3,0,0.9,0,2c0,0.2,0,3,0,4.1
		C38.8,27.4,38.8,37.7,38.8,47.9z"/>
	<path class="st0" d="M37.6,22.7l-12.7,3.1v2.5c0,5.1,0,5.1,0,9.7v8c0,0.5,0,0.9,0,1.5c0,1.6,0,2,0,2.2c0,0,0.1,0,0.2,0l0,0
		c0.5,0,2.4,0,5.7,0c0.5,0,1,0,1.6,0c3.1,0,3,0,3.6,0c1.9,0,1.6,0.3,1.6-1.8l0-0.1C37.6,39.1,37.6,30.3,37.6,22.7z M30.7,45
		c0,0.5-0.4,1-1,1c-0.1,0-0.1-0.1-0.1-0.1c0-0.1,0.1-0.1,0.1-0.1c0.4,0,0.7-0.3,0.7-0.7v-0.1c-0.2,0.2-0.4,0.3-0.7,0.3
		c-0.5,0-1-0.4-1-1s0.4-1,1-1c0.5,0,1,0.4,1,1V45z M31.3,45c0,0.1-0.1,0.1-0.1,0.1c-0.1,0-0.1-0.1-0.1-0.1v-2.9
		c0-0.1,0.1-0.1,0.1-0.1c0.1,0,0.1,0.1,0.1,0.1V45z M32.6,45.2c-0.5,0-1-0.4-1-1s0.4-1,1-1s1,0.4,1,1S33.1,45.2,32.6,45.2z"/>
	<path class="st1" d="M32.6,43.3c-0.5,0-1,0.4-1,1s0.4,1,1,1s1-0.4,1-1S33.1,43.3,32.6,43.3z M32.6,45c-0.4,0-0.7-0.3-0.7-0.7
		s0.3-0.7,0.7-0.7s0.7,0.3,0.7,0.7S33,45,32.6,45z"/>
	<path class="st1" d="M31.2,14.8c-1.3,0-2.3,1-2.3,2.3s1,2.3,2.3,2.3c1.3,0,2.3-1,2.3-2.3S32.5,14.8,31.2,14.8z M31.2,18.9
		c-1,0-1.8-0.8-1.8-1.8s0.8-1.8,1.8-1.8c1,0,1.8,0.8,1.8,1.8C33,18.1,32.2,18.9,31.2,18.9z"/>
	<path class="st1" d="M38.8,15.1c0-1.1,0-1.7,0-2c0-1-0.3-1.7-0.8-2.1c-0.3-0.3-0.7-0.3-1-0.3c-0.1,0-0.2,0-0.4-0.1
		c-0.1,0-0.2,0-0.3,0C36,10.1,35.6,9.8,35,9.7c-0.7-0.1-6.9-0.7-7.7-0.7c-0.5,0-0.8,0.1-1,0.4c0,0.1-0.2,0.2-0.1,0.2c0,0,0,0,0,0
		c0,0.1-0.1,0.1-0.1,0.2c-0.2,0-0.4,0-0.4,0c-1.4,0-2.1,0.7-2.1,2.5v16.1c0,5.1,0,5.1,0,9.7v8c0,0.5,0,0.9,0,1.5
		c0,1.9,0,2.2,0.1,2.6c0.2,0.7,0.6,0.8,1.4,0.8c0.5,0,2.4,0,5.7,0c0.5,0,1,0,1.6,0c3.1,0,3,0,3.6,0c2.6,0,2.8-0.3,2.8-3l0-0.1
		c0-10.2,0-20.5,0-28.7C38.8,18.1,38.8,15.3,38.8,15.1z M27.4,9.7c0.4,0,3.1,0.2,5.1,0.4c-1.9-0.2-4-0.3-5.4-0.4
		C27.1,9.7,27.2,9.7,27.4,9.7z M24.8,12.2c0-1.1,0.1-1.2,0.8-1.2c0.7,0,6.1,0.4,9,0.6c0.2,0,0.4,0,0.6,0.1c0.4,0,0.8,0.1,1.1,0.1
		c0.2,0,0.4,0,0.4,0.1c0.1,0,0.2,0.1,0.3,0.1c0.2,0.2,0.3,0.5,0.3,1.1c0,0.3,0,0.9,0,2.1c0,0.2,0,3,0,4.1c0,0.8,0,1.7,0,2.5
		l-12.7,3.1V12.2z M35.9,49.7c-0.6,0-0.5,0-3.6,0c-0.6,0-1.1,0-1.6,0c-3.3,0-5.2,0-5.7,0l0,0c-0.1,0-0.2,0-0.2,0
		c-0.1-0.2-0.1-0.6,0-2.2c0-0.6,0-1,0-1.5v-8c0-4.5,0-4.5,0-9.7v-2.5l12.7-3.1c0,7.5,0,16.4,0,25.1l0,0.1
		C37.5,50,37.8,49.7,35.9,49.7z"/>
	<path class="st1" d="M31.2,42C31.1,42,31,42,31,42.1V45c0,0.1,0.1,0.1,0.1,0.1c0.1,0,0.1-0.1,0.1-0.1v-2.9C31.3,42,31.2,42,31.2,42
		z"/>
	<path class="st1" d="M29.7,43.3c-0.5,0-1,0.4-1,1s0.4,1,1,1c0.3,0,0.5-0.1,0.7-0.3V45c0,0.4-0.3,0.7-0.7,0.7
		c-0.1,0-0.1,0.1-0.1,0.1c0,0.1,0.1,0.1,0.1,0.1c0.5,0,1-0.4,1-1v-0.8C30.7,43.7,30.2,43.3,29.7,43.3z M29.7,45
		c-0.4,0-0.7-0.3-0.7-0.7s0.3-0.7,0.7-0.7c0.4,0,0.7,0.3,0.7,0.7S30.1,45,29.7,45z"/>
	<path class="st1" d="M31,0C13.9,0,0,13.9,0,31s13.9,31,31,31c17.1,0,31-13.9,31-31S48.1,0,31,0z M31,60.6
		C14.7,60.6,1.4,47.3,1.4,31S14.7,1.4,31,1.4c16.3,0,29.6,13.3,29.6,29.6S47.3,60.6,31,60.6z"/>
</g>
</svg>
