<?xml version="1.0" encoding="utf-8"?>
<!-- Generator: Adobe Illustrator 24.0.1, SVG Export Plug-In . SVG Version: 6.00 Build 0)  -->
<svg version="1.1" id="Layer_1" xmlns="http://www.w3.org/2000/svg" xmlns:xlink="http://www.w3.org/1999/xlink" x="0px" y="0px"
	 viewBox="0 0 62 62" style="enable-background:new 0 0 62 62;" xml:space="preserve">
<style type="text/css">
	.st0{fill:none;}
	.st1{fill:#B0B0B0;}
</style>
<title>compact_icon</title>
<desc>Created with Sketch.</desc>
<g>
	<path class="st0" d="M49.3,18c0.1-0.3,0-0.5-0.3-0.7c-0.7-0.2-2.1-0.7-3.1-1.2c-0.4-0.2-0.8-0.3-1-0.4l-0.1,0c0,0-0.1,0.1-0.1,0.1
		l-1.5,4.7c0.2,0,0.4,0.1,0.6,0.1c1.2,0.2,3.2,0.6,3.2,0.6s0.7,0.1,1,0.1c-0.1,0.3-0.1,0.4-0.1,0.4s-0.5,0-1.1-0.1
		c-0.6-0.1-3.6-0.8-3.6-0.8s0,0,0,0l-2.3,7.2l5.7-1.5C47.8,22.9,49.2,18.4,49.3,18z M47,19.3c-0.1,0.3-0.3,0.5-0.5,0.6
		C46.3,20,46.2,20,46,20c-0.1,0-0.2,0-0.3,0c-0.5-0.2-0.8-0.7-0.6-1.3c0.1-0.3,0.3-0.5,0.5-0.6c0.2-0.1,0.5-0.1,0.8-0.1
		C46.8,18.2,47.1,18.8,47,19.3z"/>
	<path class="st0" d="M30.2,32.4c-0.2,0.1-0.4,0.2-0.6,0.2l3,12.9l0.9-0.3l-3.1-12.8H30.2z"/>
	<path class="st0" d="M49.3,28.7c-1,0.2-7.8,1.9-10.5,2.7c-1.1,0.3-2,0.2-2.6-0.3c-1-0.9-0.8-2.4-0.8-2.5c0.1-0.2,1-3.3,1.7-4.8
		l0.2-0.5c0.5-1,0.5-1-0.5-1.5c-0.8-0.4-1.2-0.3-1.3,0c0,0-2,5.3-2.6,7.1c0,0.1-0.1,0.2-0.2,0.3c-0.3,0.4-1,1.3-1.6,2.1
		c0.2,0.1,0.3,0.3,0.4,0.5l3.4,14c0,0,0,0,0,0c0.6,0.1,1.1,0,1.1,0c0.1,0,5.1-1.1,6.9-1.4c0.2,0,0.5-0.1,0.7-0.1
		c1.9-0.3,2.5-0.6,2.4-1.5c-0.1-0.6-0.3-0.8-0.4-0.8c-0.4-0.3-1.1-0.2-1.6-0.1c-0.2,0-0.4,0.1-0.6,0.1c-0.4,0.1-0.8-0.2-0.9-0.6
		c-0.1-0.4,0.2-0.8,0.6-0.8c0.2,0,0.4-0.1,0.6-0.1c2.8-0.5,3.7-0.8,3.7-1.7c0-0.6-0.3-0.8-0.3-0.8c-0.4-0.3-1.1-0.4-1.9-0.2
		c-0.4,0.1-0.8-0.2-0.8-0.6c-0.1-0.4,0.2-0.7,0.5-0.8c0.5-0.1,1-0.2,1.5-0.3c1.9-0.3,2.6-0.5,2.6-1.6c0-0.3-0.1-0.5-0.2-0.6
		c-0.5-0.4-1.8-0.3-2.3-0.2c-0.4,0.1-0.8-0.2-0.9-0.5c-0.1-0.4,0.1-0.7,0.5-0.9c0,0,1.4-0.4,2.6-0.7c0.3-0.1,0.6-0.1,0.8-0.2
		c1-0.2,1.1-0.4,0.9-1.4C50.3,28.9,49.6,28.8,49.3,28.7z"/>
	<path class="st0" d="M46.2,18.3c-0.1,0-0.1,0-0.2,0c-0.1,0-0.2,0-0.3,0.1c-0.2,0.1-0.3,0.2-0.4,0.4c-0.1,0.4,0.1,0.8,0.5,0.9
		c0.2,0.1,0.4,0,0.5,0c0.2-0.1,0.3-0.2,0.4-0.4C46.8,18.8,46.6,18.4,46.2,18.3z"/>
	<path class="st0" d="M31,1.2C14.6,1.2,1.2,14.6,1.2,31S14.6,60.8,31,60.8S60.8,47.4,60.8,31S47.4,1.2,31,1.2z M40,28.5
		c0,0,4-13,4.1-13c0,0,0.4-0.6,0.6-0.5c0.1,0,0.3,0,0.5,0.1c0.1,0,0.4,0.2,0.8,0.3l0.3,0.1c0.2,0.1,0.5,0.2,0.8,0.3
		c0.2,0.1,0.5,0.2,0.7,0.2c0.4,0.1,1,0.4,1,0.4c0.1,0,0.1,0.1,0.2,0.2c0.1,0,0.1,0,0.2,0c0,0,0.1,0,0.1,0c0.9,0.4,0.8,1.2,0.7,1.6
		c-0.1,0.4-1.6,5-2.7,8.8c0,0.1-0.1,0.2-0.2,0.2L40.4,29c0,0-0.1,0-0.1,0c-0.1,0-0.2,0-0.3-0.1C40,28.8,40,28.7,40,28.5z M49.9,32.3
		c-0.1,0-0.1,0-0.2,0c0,0,0,0,0,0c0.3,0.3,0.8,0.8,0.7,1.7c0,1.6-1,2.2-2.1,2.6c0.3,0.3,0.6,0.8,0.6,1.6c0.1,1.4-0.7,2.1-2,2.5
		c0.3,0.4,0.5,0.9,0.6,1.4c0.3,2.4-2,2.8-3.6,3.1c-0.2,0-0.5,0.1-0.7,0.1c-1.8,0.4-6.8,1.4-6.8,1.4c0,0-0.4,0.1-0.9,0.1
		c-0.5,0-1.1-0.1-1.7-0.4l-0.8,0.3l0.1,0.3c0.1,0.4-0.2,0.7-0.5,0.8c-0.1,0-0.1,0-0.2,0c-0.3,0-0.6-0.2-0.7-0.5l-3.9-16.9l-16.8,4.1
		c-0.4,0.1-0.8-0.1-0.9-0.5c-0.1-0.4,0.1-0.7,0.5-0.8L28.1,29c0.2,0,0.4,0,0.5,0.1c0.2,0.1,0.3,0.3,0.3,0.4l0.4,1.6
		c0,0,0.1-0.1,0.1-0.1c0.5-0.7,1.6-2.2,2.2-2.9c0.6-1.9,2.5-6.8,2.6-7.1c0-0.1,0.3-0.7,1-1c0.6-0.2,1.4-0.2,2.3,0.3
		c2.2,1.1,1.7,2.2,1.1,3.4l-0.2,0.5c-0.7,1.5-1.7,4.5-1.7,4.6c0,0.1,0,0.9,0.3,1.1c0.3,0.2,0.9,0.2,1.3,0c2.9-0.8,10.6-2.7,10.6-2.7
		c0.1,0,0.1,0,0.2,0c0.8,0,2.3,0.5,2.6,2C52.3,30.9,51.6,31.9,49.9,32.3z"/>
	<path class="st1" d="M46.3,18c-0.3-0.1-0.5-0.1-0.8,0.1c-0.2,0.1-0.4,0.3-0.5,0.6c-0.2,0.5,0.1,1.1,0.6,1.3c0.1,0,0.2,0,0.3,0
		c0.2,0,0.3,0,0.4-0.1c0.2-0.1,0.4-0.3,0.5-0.6C47.1,18.8,46.8,18.2,46.3,18z M46.7,19.2c-0.1,0.2-0.2,0.3-0.4,0.4
		c-0.2,0.1-0.4,0.1-0.5,0c-0.4-0.1-0.6-0.5-0.5-0.9c0.1-0.2,0.2-0.3,0.4-0.4c0.1-0.1,0.2-0.1,0.3-0.1c0.1,0,0.1,0,0.2,0
		C46.6,18.4,46.8,18.8,46.7,19.2z"/>
	<path class="st1" d="M49.3,27.3c-0.1,0-0.1,0-0.2,0c-0.1,0-7.7,1.9-10.6,2.7c-0.4,0.1-1,0.2-1.3,0c-0.3-0.3-0.3-1-0.3-1.1
		c0,0,1-3.1,1.7-4.6l0.2-0.5c0.5-1.1,1.1-2.3-1.1-3.4c-0.9-0.4-1.6-0.5-2.3-0.3c-0.7,0.3-1,0.9-1,1c-0.1,0.2-2,5.2-2.6,7.1
		c-0.6,0.7-1.7,2.2-2.2,2.9c0,0-0.1,0-0.1,0.1l-0.4-1.6c0-0.2-0.2-0.3-0.3-0.4C28.4,29,28.2,29,28.1,29l-17.5,4.3
		c-0.4,0.1-0.6,0.5-0.5,0.8c0.1,0.4,0.5,0.6,0.9,0.5l16.8-4.1l3.9,16.9c0.1,0.3,0.4,0.5,0.7,0.5c0.1,0,0.1,0,0.2,0
		c0.4-0.1,0.6-0.5,0.5-0.8l-0.1-0.3l0.8-0.3c0.6,0.3,1.2,0.4,1.7,0.4c0.6,0,0.9-0.1,0.9-0.1c0,0,5-1,6.8-1.4c0.2,0,0.5-0.1,0.7-0.1
		c1.5-0.3,3.9-0.7,3.6-3.1c-0.1-0.6-0.3-1.1-0.6-1.4c1.3-0.5,2.1-1.2,2-2.5c0-0.8-0.3-1.3-0.6-1.6c1.2-0.4,2.1-1,2.1-2.6
		c0-0.9-0.4-1.4-0.7-1.7c0,0,0,0,0,0c0.1,0,0.1,0,0.2,0c1.7-0.4,2.4-1.4,2-3.1C51.5,27.8,50,27.3,49.3,27.3z M32.6,45.5l-3-12.9
		c0.2,0,0.4,0,0.6-0.2h0.2l3.1,12.8L32.6,45.5z M49.6,30.9c-0.3,0.1-0.5,0.1-0.8,0.2c-1.2,0.3-2.6,0.7-2.6,0.7
		c-0.4,0.1-0.6,0.5-0.5,0.9c0.1,0.4,0.5,0.6,0.9,0.5c0.5-0.1,1.8-0.2,2.3,0.2c0.1,0.1,0.2,0.2,0.2,0.6c0,1.1-0.7,1.3-2.6,1.6
		c-0.5,0.1-1,0.2-1.5,0.3c-0.4,0.1-0.6,0.5-0.5,0.8c0.1,0.4,0.4,0.6,0.8,0.6c0.9-0.1,1.6-0.1,1.9,0.2c0.1,0.1,0.3,0.2,0.3,0.8
		c0,1-0.9,1.2-3.7,1.7c-0.2,0-0.4,0.1-0.6,0.1c-0.4,0.1-0.7,0.4-0.6,0.8c0.1,0.4,0.4,0.6,0.9,0.6c0.2,0,0.4-0.1,0.6-0.1
		c0.6-0.1,1.3-0.1,1.6,0.1c0.1,0.1,0.3,0.2,0.4,0.8c0.1,0.9-0.4,1.2-2.4,1.5c-0.2,0-0.5,0.1-0.7,0.1c-1.8,0.4-6.8,1.4-6.9,1.4
		c0,0-0.5,0.1-1.1,0c0,0,0,0,0,0l-3.4-14c-0.1-0.2-0.2-0.4-0.4-0.5c0.6-0.8,1.3-1.7,1.6-2.1c0.1-0.1,0.1-0.2,0.2-0.3
		c0.6-1.7,2.6-7.1,2.6-7.1c0.1-0.2,0.5-0.3,1.3,0c1,0.5,1,0.5,0.5,1.5l-0.2,0.5c-0.7,1.5-1.7,4.6-1.7,4.8c0,0.2-0.2,1.7,0.8,2.5
		c0.6,0.5,1.5,0.7,2.6,0.3c2.7-0.7,9.5-2.4,10.5-2.7c0.3,0,1,0.2,1.2,0.8C50.7,30.5,50.5,30.7,49.6,30.9z"/>
	<path class="st1" d="M40.3,29C40.4,29,40.4,29,40.3,29l6.6-1.7c0.1,0,0.2-0.1,0.2-0.2c1.2-3.8,2.6-8.5,2.7-8.8
		c0.1-0.4,0.2-1.1-0.7-1.6c0,0-0.1,0-0.1,0c-0.1,0-0.1,0-0.2,0c0-0.1-0.1-0.1-0.2-0.2c0,0-0.6-0.3-1-0.4c-0.2-0.1-0.4-0.1-0.7-0.2
		c-0.3-0.1-0.6-0.2-0.8-0.3L46,15.4c-0.4-0.2-0.7-0.3-0.8-0.3C45,15,44.8,15,44.6,15c-0.1,0-0.6,0.5-0.6,0.5c0,0-4.1,13-4.1,13
		c0,0.1,0,0.3,0.1,0.3C40.2,29,40.3,29,40.3,29z M43.1,20.9C43.2,20.9,43.2,20.9,43.1,20.9c0,0,3,0.6,3.6,0.8
		c0.6,0.1,1.1,0.1,1.1,0.1s0.1-0.1,0.1-0.4c-0.3,0-1-0.1-1-0.1s-2-0.4-3.2-0.6c-0.2,0-0.4-0.1-0.6-0.1l1.5-4.7
		c0-0.1,0.1-0.1,0.1-0.1l0.1,0c0.2,0.1,0.5,0.2,1,0.4c1,0.4,2.4,1,3.1,1.2c0.3,0.2,0.4,0.4,0.3,0.7c-0.1,0.4-1.5,4.9-2.7,8.7
		l-5.7,1.5L43.1,20.9z"/>
	<path class="st1" d="M31,0C13.9,0,0,13.9,0,31s13.9,31,31,31s31-13.9,31-31S48.1,0,31,0z M31,60.8C14.6,60.8,1.2,47.4,1.2,31
		S14.6,1.2,31,1.2S60.8,14.6,60.8,31S47.4,60.8,31,60.8z"/>
</g>
</svg>
