<?xml version="1.0" encoding="utf-8"?>
<!-- Generator: Adobe Illustrator 24.0.1, SVG Export Plug-In . SVG Version: 6.00 Build 0)  -->
<svg version="1.1" id="Layer_1" xmlns="http://www.w3.org/2000/svg" xmlns:xlink="http://www.w3.org/1999/xlink" x="0px" y="0px"
	 viewBox="0 0 63 63" style="enable-background:new 0 0 63 63;" xml:space="preserve">
<style type="text/css">
	.st0{fill:none;}
	.st1{fill:#B0B0B0;}
</style>
<title>tobacco_icon</title>
<desc>Created with Sketch.</desc>
<g>
	<path class="st0" d="M31.7,21.1C31.7,21.1,31.7,21.1,31.7,21.1c0-0.4,0.2-0.7,0.6-0.7c0.4,0,0.7,0.3,0.7,0.6l0.4,4
		c2.8-3,4.8-6.7,6-10.6c-2,2.2-6,5.2-12.6,5.9c-1.2,0.1-2.3,0.4-3.4,0.9c-1.9,0.8-3.5,2.3-4.5,4.1C17.9,27,17.5,29,17.7,31
		c0.1,1,0.4,1.9,0.8,2.8c0.2,0.4,0.4,0.8,0.7,1.2c5.8-2.6,10-5.7,13.1-8.8L31.7,21.1z"/>
	<path class="st0" d="M33.3,27c-1.7,1.8-3.6,3.4-5.6,4.8l4.4,0.8c0.3,0.1,0.6,0.4,0.5,0.7c-0.1,0.3-0.3,0.6-0.6,0.6c0,0-0.1,0-0.1,0
		l-5.7-1.1c-2,1.3-4.1,2.4-6.2,3.3c1.8,2.1,4.4,3.3,7.1,3.4c2,0.1,3.9-0.2,5.8-1c2-0.8,3.7-2.1,5.1-3.8v0c3.3-4,5-10.7,2.8-20.2
		C39.9,17.4,38,22.1,33.3,27C33.4,26.9,33.4,26.9,33.3,27z"/>
	<path class="st0" d="M31,1.4C14.7,1.4,1.4,14.7,1.4,31S14.7,60.6,31,60.6c16.3,0,29.6-13.3,29.6-29.6S47.3,1.4,31,1.4z M11.3,46.4
		c0,0.4-0.4,0.6-0.7,0.6c-0.4,0-0.6-0.4-0.6-0.7c0.5-4.8,6.2-9.3,8-10.6c-0.9-1.4-1.4-2.9-1.6-4.6c-0.2-2.2,0.2-4.5,1.3-6.4
		c1.1-2.1,2.9-3.8,5.1-4.7c1.2-0.5,2.5-0.9,3.8-1C36.7,17.8,40,11.4,40,11.3c0.1-0.2,0.3-0.3,0.6-0.3c0.1,0,0.2,0,0.3,0.1
		c0.2,0.1,0.3,0.2,0.3,0.4c3.4,11.5,1.5,19.4-2.3,24.1c-1.5,1.8-3.4,3.3-5.6,4.2c-2,0.9-4.2,1.2-6.3,1.1c-3.2-0.2-6.2-1.6-8.2-4.1
		C17.1,37.9,11.8,42.1,11.3,46.4z M35.2,48.7c-2.3,0.5-4.7,0.4-6.9-0.3c-2.1-0.6-4-1.6-5.6-3.1c-2-1.8-3.3-4.2-3.7-6.7
		c0.4,0,0.7,0,1.1,0c0.1,0,0.2,0,0.3,0c0.4,2.2,1.5,4.3,3.3,5.8c1.4,1.3,3.2,2.3,5.1,2.8c2.1,0.6,4.2,0.7,6.3,0.2l0,0
		c5.1-1,10.5-5,14.7-13.6c-2.2,1.5-6,3.6-11.4,4.6c0.7-0.5,1.2-1.1,1.8-1.7c3.1-0.8,6.1-2.1,8.7-3.9c-1.5,0.2-3.7,0.3-6.1-0.3
		c0.1-0.3,0.3-0.6,0.4-0.9c0-0.1,0.1-0.2,0.1-0.3c4.8,1,8.1-0.4,8.1-0.4c0,0,0,0,0,0c0.3-0.1,0.7,0,0.8,0.3c0.1,0.2,0.1,0.3,0,0.5
		C47.4,42.7,41.1,47.5,35.2,48.7z"/>
	<path class="st1" d="M51.9,31.4c-0.1-0.3-0.5-0.5-0.8-0.3c0,0,0,0,0,0c0,0-3.2,1.4-8.1,0.4c0,0.1,0,0.2-0.1,0.3
		c-0.1,0.3-0.2,0.6-0.4,0.9c2.5,0.5,4.6,0.5,6.1,0.3c-2.7,1.8-5.6,3.1-8.7,3.9c-0.5,0.6-1.1,1.2-1.8,1.7c5.4-1,9.2-3.1,11.4-4.6
		c-4.2,8.6-9.6,12.6-14.7,13.6l0,0c-2.1,0.4-4.2,0.4-6.3-0.2c-1.9-0.5-3.6-1.5-5.1-2.8c-1.7-1.5-2.9-3.6-3.3-5.8c-0.1,0-0.2,0-0.3,0
		c-0.4,0-0.7,0-1.1,0c0.4,2.6,1.7,4.9,3.7,6.7c1.6,1.4,3.5,2.5,5.6,3.1c2.2,0.6,4.6,0.7,6.9,0.3c5.9-1.2,12.2-6.1,16.7-16.8
		C52,31.7,52,31.5,51.9,31.4z"/>
	<path class="st1" d="M27,40.8c2.2,0.1,4.3-0.2,6.3-1.1c2.2-0.9,4.1-2.3,5.6-4.2c3.9-4.7,5.7-12.6,2.3-24.1c0-0.2-0.2-0.3-0.3-0.4
		C40.8,11,40.7,11,40.6,11c-0.2,0-0.5,0.1-0.6,0.3c0,0-3.3,6.5-13.4,7.6c-1.3,0.1-2.6,0.5-3.8,1c-2.2,1-4,2.6-5.1,4.7
		c-1.1,2-1.5,4.2-1.3,6.4c0.2,1.6,0.7,3.2,1.6,4.6c-1.8,1.3-7.5,5.8-8,10.6c0,0.4,0.2,0.7,0.6,0.7c0.4,0,0.7-0.2,0.7-0.6
		c0.5-4.3,5.8-8.5,7.5-9.7C20.8,39.2,23.8,40.6,27,40.8z M40.7,14.5c2.2,9.5,0.5,16.2-2.8,20.2v0c-1.4,1.7-3.1,3-5.1,3.8
		c-1.8,0.8-3.8,1.1-5.8,1c-2.7-0.1-5.3-1.4-7.1-3.4c2.1-1,4.2-2.1,6.2-3.3l5.7,1.1c0,0,0.1,0,0.1,0c0.3,0,0.6-0.2,0.6-0.6
		c0.1-0.3-0.2-0.7-0.5-0.7l-4.4-0.8c2-1.4,3.9-3,5.6-4.8c0,0,0.1-0.1,0.1-0.1C38,22.1,39.9,17.4,40.7,14.5z M18.5,33.8
		c-0.4-0.9-0.7-1.9-0.8-2.8c-0.2-2,0.2-3.9,1.1-5.7c1-1.8,2.6-3.3,4.5-4.1c1.1-0.5,2.3-0.8,3.4-0.9c6.7-0.7,10.6-3.7,12.6-5.9
		c-1.2,3.9-3.2,7.6-6,10.6L33,21c0-0.4-0.3-0.6-0.7-0.6c-0.4,0-0.6,0.3-0.6,0.7c0,0,0,0,0,0.1l0.5,5.2c-3,3.1-7.2,6.2-13.1,8.8
		C18.9,34.6,18.7,34.2,18.5,33.8z"/>
	<path class="st1" d="M31,0C13.9,0,0,13.9,0,31s13.9,31,31,31c17.1,0,31-13.9,31-31S48.1,0,31,0z M31,60.6
		C14.7,60.6,1.4,47.3,1.4,31S14.7,1.4,31,1.4c16.3,0,29.6,13.3,29.6,29.6S47.3,60.6,31,60.6z"/>
</g>
</svg>
